{"glyphs":{"0":{"ha":3129,"x_min":69,"x_max":3060,"o":"m 69 1483 q 133 1045 69 1254 q 315 657 197 836 q 599 335 433 478 q 969 94 765 192 q 1042 62 1004 79 q 1119 31 1079 44 q 1199 8 1158 17 q 1276 -1 1239 -1 l 1276 11 l 1139 211 q 1138 213 1139 211 q 1138 217 1138 215 q 1138 220 1138 218 q 1139 222 1139 222 l 1160 243 q 1178 262 1167 249 q 1201 289 1190 275 q 1222 314 1213 303 q 1233 328 1231 325 q 1306 416 1264 363 q 1385 529 1347 469 q 1451 649 1424 589 q 1478 760 1478 710 q 1451 790 1478 771 q 1392 840 1425 810 q 1333 914 1360 871 q 1307 1015 1307 957 q 1338 1136 1307 1088 q 1408 1217 1369 1185 q 1477 1267 1446 1249 q 1508 1301 1508 1286 q 1481 1508 1508 1404 q 1406 1713 1453 1611 q 1298 1910 1360 1814 q 1168 2098 1236 2007 q 1030 2272 1100 2189 q 896 2428 960 2356 q 950 2546 913 2489 q 1034 2655 988 2603 q 1131 2753 1081 2707 q 1224 2839 1181 2799 q 1269 2877 1244 2858 q 1321 2915 1294 2896 q 1371 2953 1347 2933 q 1414 2997 1394 2974 q 1119 2943 1263 2989 q 844 2821 975 2897 q 598 2642 714 2744 q 388 2419 482 2540 q 225 2164 294 2299 q 115 1889 156 2029 q 78 1688 86 1786 q 69 1483 69 1589 m 1983 200 q 1960 169 1976 192 q 1926 121 1944 146 q 1890 74 1907 96 q 1867 42 1874 51 q 1851 23 1860 31 q 1843 0 1843 15 l 1889 0 q 1932 11 1896 0 q 2013 37 1968 22 q 2103 67 2058 51 q 2174 94 2149 83 q 2483 279 2340 165 q 2736 535 2625 393 q 2924 843 2847 678 q 3039 1182 3001 1008 q 3044 1213 3040 1193 q 3051 1253 3047 1233 q 3057 1290 3054 1274 q 3060 1308 3060 1306 l 3060 1668 q 3058 1677 3060 1669 q 3056 1695 3057 1685 q 3052 1716 3054 1706 q 3050 1731 3050 1726 q 3039 1781 3046 1749 q 3025 1842 3032 1813 q 3013 1895 3018 1872 q 3007 1921 3008 1918 q 2869 2240 2956 2090 q 2665 2515 2782 2390 q 2406 2739 2549 2640 q 2100 2903 2263 2838 q 1908 2968 2004 2939 q 1708 2997 1813 2997 l 1699 2997 l 1708 2988 l 1772 2944 q 1936 2805 1861 2875 q 2089 2650 2011 2735 q 2126 2607 2103 2635 q 2172 2547 2149 2579 q 2211 2483 2194 2515 q 2228 2428 2228 2451 q 2227 2422 2228 2425 q 2226 2417 2226 2418 l 2153 2343 q 2035 2206 2097 2281 q 1913 2047 1974 2131 q 1799 1873 1853 1964 q 1703 1688 1744 1782 q 1637 1500 1661 1594 q 1613 1314 1613 1406 q 1613 1295 1613 1310 q 1614 1278 1614 1281 q 1758 1179 1701 1240 q 1815 1018 1815 1118 q 1771 878 1815 935 q 1656 781 1726 821 q 1651 776 1653 778 q 1646 771 1649 774 q 1692 616 1656 686 q 1775 483 1728 546 q 1875 359 1822 419 q 1972 232 1928 299 q 1978 222 1975 229 q 1983 211 1982 214 l 1983 206 l 1983 200 m 326 982 q 275 1051 299 996 q 235 1176 251 1107 q 208 1310 218 1244 q 199 1411 199 1376 q 199 1460 199 1431 q 206 1521 200 1490 q 222 1577 211 1551 q 253 1615 233 1603 q 262 1544 258 1583 q 272 1466 265 1506 q 294 1391 279 1426 q 336 1331 308 1356 q 381 1291 350 1318 q 449 1231 411 1264 q 531 1160 488 1197 q 612 1090 574 1124 q 681 1031 650 1057 q 728 992 713 1004 q 742 981 729 989 q 758 971 756 974 l 1033 833 l 1018 833 l 1001 833 q 990 835 999 833 q 970 838 981 836 q 950 842 960 840 q 939 844 940 843 q 867 860 915 850 q 759 885 819 871 q 632 913 699 899 q 505 942 565 928 q 397 966 444 956 q 326 982 349 976 m 2342 982 l 2711 1299 q 2766 1350 2743 1325 q 2796 1414 2789 1375 q 2801 1453 2797 1424 q 2810 1514 2806 1482 q 2820 1575 2815 1546 q 2828 1615 2825 1604 l 2839 1615 q 2848 1599 2842 1615 q 2860 1572 2854 1583 q 2870 1534 2865 1550 q 2877 1505 2875 1518 q 2881 1478 2879 1492 q 2882 1449 2882 1465 l 2882 1399 q 2878 1340 2882 1378 q 2866 1258 2874 1303 q 2847 1167 2858 1214 q 2821 1081 2836 1121 q 2786 1015 2806 1042 q 2743 982 2767 988 l 2268 876 q 2169 842 2221 853 q 2068 832 2118 832 q 2058 833 2065 832 q 2047 833 2050 833 q 2197 903 2124 867 q 2342 982 2269 940 z "},"1":{"ha":2139,"x_min":69,"x_max":2069,"o":"m 69 2000 l 69 0 l 2069 0 l 2069 2000 l 69 2000 m 486 167 l 579 740 l 111 1222 l 111 1236 q 133 1242 111 1238 q 167 1250 154 1247 q 233 1259 188 1253 q 337 1274 279 1265 q 458 1292 394 1282 q 580 1310 522 1301 q 683 1324 638 1318 q 750 1333 728 1331 l 778 1347 l 1042 1889 q 1045 1896 1042 1890 q 1053 1908 1049 1901 q 1062 1922 1057 1915 q 1069 1931 1067 1928 q 1076 1938 1071 1933 q 1083 1944 1081 1943 l 1381 1336 l 2028 1250 l 2042 1236 l 1568 747 l 1671 83 l 1639 83 l 1076 379 l 486 83 l 486 167 z "},"2":{"ha":4818,"x_min":69,"x_max":4749,"o":"m 1664 239 q 1942 58 1790 117 q 2268 -1 2093 -1 q 2517 33 2401 -1 q 2747 135 2633 68 q 2779 107 2767 128 q 2802 65 2792 86 q 2824 26 2813 43 q 2851 10 2835 10 l 3278 10 q 3324 39 3304 10 q 3362 103 3343 68 q 3400 168 3381 139 q 3444 197 3419 197 l 3622 197 q 3631 194 3624 197 q 3643 188 3639 190 l 3674 167 q 3706 141 3683 160 q 3753 100 3728 122 q 3800 58 3778 78 q 3831 31 3822 39 q 3870 11 3846 22 q 3914 0 3894 0 l 4299 0 q 4319 5 4308 0 q 4339 18 4329 10 q 4355 36 4349 26 q 4361 57 4361 46 l 4361 63 l 4351 104 l 4164 635 q 4157 656 4161 639 q 4153 676 4153 672 l 4153 688 q 4175 788 4153 743 q 4228 871 4197 832 q 4294 948 4260 910 q 4351 1031 4328 986 q 4373 1074 4357 1043 q 4407 1140 4389 1106 q 4442 1206 4425 1175 q 4465 1250 4458 1238 q 4527 1307 4493 1275 q 4581 1375 4561 1339 q 4611 1433 4589 1392 q 4658 1521 4633 1475 q 4706 1608 4683 1567 q 4736 1667 4728 1650 q 4746 1691 4743 1682 q 4749 1715 4749 1700 q 4729 1753 4749 1735 q 4690 1771 4710 1771 l 4685 1771 l 2819 1510 q 2802 1487 2811 1497 q 2778 1476 2793 1476 q 2762 1485 2763 1476 q 2757 1510 2761 1494 q 2747 1555 2754 1522 q 2731 1624 2739 1588 q 2715 1694 2722 1661 q 2706 1739 2708 1726 q 2632 1792 2686 1792 l 2081 1792 q 2065 1765 2076 1781 q 2039 1750 2054 1750 l 1747 1750 l 1694 1739 q 1733 1649 1710 1689 q 1778 1563 1757 1610 q 1771 1553 1776 1556 q 1758 1551 1765 1551 q 1744 1551 1750 1550 q 1736 1551 1738 1551 l 1706 1551 l 101 1801 l 69 1801 q 78 1760 69 1782 q 90 1718 88 1738 l 319 1364 q 343 1338 329 1349 q 372 1316 357 1326 q 400 1295 386 1306 q 424 1271 414 1285 l 601 1000 q 652 953 625 979 q 703 896 679 926 q 742 831 726 865 q 757 760 757 797 q 744 706 757 732 q 713 659 732 681 q 669 618 693 638 q 622 583 644 599 l 435 313 q 428 302 432 310 q 424 292 424 294 q 459 207 424 246 q 551 137 494 168 q 677 82 607 106 q 816 42 747 58 q 945 18 885 26 q 1043 10 1006 10 q 1486 125 1282 10 q 1524 153 1503 135 q 1567 192 1544 172 q 1611 226 1589 211 q 1653 240 1633 240 q 1659 240 1656 240 q 1664 239 1663 239 m 1788 318 q 1788 322 1788 321 q 1789 322 1789 322 l 1924 417 q 1925 417 1924 417 q 1929 418 1926 418 q 1957 409 1940 418 q 1992 389 1974 400 q 2025 367 2010 378 q 2049 354 2040 357 q 2142 328 2097 333 q 2236 322 2186 322 q 2294 324 2261 322 q 2360 334 2328 326 q 2422 356 2393 342 q 2465 396 2450 371 l 2435 426 l 1757 771 q 1859 925 1796 861 q 2000 1029 1922 989 q 2167 1088 2078 1069 q 2350 1106 2257 1106 q 2598 1068 2476 1106 q 2819 947 2719 1031 q 2832 937 2824 944 q 2840 926 2840 929 l 2842 922 q 2841 919 2842 921 q 2840 917 2840 918 q 2815 898 2833 911 q 2774 869 2796 885 q 2732 841 2751 854 q 2706 822 2713 828 q 2679 807 2690 813 q 2653 801 2668 801 l 2643 801 q 2574 846 2607 826 q 2506 879 2540 865 q 2435 900 2472 893 q 2353 907 2397 907 q 2299 901 2339 907 q 2218 883 2260 894 q 2144 855 2176 872 q 2111 817 2111 838 l 2111 813 l 2778 479 q 2794 469 2782 476 q 2810 458 2807 461 q 2810 457 2810 458 q 2811 453 2811 456 q 2801 432 2811 446 q 2780 403 2792 418 q 2758 377 2768 389 q 2747 364 2749 365 q 2525 206 2651 258 q 2256 154 2399 154 q 2026 181 2138 154 q 1819 281 1915 208 q 1804 296 1817 283 q 1789 313 1792 308 q 1788 315 1789 313 q 1788 318 1788 317 m 2961 156 l 3060 343 q 3029 361 3044 354 q 2994 368 3014 368 q 2997 375 2994 367 q 3019 417 3006 392 q 3047 467 3033 443 q 3069 509 3060 492 q 3081 526 3079 526 l 3164 526 l 3174 542 q 3185 558 3175 543 q 3209 599 3194 574 q 3242 654 3224 624 q 3278 716 3260 685 q 3313 775 3296 747 q 3340 822 3329 803 l 3351 843 q 3352 845 3351 843 q 3353 850 3353 847 q 3346 856 3353 853 q 3330 863 3339 860 q 3312 869 3321 867 q 3299 875 3303 872 q 3319 917 3304 888 q 3351 976 3335 946 q 3383 1028 3368 1006 q 3403 1051 3399 1051 l 3831 1051 q 3838 1047 3835 1051 q 3844 1035 3842 1042 q 3849 1025 3847 1029 q 3851 1021 3851 1021 l 4157 156 l 3903 156 q 3890 170 3896 156 q 3878 207 3885 185 q 3863 255 3871 229 q 3844 303 3856 281 q 3816 340 3832 325 q 3778 354 3800 354 l 3311 364 l 3189 156 l 2961 156 m 590 322 l 590 333 q 602 352 593 339 q 622 381 611 365 q 641 409 632 396 q 653 426 650 422 q 659 433 656 429 q 664 438 663 438 q 673 433 665 438 q 685 426 681 429 q 824 359 756 386 q 976 332 893 332 q 1073 346 1022 332 q 1167 388 1124 360 q 1240 456 1211 415 q 1268 551 1268 497 l 1268 563 q 1257 656 1264 599 q 1244 765 1250 713 q 1232 857 1238 818 q 1226 896 1226 896 l 1215 911 l 1014 911 q 1019 960 1014 928 q 1031 1024 1024 992 q 1047 1080 1039 1056 q 1060 1104 1054 1104 l 1474 1104 l 1528 563 q 1528 547 1528 560 q 1529 526 1529 533 q 1484 367 1529 435 q 1369 254 1439 299 q 1213 188 1299 210 q 1049 167 1128 167 q 833 197 932 167 q 632 281 735 228 q 606 297 621 288 q 590 322 590 307 m 3618 835 q 3585 817 3604 835 q 3547 772 3567 800 q 3508 710 3526 744 q 3474 642 3489 676 q 3449 578 3458 608 q 3440 531 3440 549 l 3747 531 l 3747 542 q 3735 574 3747 542 q 3707 649 3724 606 q 3672 738 3690 692 q 3643 813 3654 783 q 3635 832 3636 829 q 3618 835 3633 835 z "},"3":{"ha":2517,"x_min":69,"x_max":2447,"o":"m 69 908 l 69 0 l 2447 0 l 2447 908 l 2419 890 l 2269 890 q 2256 885 2265 890 q 2242 872 2246 879 q 2284 813 2261 840 q 2335 761 2307 785 l 2335 751 q 2274 763 2301 751 q 2221 789 2246 775 q 2170 815 2196 803 q 2115 826 2144 826 q 2041 812 2075 826 q 1967 797 2007 797 l 1954 797 l 1833 861 l 1824 861 q 1851 825 1824 840 q 1913 800 1878 810 q 1982 785 1949 790 q 2029 779 2015 781 l 2038 769 q 2048 788 2039 781 q 2068 800 2057 796 q 2092 806 2079 804 q 2114 808 2104 808 q 2162 790 2136 808 q 2206 761 2188 771 q 2233 752 2214 757 q 2270 742 2251 747 q 2303 731 2289 736 q 2317 721 2317 726 l 2317 714 q 2300 653 2310 686 q 2279 589 2290 621 q 2254 526 2268 557 q 2224 474 2240 496 q 2061 285 2150 369 q 1869 141 1972 200 q 1648 50 1765 82 q 1401 18 1531 18 q 1150 55 1267 18 q 932 156 1033 92 q 744 309 831 221 q 582 501 657 397 q 577 506 579 503 q 572 510 575 510 q 565 530 571 515 q 554 561 560 544 q 543 592 549 578 q 536 611 538 606 l 536 617 l 536 622 q 585 635 568 625 q 601 681 601 644 q 585 677 592 681 q 571 669 578 674 q 556 660 564 664 q 538 657 549 657 q 513 663 524 657 q 492 678 501 669 q 472 697 482 688 q 451 714 463 707 q 363 758 411 740 q 274 797 314 775 l 261 797 q 217 793 238 797 q 172 789 196 789 l 150 789 q 136 804 136 789 q 144 825 136 815 q 163 842 153 835 q 185 853 174 849 q 201 861 196 858 q 202 865 201 863 q 203 868 203 867 q 185 878 203 874 q 146 888 168 883 q 101 897 124 892 q 69 908 79 901 m 961 454 q 1111 349 1026 383 q 1288 296 1196 314 l 1310 296 q 1344 295 1328 296 q 1379 294 1361 294 l 1403 294 q 1558 308 1482 294 q 1705 352 1635 322 q 1836 430 1775 382 q 1946 547 1897 478 q 1963 572 1953 558 q 1981 601 1972 586 q 1997 629 1990 615 q 2003 654 2003 643 l 2000 658 q 1938 551 1969 601 q 1853 463 1906 500 l 1813 463 l 1692 463 l 1653 463 q 1517 458 1592 463 q 1366 460 1442 454 q 1223 490 1290 467 q 1110 565 1156 513 l 1119 575 l 2000 1121 q 2026 1098 2015 1101 q 2056 1094 2036 1094 q 2128 1112 2093 1094 q 2196 1151 2163 1129 q 2263 1190 2229 1172 q 2335 1207 2297 1207 q 2362 1206 2350 1207 q 2374 1189 2374 1206 q 2350 1140 2374 1158 q 2298 1106 2326 1122 q 2246 1072 2269 1090 q 2222 1025 2222 1054 q 2223 1014 2222 1022 q 2224 1003 2224 1006 q 2338 973 2282 988 q 2447 928 2393 958 l 2447 2050 l 69 2050 l 69 928 q 128 947 101 946 q 192 946 156 949 q 202 956 201 949 q 203 969 203 963 q 197 990 203 982 q 181 1005 190 999 q 162 1017 172 1011 q 144 1029 151 1022 q 133 1041 142 1032 q 115 1061 125 1050 q 98 1082 106 1072 q 89 1094 90 1092 l 99 1104 q 113 1105 101 1104 q 132 1106 124 1106 q 219 1092 179 1106 q 295 1058 258 1079 q 367 1013 332 1038 q 440 965 401 988 q 446 965 442 965 q 451 964 450 964 q 483 979 461 964 q 531 1019 504 994 q 585 1072 557 1043 q 640 1127 614 1100 q 684 1175 665 1154 q 711 1206 703 1196 q 724 1221 714 1210 q 747 1244 735 1232 q 769 1267 758 1257 q 785 1281 781 1278 q 785 1288 785 1283 q 786 1294 786 1293 q 778 1333 786 1314 q 763 1370 771 1351 q 747 1408 754 1389 q 739 1450 739 1428 q 753 1510 739 1483 q 785 1562 767 1538 q 825 1610 804 1586 q 860 1661 846 1633 q 906 1763 888 1710 q 953 1864 925 1815 q 978 1891 958 1876 q 1007 1911 997 1906 q 1054 1935 1021 1918 q 1124 1972 1088 1953 q 1194 2008 1161 1990 q 1240 2032 1228 2025 q 1273 2042 1260 2040 q 1306 2043 1286 2043 q 1363 1986 1363 2043 q 1358 1967 1363 1975 q 1348 1953 1353 1960 q 1338 1940 1343 1947 q 1333 1921 1333 1932 q 1335 1826 1333 1871 q 1345 1740 1338 1782 q 1369 1657 1353 1697 q 1415 1576 1386 1617 q 1428 1562 1422 1574 q 1435 1549 1435 1550 l 1435 1540 l 1435 1528 l 1435 1513 l 1435 1503 q 1449 1472 1436 1486 q 1463 1442 1463 1457 l 1463 1438 q 1460 1429 1463 1436 q 1454 1419 1457 1422 l 1458 1419 q 1481 1425 1469 1419 q 1504 1438 1492 1431 q 1529 1451 1517 1446 q 1554 1457 1542 1457 q 1613 1448 1569 1457 q 1701 1424 1656 1439 q 1781 1392 1746 1410 q 1815 1358 1815 1375 q 1815 1356 1815 1357 q 1814 1354 1814 1354 l 935 817 l 915 807 l 908 807 l 907 807 l 840 872 l 829 872 q 800 863 822 872 q 747 839 778 854 q 683 805 717 824 q 622 767 650 786 q 576 729 594 747 q 557 699 557 711 q 594 714 569 699 q 648 748 619 729 q 702 783 676 767 q 743 799 728 799 q 751 798 746 799 q 757 797 756 797 q 761 779 758 792 q 768 754 764 767 q 779 732 772 742 q 797 722 786 722 q 816 724 813 722 q 832 733 819 725 l 1814 1338 q 1848 1355 1840 1349 q 1856 1381 1856 1361 q 1838 1420 1856 1401 q 1794 1456 1821 1439 q 1733 1489 1767 1474 q 1668 1516 1700 1504 q 1608 1536 1636 1528 q 1565 1549 1581 1544 q 1547 1553 1561 1550 q 1515 1558 1532 1556 q 1483 1564 1499 1561 q 1463 1568 1468 1567 q 1412 1624 1431 1594 q 1383 1684 1393 1653 q 1369 1750 1372 1715 q 1365 1824 1365 1785 q 1656 1786 1511 1824 q 1924 1675 1800 1749 q 2143 1490 2047 1601 q 2289 1233 2239 1379 q 2249 1202 2282 1222 q 2178 1163 2217 1182 q 2103 1128 2139 1143 q 2051 1114 2067 1114 q 2040 1119 2043 1114 q 2033 1129 2036 1124 q 2025 1140 2031 1135 q 2010 1144 2019 1144 q 2001 1144 2008 1144 q 1993 1142 1994 1143 q 1936 1107 1976 1132 q 1851 1053 1896 1082 q 1768 1000 1807 1025 q 1714 965 1729 975 q 1705 960 1711 963 q 1694 954 1699 957 l 1101 583 q 1067 566 1090 581 q 1019 533 1043 551 q 978 497 996 515 q 961 469 961 479 l 961 454 m 2010 686 q 2007 682 2007 689 q 2011 676 2007 675 q 2015 682 2015 678 q 2010 686 2015 686 m 563 696 q 556 686 556 696 q 563 676 556 676 q 571 686 571 676 q 563 696 571 696 m 2021 714 q 2015 711 2015 717 q 2019 705 2015 703 q 2024 711 2024 707 q 2023 713 2024 711 q 2021 714 2022 714 m 2029 743 q 2024 736 2024 744 q 2029 733 2024 731 q 2035 736 2035 735 q 2029 743 2035 739 m 2281 861 q 2292 872 2282 871 q 2308 872 2301 872 q 2335 869 2325 872 q 2346 846 2346 865 q 2344 822 2346 832 q 2335 797 2343 811 q 2281 861 2299 826 m 2233 1026 q 2255 1035 2244 1026 q 2276 1056 2265 1044 q 2299 1077 2288 1068 q 2321 1086 2310 1086 q 2325 1085 2324 1086 q 2326 1085 2326 1085 q 2342 1068 2338 1078 q 2347 1047 2346 1058 q 2347 1022 2349 1035 q 2346 999 2346 1010 q 2326 1000 2340 999 q 2308 1003 2313 1001 q 2287 1007 2300 1004 q 2262 1013 2274 1010 q 2242 1018 2250 1015 q 2233 1021 2233 1021 l 2233 1026 m 729 1540 l 729 1535 q 725 1493 729 1511 q 721 1449 721 1475 q 722 1411 721 1433 q 728 1367 724 1389 q 742 1327 732 1346 q 768 1299 751 1308 q 751 1285 763 1294 q 728 1263 740 1275 q 706 1240 715 1251 q 693 1225 696 1229 q 652 1178 681 1213 q 590 1109 624 1144 q 526 1046 557 1074 q 476 1018 494 1018 q 497 1162 476 1089 q 551 1303 517 1235 q 631 1432 585 1371 q 729 1540 676 1493 m 2281 1085 q 2286 1078 2286 1085 q 2281 1067 2286 1067 q 2271 1078 2271 1067 q 2281 1085 2271 1085 m 1026 1253 q 1036 1234 1026 1238 q 1058 1231 1046 1231 q 1049 1251 1058 1244 q 1028 1263 1039 1257 q 1027 1258 1028 1261 q 1026 1253 1026 1256 m 1072 1263 q 1065 1253 1065 1263 q 1072 1243 1065 1243 q 1081 1253 1081 1243 q 1072 1263 1081 1263 m 1139 1263 l 1119 1253 l 1139 1253 l 1139 1263 m 1399 1317 l 1388 1299 l 1399 1299 l 1399 1317 m 1415 1354 q 1411 1353 1413 1354 q 1410 1344 1410 1353 q 1415 1338 1410 1338 q 1425 1344 1425 1338 q 1422 1353 1425 1353 q 1415 1354 1419 1354 m 1028 1364 q 1039 1363 1031 1364 q 1058 1359 1047 1361 q 1078 1356 1068 1357 q 1092 1354 1088 1354 l 1097 1354 q 1113 1363 1107 1354 q 1121 1382 1118 1371 q 1124 1404 1124 1393 q 1125 1419 1125 1415 l 1113 1419 q 1108 1380 1113 1388 q 1078 1372 1104 1372 q 1067 1373 1075 1372 q 1056 1374 1058 1374 l 1101 1428 q 1080 1415 1092 1421 q 1058 1402 1068 1408 q 1040 1387 1047 1396 q 1028 1364 1032 1378 m 1443 1401 q 1434 1383 1442 1394 q 1415 1364 1426 1371 l 1426 1364 q 1447 1369 1439 1364 q 1456 1388 1456 1375 q 1455 1390 1456 1389 q 1454 1392 1454 1392 q 1450 1398 1454 1394 q 1443 1401 1446 1401 m 1119 1549 l 1119 1540 l 1128 1540 l 1128 1549 l 1119 1549 m 1017 1688 q 1025 1678 1018 1685 q 1035 1669 1032 1671 q 1044 1678 1043 1674 q 1046 1688 1046 1683 q 1043 1705 1046 1699 q 1028 1715 1040 1711 q 1020 1703 1024 1713 q 1017 1688 1017 1693 m 1167 1688 q 1175 1678 1168 1685 q 1183 1669 1182 1671 q 1194 1678 1193 1674 q 1196 1688 1196 1683 q 1192 1705 1196 1699 q 1175 1715 1189 1711 q 1169 1703 1172 1713 q 1167 1688 1167 1693 m 1007 1790 q 1003 1794 1011 1794 q 999 1791 997 1794 q 1003 1788 1000 1788 q 1007 1790 1007 1788 m 1028 1828 l 1007 1808 l 1014 1808 l 1017 1808 q 1035 1819 1026 1811 l 1028 1828 m 1240 1819 q 1237 1822 1242 1821 q 1226 1822 1232 1822 q 1215 1822 1219 1822 q 1213 1819 1210 1821 q 1226 1814 1214 1814 q 1240 1819 1239 1814 m 1203 1836 q 1199 1843 1206 1843 q 1194 1838 1192 1843 q 1199 1833 1196 1833 q 1203 1836 1203 1833 z "},"4":{"ha":4115,"x_min":69,"x_max":4046,"o":"m 2014 422 l 1825 58 l 1810 14 l 1810 7 l 1810 0 l 2294 438 l 2474 438 l 2474 510 l 2554 496 q 2556 453 2547 469 q 2585 426 2565 436 q 2629 411 2604 415 q 2681 406 2654 407 q 2730 405 2707 404 q 2767 406 2753 406 q 2767 418 2767 410 q 2769 436 2768 426 q 2772 454 2771 446 q 2772 467 2772 463 q 2778 475 2774 469 q 2788 481 2783 481 q 2813 412 2789 435 q 2873 379 2838 389 q 2949 368 2908 369 q 3021 364 2989 367 l 3021 435 q 3076 429 3057 435 q 3103 415 3094 424 q 3114 394 3111 406 q 3122 371 3117 382 q 3140 350 3128 360 q 3181 335 3153 340 q 3206 329 3186 333 q 3249 321 3226 325 q 3294 312 3272 317 q 3326 306 3315 307 q 3334 305 3328 306 q 3342 304 3340 304 l 3342 376 q 3369 378 3360 376 q 3386 379 3379 379 q 3403 376 3394 379 q 3429 364 3411 374 q 3445 292 3421 318 q 3508 253 3469 267 q 3590 235 3547 239 q 3663 232 3633 232 l 3663 303 q 3697 294 3683 303 q 3717 272 3710 286 q 3728 240 3725 258 q 3735 204 3732 222 l 3939 146 q 3947 145 3940 146 q 3954 144 3953 144 l 3954 218 l 4046 218 q 4035 307 4046 274 q 4008 360 4024 340 q 3973 390 3992 379 q 3938 409 3954 400 q 3911 431 3922 418 q 3900 467 3900 443 l 3988 467 l 3779 1297 q 3749 1322 3776 1311 q 3688 1342 3722 1333 q 3621 1354 3653 1350 q 3575 1358 3589 1358 l 3575 1268 q 3540 1260 3553 1265 q 3517 1250 3528 1256 q 3496 1241 3507 1244 q 3465 1238 3485 1238 q 3444 1238 3458 1238 q 3429 1239 3431 1239 l 3239 1283 l 3231 1283 q 3217 1273 3224 1283 q 3207 1249 3211 1263 q 3200 1224 3203 1236 q 3196 1210 3197 1213 q 3192 1208 3196 1208 q 3188 1207 3189 1207 q 3181 1210 3183 1207 q 3170 1228 3178 1215 q 3153 1256 3163 1242 q 3135 1281 3144 1269 q 3122 1297 3126 1293 q 3080 1312 3111 1307 q 3016 1320 3049 1317 q 2958 1330 2983 1324 q 2932 1349 2932 1336 q 2933 1353 2932 1350 q 2933 1356 2933 1356 l 3210 1633 l 2568 1633 q 2574 1648 2569 1636 q 2583 1663 2579 1660 l 2758 1925 l 2758 1939 l 1806 1939 l 1621 1385 q 1540 1380 1575 1390 q 1476 1347 1504 1369 q 1427 1293 1449 1325 q 1388 1225 1406 1261 q 1380 1260 1392 1250 q 1352 1280 1368 1271 q 1322 1302 1336 1289 q 1308 1346 1308 1315 q 1231 1347 1267 1346 q 1167 1339 1194 1347 q 1121 1308 1139 1331 q 1096 1239 1103 1285 l 1074 1239 l 1074 1315 q 1054 1315 1074 1315 q 1022 1313 1035 1314 l 950 1297 l 933 1297 q 895 1299 917 1297 q 867 1301 874 1301 q 871 1316 867 1306 q 876 1336 875 1326 q 872 1352 878 1346 q 847 1356 867 1358 l 847 1429 l 439 1342 q 396 1313 418 1338 q 353 1254 374 1289 q 313 1178 332 1219 q 279 1095 293 1136 q 257 1019 265 1054 q 249 963 249 983 q 276 863 249 911 q 342 771 303 815 q 424 687 381 726 q 497 613 467 647 q 498 601 497 610 q 499 590 499 593 q 483 521 499 557 q 439 467 468 485 q 435 482 440 471 q 425 496 429 493 q 413 495 422 497 q 395 491 404 493 q 378 487 386 489 q 367 485 369 485 l 367 583 q 284 567 324 575 q 211 545 244 560 q 153 506 178 531 q 118 438 129 481 q 107 395 114 422 q 94 340 100 368 q 82 290 88 313 q 75 263 76 267 q 72 240 74 257 q 69 218 69 224 l 147 218 l 147 156 l 600 276 q 634 295 615 281 q 669 326 653 310 q 699 358 686 343 q 717 379 713 374 l 789 379 q 792 339 781 344 q 821 333 804 333 q 909 341 864 333 q 993 364 954 349 q 1010 382 1006 369 q 1018 407 1015 394 q 1028 429 1021 419 q 1051 439 1035 439 q 1060 438 1054 439 q 1067 438 1065 438 q 1067 425 1065 433 q 1070 407 1068 417 q 1075 390 1072 397 q 1081 379 1078 382 q 1088 378 1081 379 q 1100 378 1096 378 q 1112 378 1103 378 q 1125 379 1121 379 q 1154 385 1133 381 q 1198 393 1175 389 q 1242 401 1221 397 q 1271 408 1263 406 q 1285 426 1281 414 q 1294 451 1290 439 q 1303 474 1297 464 q 1321 483 1308 483 q 1325 482 1322 483 q 1329 481 1328 481 q 1326 468 1326 476 q 1328 451 1326 460 q 1335 433 1331 442 q 1343 422 1339 425 l 1372 422 q 1693 428 1536 422 q 2014 433 1850 433 l 2014 422 m 163 496 q 193 504 171 499 q 241 517 215 510 q 290 530 267 524 q 322 539 313 536 q 330 540 324 539 q 339 542 336 542 q 332 476 339 507 q 325 411 325 446 q 402 418 371 411 q 455 443 433 425 q 493 492 476 461 q 526 568 510 522 q 527 578 526 571 q 528 590 528 586 q 527 601 528 593 q 526 613 526 610 l 322 846 q 285 889 293 876 q 278 918 278 901 l 278 957 q 285 1008 278 975 q 306 1080 293 1042 q 336 1158 319 1118 q 371 1232 353 1199 q 406 1288 389 1265 q 439 1313 424 1310 l 819 1396 l 789 1225 q 769 1214 783 1221 q 736 1203 756 1207 q 683 1190 713 1196 q 643 1181 653 1185 l 643 1283 l 629 1297 q 606 1301 622 1303 q 570 1291 589 1299 q 535 1273 551 1283 q 513 1254 518 1263 q 485 1197 496 1221 q 467 1151 474 1172 q 456 1109 460 1131 q 453 1060 453 1088 q 467 992 453 1017 q 513 933 482 968 q 549 889 522 921 q 606 822 575 857 q 663 757 636 788 q 701 714 690 726 q 702 689 701 708 q 703 664 703 669 q 694 592 703 624 q 670 532 686 561 q 633 474 654 503 q 585 408 611 444 q 569 392 581 403 q 556 379 558 381 l 104 247 l 104 256 l 104 263 l 163 496 m 3851 292 q 3831 315 3839 300 q 3817 347 3822 329 q 3809 381 3811 364 q 3807 410 3807 397 q 3815 409 3810 410 q 3822 408 3821 408 q 3855 399 3832 406 q 3903 386 3878 393 q 3952 373 3929 379 q 3983 364 3975 367 q 4004 306 3994 336 q 4014 246 4014 276 q 4005 247 4011 246 q 3997 247 3999 247 q 3967 255 3988 249 q 3924 269 3947 261 q 3881 283 3901 276 q 3851 292 3860 289 m 3363 1168 q 3342 1155 3350 1168 q 3331 1125 3335 1142 q 3327 1094 3328 1108 q 3326 1079 3326 1081 l 3326 1061 q 3326 1029 3326 1047 q 3325 990 3325 1011 l 3325 961 l 3325 935 q 3326 903 3325 918 q 3326 874 3326 888 l 3326 860 q 3333 809 3328 843 q 3344 732 3338 775 q 3360 642 3351 689 q 3376 551 3368 594 q 3390 473 3383 507 q 3400 422 3396 439 l 3400 407 q 3392 408 3399 407 q 3385 408 3386 408 q 3344 415 3369 410 q 3296 425 3319 419 q 3256 434 3272 431 q 3239 438 3239 438 l 3225 451 q 3196 650 3208 553 q 3164 842 3183 747 q 3115 1029 3144 938 q 3035 1210 3085 1121 q 3026 1223 3029 1219 q 3018 1226 3022 1226 q 3008 1223 3014 1225 q 2992 1221 3001 1221 l 2992 1151 l 3085 465 l 2918 496 l 2831 1254 l 2831 1315 q 2852 1315 2835 1315 q 2875 1313 2869 1314 q 2913 1307 2886 1311 q 2971 1298 2940 1303 q 3028 1289 3001 1293 q 3064 1283 3054 1285 q 3134 1242 3114 1275 q 3166 1167 3154 1208 q 3189 1086 3178 1126 q 3232 1021 3200 1046 l 3232 1246 q 3311 1242 3261 1246 q 3411 1228 3361 1239 q 3500 1200 3461 1218 q 3546 1151 3539 1182 l 3721 350 l 3721 332 q 3676 338 3697 332 q 3633 350 3656 343 q 3609 356 3624 351 q 3581 367 3594 361 q 3556 376 3567 372 q 3546 379 3546 379 l 3400 1122 q 3386 1151 3396 1133 q 3363 1168 3376 1168 m 3750 422 q 3753 424 3751 422 q 3757 425 3756 425 q 3770 417 3765 425 q 3778 400 3775 410 q 3781 380 3781 390 q 3782 364 3782 369 l 3750 364 l 3750 422 m 760 481 l 892 1254 q 908 1260 892 1256 q 935 1268 925 1265 q 954 1272 939 1269 q 986 1278 969 1275 q 1017 1282 1003 1281 q 1038 1283 1032 1283 l 1038 1261 q 1024 1106 1038 1182 q 1011 950 1011 1029 q 1065 955 1040 950 q 1096 992 1089 960 l 1139 1297 q 1153 1305 1139 1301 q 1187 1310 1168 1308 q 1225 1312 1206 1311 q 1256 1313 1244 1313 l 1285 1313 l 1197 496 q 1187 494 1197 496 q 1163 490 1176 492 q 1134 485 1149 488 q 1110 481 1119 482 q 1084 479 1103 481 q 1049 478 1065 478 l 1035 478 q 1048 675 1035 579 q 1061 872 1061 771 q 1030 872 1043 872 q 1006 866 1017 871 q 990 849 996 861 q 979 817 983 838 q 966 745 975 797 q 947 635 957 693 q 930 524 938 576 q 921 451 922 472 q 895 444 914 449 q 856 436 876 440 q 816 428 835 432 q 789 422 797 424 q 774 420 786 421 q 760 419 763 419 l 760 481 m 3604 1326 l 3611 1326 q 3648 1323 3624 1326 q 3697 1311 3672 1319 q 3740 1289 3721 1303 q 3764 1254 3760 1275 l 3954 496 l 3946 496 l 3939 496 q 3894 507 3921 500 q 3841 521 3867 514 q 3797 533 3815 528 q 3779 539 3779 539 l 3604 1326 m 1504 1342 q 1644 1358 1575 1354 q 1783 1361 1713 1361 q 1779 957 1783 1154 q 1767 554 1775 760 q 1738 550 1758 553 q 1694 545 1717 547 q 1650 541 1671 543 q 1621 539 1629 539 l 1606 539 l 1592 539 q 1596 585 1593 553 q 1601 656 1599 618 q 1604 726 1603 693 q 1606 772 1606 758 l 1606 806 q 1605 840 1606 821 q 1604 878 1604 858 q 1603 912 1604 897 q 1603 933 1603 926 l 1504 933 l 1460 525 q 1444 523 1460 525 q 1408 519 1429 521 q 1365 514 1388 517 q 1329 510 1343 511 q 1312 509 1325 510 q 1294 508 1299 508 q 1295 526 1294 514 q 1297 553 1296 539 q 1299 581 1299 568 q 1300 597 1300 593 q 1304 649 1301 615 q 1311 722 1307 682 q 1320 804 1315 761 q 1330 885 1325 847 q 1338 951 1335 922 q 1343 992 1342 981 q 1362 1083 1349 1032 q 1395 1183 1375 1133 q 1442 1274 1415 1232 q 1504 1342 1469 1317 m 2656 539 q 2650 606 2654 558 q 2641 708 2646 654 q 2632 808 2636 761 q 2626 875 2628 856 q 2624 892 2626 882 q 2620 911 2622 901 q 2616 927 2618 921 q 2613 933 2614 933 l 2511 933 q 2519 735 2511 832 q 2528 536 2528 638 q 2444 542 2485 536 q 2364 554 2404 547 q 2360 624 2363 576 q 2353 733 2357 672 q 2347 860 2350 793 q 2342 988 2344 926 q 2337 1097 2339 1049 q 2335 1167 2335 1144 q 2334 1192 2335 1174 q 2333 1232 2333 1210 q 2333 1278 2333 1254 q 2332 1321 2332 1301 l 2332 1361 q 2472 1358 2399 1361 q 2613 1342 2546 1356 q 2678 1265 2650 1311 q 2724 1166 2706 1218 q 2755 1061 2743 1114 q 2772 963 2767 1008 q 2777 925 2774 953 q 2785 860 2781 897 q 2794 779 2789 822 q 2803 696 2799 736 q 2812 622 2808 656 q 2817 568 2815 588 q 2817 556 2817 564 q 2819 539 2818 549 q 2819 521 2819 529 q 2819 508 2819 513 q 2803 509 2817 508 q 2788 510 2790 510 q 2754 514 2774 511 q 2716 519 2735 517 q 2684 523 2697 521 q 2671 525 2671 525 l 2656 539 m 1818 554 l 2096 1306 l 1883 1306 l 1883 1371 l 2263 1371 l 2276 1356 q 2251 1283 2268 1332 q 2211 1173 2233 1235 q 2165 1043 2189 1111 q 2120 913 2142 975 q 2082 802 2099 851 q 2058 729 2065 753 q 2046 691 2049 701 q 2043 675 2043 681 q 2044 664 2043 671 q 2046 635 2046 657 l 2263 635 l 2263 554 l 1818 554 m 540 976 q 544 1028 540 1000 q 558 1081 549 1056 q 585 1125 568 1106 q 629 1151 603 1144 q 642 1155 635 1154 q 650 1156 650 1156 l 650 1096 q 658 1094 650 1096 q 672 1093 667 1093 l 789 1108 q 812 1109 794 1108 q 836 1110 829 1110 q 835 1094 836 1107 q 833 1079 833 1082 q 822 1008 831 1057 q 803 906 813 960 q 786 806 794 853 q 775 743 778 760 q 768 721 774 738 q 760 700 763 704 q 697 756 735 722 q 625 826 660 789 q 565 903 590 864 q 540 976 540 942 m 2233 817 l 2247 817 l 2247 714 l 2131 714 l 2233 817 m 1636 1288 q 1578 1255 1601 1288 q 1540 1178 1554 1222 q 1521 1088 1526 1133 q 1515 1015 1515 1042 q 1533 1016 1519 1015 q 1560 1018 1546 1017 q 1588 1020 1575 1019 q 1606 1021 1601 1021 q 1615 1026 1608 1021 q 1621 1035 1621 1032 q 1625 1090 1622 1058 q 1630 1156 1628 1122 q 1634 1224 1632 1190 q 1636 1288 1636 1258 m 2489 1288 q 2490 1246 2489 1275 q 2492 1183 2492 1217 q 2494 1121 2493 1150 q 2496 1079 2496 1092 q 2498 1063 2496 1072 q 2502 1043 2500 1053 q 2506 1027 2504 1033 q 2510 1021 2508 1021 l 2604 1021 q 2597 1085 2604 1042 q 2576 1174 2590 1129 q 2540 1253 2561 1219 q 2489 1288 2518 1288 m 1883 1196 l 1956 1196 q 1927 1133 1943 1167 q 1883 1079 1911 1099 l 1883 1196 z "},"5":{"ha":1489,"x_min":69,"x_max":1419,"o":"m 69 2306 l 69 0 l 1419 0 l 1419 2306 l 69 2306 m 608 967 q 606 969 608 967 q 601 972 604 972 q 590 969 599 972 q 575 967 581 967 q 553 958 568 964 q 520 944 538 951 q 488 929 503 936 q 465 919 472 922 l 451 919 q 465 1171 451 1046 q 479 1422 479 1296 l 479 1444 q 471 1452 476 1451 q 463 1453 465 1453 l 453 1453 l 322 1406 l 315 1406 q 324 1607 315 1508 q 342 1807 333 1706 q 347 1861 343 1828 q 353 1926 350 1894 q 358 1980 356 1957 q 361 2003 361 2003 l 1017 2176 l 1025 2176 q 1017 2143 1025 2161 l 879 1588 l 907 1588 l 1147 1669 l 1056 1361 q 1053 1344 1056 1357 q 1049 1329 1050 1332 q 1040 1299 1046 1321 q 1026 1253 1033 1276 q 1011 1208 1018 1229 q 1003 1179 1004 1186 l 1003 1172 q 1017 1160 1003 1160 q 1025 1162 1018 1160 q 1036 1167 1032 1164 q 1055 1172 1040 1167 q 1085 1184 1069 1178 q 1114 1197 1100 1190 q 1132 1206 1128 1203 l 1143 1206 l 949 810 l 949 792 l 646 175 l 642 168 q 629 367 632 267 q 625 567 626 467 q 621 768 624 668 q 608 967 618 868 z "},"6":{"ha":1986,"x_min":69,"x_max":1917,"o":"m 69 2069 l 69 0 l 1917 0 l 1917 2069 l 69 2069 m 764 708 l 764 749 q 698 742 731 749 q 632 736 665 736 l 611 736 q 618 747 613 739 q 631 765 624 756 q 644 781 638 774 q 653 792 650 789 q 692 835 665 806 q 751 902 718 865 q 819 980 783 939 q 889 1058 856 1021 q 948 1124 922 1094 q 986 1167 974 1153 l 986 1208 l 847 1208 l 1538 1867 l 1236 1444 q 1225 1427 1228 1432 q 1222 1418 1222 1422 q 1224 1408 1222 1414 q 1225 1389 1225 1401 l 1389 1389 q 1324 1278 1372 1329 q 1223 1176 1275 1226 q 1131 1074 1171 1126 q 1090 958 1090 1021 l 1208 958 l 378 218 l 764 708 m 694 431 q 992 710 833 579 q 1306 972 1150 842 q 1313 986 1308 975 q 1319 1000 1318 997 q 1319 1007 1321 1003 q 1317 1014 1317 1011 l 1153 1014 q 1231 1122 1185 1072 q 1319 1222 1278 1171 q 1363 1276 1336 1243 q 1413 1340 1389 1310 q 1455 1394 1438 1371 q 1472 1417 1472 1417 l 1472 1442 q 1381 1435 1425 1442 q 1288 1428 1336 1428 q 1298 1466 1288 1446 q 1324 1506 1308 1486 q 1356 1542 1339 1525 q 1389 1569 1374 1558 q 1499 1453 1450 1513 q 1583 1329 1549 1394 q 1637 1190 1618 1264 q 1656 1032 1656 1117 q 1603 774 1656 896 q 1461 560 1551 651 q 1251 414 1371 468 q 993 360 1131 360 q 918 362 958 360 q 838 371 878 364 q 760 392 797 378 q 694 431 724 406 m 319 1021 q 372 1283 319 1158 q 514 1503 424 1408 q 726 1653 604 1597 q 986 1710 847 1710 q 1115 1699 1049 1710 q 1236 1653 1182 1688 l 1222 1625 l 750 1167 l 750 1153 l 926 1153 l 528 708 l 528 683 q 605 689 568 683 q 681 694 642 694 l 694 694 q 667 649 683 678 q 633 594 651 621 q 597 547 615 567 q 563 528 579 528 q 499 558 529 528 q 441 636 468 589 q 392 741 414 683 q 353 853 369 799 q 328 953 338 908 q 319 1021 319 999 z "},"7":{"ha":2418,"x_min":69,"x_max":2349,"o":"m 69 0 l 692 0 l 893 201 l 1196 807 l 1464 135 q 1480 97 1468 119 q 1503 52 1492 74 q 1523 15 1514 31 q 1532 0 1532 0 l 2171 0 l 2349 215 l 1665 1681 l 994 1681 l 792 1479 l 69 0 m 171 67 l 825 1411 l 1464 1411 l 2086 67 l 1565 67 q 1560 74 1564 67 q 1552 92 1557 82 q 1542 115 1547 103 q 1532 135 1536 126 l 1263 807 q 1240 865 1249 838 q 1221 912 1232 892 q 1192 943 1210 932 q 1142 954 1174 954 q 1114 949 1131 954 q 1094 942 1097 944 l 658 67 l 171 67 z "},"8":{"ha":4513,"x_min":69,"x_max":4443,"o":"m 69 1757 l 69 0 l 4443 0 l 4443 1757 l 69 1757 m 244 1599 l 561 1599 l 667 1019 l 683 983 q 757 1289 731 1135 q 807 1599 783 1443 l 1131 1599 l 1131 299 q 1156 328 1144 299 q 1178 403 1168 357 q 1196 504 1188 449 q 1210 613 1204 560 q 1220 709 1215 665 q 1228 774 1225 753 q 1239 860 1231 801 q 1258 994 1247 919 q 1281 1150 1269 1068 q 1303 1306 1293 1232 q 1322 1440 1314 1381 q 1333 1529 1331 1500 l 1351 1599 l 1674 1599 l 1843 386 l 1886 246 l 1886 1599 l 2300 1599 q 2376 1570 2344 1599 q 2432 1504 2407 1542 q 2479 1428 2457 1467 q 2529 1371 2501 1390 l 2529 1406 q 2519 1502 2529 1454 q 2510 1599 2510 1550 l 2757 1599 l 2874 810 l 2897 861 l 3004 1599 l 3740 1599 l 3740 1310 l 3531 1310 l 3531 1010 l 3740 1010 l 3740 721 l 3531 721 l 3531 429 l 3740 429 l 3740 140 l 3267 140 l 3267 1440 l 3244 1535 l 3035 140 l 2757 140 l 2739 158 l 2669 579 q 2658 658 2664 610 q 2644 763 2651 707 q 2627 874 2636 818 q 2609 974 2618 929 q 2591 1047 2600 1018 q 2574 1075 2582 1075 q 2564 1072 2567 1075 q 2539 956 2561 1014 q 2490 849 2517 899 q 2442 758 2464 799 q 2421 696 2421 718 q 2422 680 2421 690 q 2424 668 2424 669 l 2586 140 l 2353 140 l 2335 158 q 2326 181 2335 158 q 2306 234 2318 203 q 2283 298 2294 265 q 2265 351 2271 331 q 2242 426 2250 393 q 2225 488 2233 458 q 2206 548 2217 518 q 2178 615 2196 578 q 2173 616 2175 615 q 2168 617 2171 617 q 2163 616 2165 617 q 2160 615 2160 615 q 2149 606 2156 611 q 2142 597 2142 601 l 2142 140 l 1650 140 l 1632 193 q 1628 215 1632 194 q 1618 249 1624 236 q 1611 270 1617 260 q 1597 281 1606 281 l 1422 281 q 1408 270 1414 281 q 1399 249 1403 260 q 1391 217 1396 236 q 1386 193 1386 197 l 1369 140 l 885 140 l 885 703 q 856 663 865 685 q 842 615 847 640 q 832 562 839 597 q 816 481 825 526 q 798 386 807 436 q 780 291 789 336 q 764 210 771 246 q 754 158 757 175 q 741 143 751 147 q 718 138 731 139 q 695 138 706 136 q 683 139 685 139 q 672 138 682 139 q 649 138 661 136 q 626 143 636 139 q 614 158 615 147 q 606 195 611 169 q 594 253 601 221 q 578 323 586 286 q 563 393 571 360 q 550 453 556 426 q 543 492 544 479 q 538 531 539 506 q 533 585 538 557 q 517 636 528 613 q 481 668 506 660 l 481 140 l 244 140 l 244 1599 m 3846 140 l 3846 1599 l 4082 1599 l 4082 429 l 4303 429 l 4303 140 l 3846 140 m 1510 1001 q 1469 783 1485 890 q 1454 563 1454 676 l 1582 563 q 1581 571 1582 565 q 1579 579 1579 576 q 1567 672 1575 613 q 1550 789 1558 731 q 1535 893 1542 847 q 1526 949 1528 939 q 1524 959 1526 951 q 1519 975 1522 967 q 1514 991 1517 983 q 1510 1001 1511 999 m 2142 1322 l 2142 914 q 2149 903 2142 910 q 2160 896 2156 896 q 2235 919 2207 896 q 2278 978 2264 943 q 2297 1053 2293 1013 q 2301 1125 2301 1093 q 2294 1205 2301 1168 q 2269 1267 2288 1242 q 2220 1308 2251 1293 q 2142 1322 2189 1322 z "},"9":{"ha":2432,"x_min":69,"x_max":2363,"o":"m 69 1160 q 110 851 69 1000 q 224 574 150 703 q 401 338 297 444 q 633 156 506 232 q 908 39 760 81 q 1217 -3 1056 -3 q 1522 38 1375 -3 q 1797 151 1669 78 q 2028 329 1924 225 q 2206 560 2132 433 q 2322 833 2281 688 q 2363 1139 2363 979 q 2322 1444 2363 1297 q 2205 1719 2281 1590 q 2024 1953 2129 1847 q 1790 2134 1918 2058 q 1515 2251 1663 2210 q 1208 2293 1368 2293 q 910 2252 1054 2293 q 639 2137 765 2211 q 408 1958 513 2063 q 228 1728 303 1854 q 111 1458 153 1603 q 69 1160 69 1314 m 1597 340 q 1619 368 1603 357 q 1651 390 1635 379 q 1681 411 1668 400 q 1694 438 1694 422 l 1694 444 l 1667 528 q 1666 534 1667 529 q 1665 542 1665 539 q 1666 549 1665 544 q 1667 556 1667 554 q 1688 540 1675 550 q 1717 522 1701 531 q 1749 506 1733 513 q 1779 499 1765 499 q 1787 499 1782 499 q 1792 500 1792 500 q 1809 510 1797 503 q 1835 527 1821 518 q 1860 544 1849 536 q 1875 556 1871 551 l 1875 535 q 1867 489 1875 511 q 1860 443 1860 467 q 1873 413 1860 425 q 1903 390 1886 400 q 1937 368 1921 379 q 1958 340 1953 357 l 1833 340 q 1820 322 1829 340 q 1802 282 1811 304 q 1785 242 1793 260 q 1778 222 1778 224 q 1767 251 1772 232 q 1754 290 1761 271 q 1739 325 1747 310 q 1722 340 1731 340 l 1597 340 m 472 507 l 347 507 l 431 597 l 431 603 l 431 611 q 425 631 429 617 q 416 660 421 644 q 408 690 411 676 q 403 708 404 704 q 406 709 404 708 q 410 710 408 710 q 414 709 411 710 q 417 708 417 708 l 486 667 q 500 659 489 664 q 514 653 511 654 q 529 665 518 657 q 554 681 540 672 q 581 698 568 690 q 597 708 593 706 q 606 711 600 710 q 614 713 613 713 q 606 657 614 683 q 597 603 597 631 q 610 576 597 588 q 640 555 624 565 q 673 533 657 544 q 694 507 689 522 l 583 507 q 578 499 583 507 q 569 486 572 492 q 547 437 558 465 q 528 389 535 408 l 514 389 l 472 507 m 540 1146 q 594 1411 540 1288 q 740 1626 647 1535 q 958 1769 833 1717 q 1222 1821 1082 1821 q 1485 1766 1363 1821 q 1697 1618 1607 1711 q 1839 1401 1788 1525 q 1890 1139 1890 1278 q 1838 876 1890 997 q 1696 664 1786 754 q 1483 522 1606 574 q 1222 471 1361 471 q 955 523 1079 471 q 738 665 831 575 q 593 879 646 756 q 540 1146 540 1003 m 1167 500 q 1159 504 1171 503 q 1132 506 1147 506 q 1106 504 1118 506 q 1097 500 1093 503 q 1132 493 1108 493 q 1167 500 1156 493 m 1347 500 q 1340 504 1351 503 q 1313 506 1328 506 q 1286 504 1299 506 q 1278 500 1274 503 q 1313 493 1289 493 q 1347 500 1336 493 m 1069 514 q 1066 518 1071 517 q 1056 519 1061 519 q 1045 518 1050 519 q 1042 514 1040 517 q 1056 507 1044 507 q 1069 514 1067 507 m 1819 903 q 1735 771 1779 831 q 1637 663 1690 711 q 1519 578 1583 615 q 1375 514 1454 540 l 1389 514 q 1462 533 1418 514 q 1553 582 1506 551 q 1649 652 1601 613 q 1734 734 1696 692 q 1796 818 1772 776 q 1819 896 1819 860 l 1819 903 m 1014 528 q 1007 535 1017 535 q 1000 528 997 535 q 1007 521 1003 521 q 1014 528 1011 521 m 972 542 q 965 549 975 549 q 958 542 956 549 q 965 535 961 535 q 972 542 969 535 m 944 556 q 938 563 947 563 q 931 556 928 563 q 938 549 933 549 q 944 556 942 549 m 1167 625 l 1069 556 q 1073 555 1071 556 q 1076 554 1075 554 q 1100 563 1086 554 q 1127 583 1114 572 q 1151 606 1140 594 q 1167 625 1161 618 m 917 569 q 910 576 919 576 q 903 569 900 576 q 910 563 906 563 q 917 569 914 563 m 1056 583 q 1044 569 1044 583 q 1056 556 1044 556 q 1067 569 1067 556 q 1056 583 1067 583 m 889 597 q 878 583 878 597 q 889 569 878 569 q 900 583 900 569 q 889 597 900 597 m 1025 611 q 1042 583 1025 592 l 1028 583 q 1048 594 1038 592 q 1069 598 1058 597 q 1090 601 1079 599 q 1111 611 1100 603 l 1333 778 q 1346 842 1343 817 q 1349 904 1349 868 q 1342 947 1349 929 q 1336 986 1336 964 l 1347 986 l 1347 1014 q 1334 1004 1344 1010 q 1319 1000 1324 999 q 1279 1031 1304 1004 q 1230 1090 1254 1057 q 1188 1157 1206 1124 q 1169 1208 1169 1190 l 1181 1208 l 1181 1236 q 1167 1226 1178 1232 q 1153 1222 1157 1221 q 1114 1240 1126 1228 q 1094 1269 1101 1253 q 1078 1301 1086 1285 q 1055 1331 1071 1317 q 1010 1353 1039 1344 q 929 1363 981 1363 q 901 1361 910 1363 q 875 1347 892 1360 q 838 1319 864 1339 q 783 1276 813 1299 q 729 1235 754 1254 q 694 1208 704 1215 q 683 1199 690 1206 q 669 1186 676 1193 q 658 1174 663 1179 q 653 1167 653 1168 q 653 1158 651 1164 q 656 1146 654 1153 q 660 1133 658 1139 q 663 1125 663 1126 l 639 1125 l 639 1097 q 652 1107 642 1101 q 667 1111 663 1113 q 680 1099 669 1110 q 694 1083 690 1089 l 694 1076 l 694 1069 q 688 1056 693 1067 q 681 1042 683 1044 q 694 1051 683 1046 q 708 1056 704 1057 q 722 1044 711 1054 q 736 1028 732 1033 q 735 1021 738 1025 q 732 1014 732 1017 l 722 1014 l 722 986 q 735 996 725 990 q 750 1000 746 1001 q 773 985 761 997 q 794 957 785 972 q 809 926 803 942 q 815 903 815 911 l 806 903 l 806 875 q 819 885 808 879 q 833 889 829 890 q 847 877 836 888 q 861 861 857 867 l 861 854 l 861 847 q 855 833 860 844 q 847 819 850 822 q 860 829 850 824 q 875 833 871 835 q 888 822 878 832 q 903 806 899 811 q 901 799 904 803 q 899 792 899 794 l 889 792 l 889 764 q 901 775 890 769 q 917 778 911 781 q 923 773 918 778 q 934 761 928 768 q 947 747 940 754 q 958 736 954 740 q 982 707 968 725 q 1009 671 996 689 q 1032 640 1022 653 q 1042 625 1042 626 l 1042 611 l 1025 611 m 875 597 q 868 604 878 604 q 861 597 858 604 q 868 590 864 590 q 875 597 872 590 m 847 625 q 836 611 836 625 q 847 597 836 597 q 858 611 858 597 q 847 625 858 625 m 833 625 q 826 632 836 632 q 819 625 817 632 q 826 618 822 618 q 833 625 831 618 m 1014 639 q 1003 625 1003 639 q 1014 611 1003 611 q 1025 625 1025 611 q 1014 639 1025 639 m 806 653 q 794 639 794 653 q 806 625 794 625 q 817 639 817 625 q 806 653 817 653 m 1000 653 q 989 639 989 653 q 1000 625 989 625 q 1011 639 1011 625 q 1000 653 1011 653 m 1354 764 q 1327 745 1346 758 q 1288 716 1308 732 q 1248 686 1267 700 q 1222 667 1229 672 l 1194 639 q 1239 665 1211 649 q 1293 700 1267 682 q 1340 735 1319 718 q 1361 764 1360 753 q 1360 785 1363 769 q 1354 806 1357 801 l 1354 764 m 792 667 q 781 653 781 667 q 792 639 781 639 q 803 653 803 639 q 792 667 803 667 m 986 667 q 979 660 979 669 q 986 653 979 650 q 993 660 993 656 q 986 667 993 664 m 778 681 q 767 667 767 681 q 778 653 767 653 q 789 667 789 653 q 778 681 789 681 m 764 694 q 753 681 753 694 q 764 667 753 667 q 775 681 775 667 q 764 694 775 694 m 972 694 q 961 681 961 694 q 972 667 961 667 q 983 681 983 667 q 972 694 983 694 m 750 708 q 739 694 739 708 q 750 681 739 681 q 761 694 761 681 q 750 708 761 708 m 958 708 q 947 694 947 708 q 958 681 947 681 q 969 694 969 681 q 958 708 969 708 m 736 722 q 725 708 725 722 q 736 694 725 694 q 747 708 747 694 q 736 722 747 722 m 944 722 q 938 715 938 725 q 944 708 938 706 q 951 715 951 711 q 944 722 951 719 m 722 736 q 711 722 711 736 q 722 708 711 708 q 733 722 733 708 q 722 736 733 736 m 708 750 q 697 736 697 750 q 708 722 697 722 q 719 736 719 722 q 708 750 719 750 m 931 750 q 919 736 919 750 q 931 722 919 722 q 942 736 942 722 q 931 750 942 750 m 694 764 q 688 757 688 767 q 694 750 688 747 q 701 757 701 753 q 694 764 701 761 m 917 764 q 906 750 906 764 q 917 736 906 736 q 928 750 928 736 q 917 764 928 764 m 681 792 q 669 778 669 792 q 681 764 669 764 q 692 778 692 764 q 681 792 692 792 m 667 806 q 660 799 660 808 q 667 792 660 789 q 674 799 674 794 q 667 806 674 803 m 875 819 q 864 806 864 819 q 875 792 864 792 q 886 806 886 792 q 875 819 886 819 m 653 833 q 646 826 646 836 q 653 819 646 817 q 660 826 660 822 q 653 833 660 831 m 1375 917 q 1370 907 1372 921 q 1368 875 1368 893 q 1370 843 1368 857 q 1375 833 1372 829 q 1379 849 1378 838 q 1381 875 1381 861 q 1379 901 1381 889 q 1375 917 1378 913 m 639 861 q 628 847 628 861 q 639 833 628 833 q 650 847 650 833 q 639 861 650 861 m 847 861 q 836 847 836 861 q 847 833 836 833 q 858 847 858 833 q 847 861 858 861 m 1083 903 l 1056 889 l 949 1042 l 967 1042 q 969 1049 967 1044 q 973 1058 972 1054 q 971 1066 974 1063 q 958 1069 968 1069 q 944 1062 956 1069 q 931 1056 933 1054 q 919 1072 929 1056 q 903 1097 908 1088 l 889 1125 q 888 1128 889 1125 q 888 1133 888 1131 q 888 1137 888 1135 q 889 1139 889 1139 l 944 1181 q 962 1167 946 1182 q 994 1129 978 1151 q 1023 1083 1011 1107 q 1028 1042 1035 1058 l 1056 1056 q 1063 1042 1058 1053 q 1069 1028 1068 1031 q 1072 1014 1072 1017 l 1058 1014 q 1057 1006 1058 1011 q 1056 997 1056 1001 q 1069 986 1056 986 q 1084 992 1074 986 q 1097 1000 1094 997 q 1105 986 1100 997 q 1111 972 1110 975 q 1114 958 1114 961 l 1100 958 q 1099 951 1100 956 q 1097 942 1097 946 q 1111 931 1097 931 q 1126 936 1115 931 q 1139 944 1136 942 q 1156 919 1144 939 q 1167 889 1167 899 q 1159 875 1167 882 q 1141 862 1151 868 q 1120 851 1131 856 q 1104 847 1110 847 q 1088 853 1093 847 q 1082 869 1083 860 q 1081 887 1081 878 q 1083 903 1082 896 m 833 875 q 822 861 822 875 q 833 847 822 847 q 844 861 844 847 q 833 875 844 875 m 625 889 q 618 882 618 892 q 625 875 618 872 q 632 882 632 878 q 625 889 632 886 m 1153 903 l 1097 875 q 1103 874 1099 875 q 1111 874 1108 874 q 1135 880 1126 874 q 1153 903 1144 886 m 611 917 q 604 910 604 919 q 611 903 604 900 q 618 910 618 906 q 611 917 618 914 m 792 931 q 781 917 781 931 q 792 903 781 903 q 803 917 803 903 q 792 931 803 931 m 1069 931 q 1058 917 1058 931 q 1069 903 1058 903 q 1081 917 1081 903 q 1069 931 1081 931 m 1125 931 q 1114 917 1114 931 q 1125 903 1114 903 q 1136 917 1136 903 q 1125 931 1136 931 m 778 944 q 767 931 767 944 q 778 917 767 917 q 789 931 789 917 q 778 944 789 944 m 1056 944 q 1044 931 1044 944 q 1056 917 1044 917 q 1067 931 1067 917 q 1056 944 1067 944 m 1847 1000 q 1840 980 1844 996 q 1833 958 1835 964 l 1833 944 l 1833 931 q 1841 951 1836 935 q 1847 972 1846 967 l 1847 986 l 1847 1000 m 597 958 q 590 951 590 961 q 597 944 590 942 q 604 951 604 947 q 597 958 604 956 m 764 958 q 757 951 757 961 q 764 944 757 942 q 771 951 771 947 q 764 958 771 956 m 1042 958 q 1035 951 1035 961 q 1042 944 1035 942 q 1049 951 1049 947 q 1042 958 1049 956 m 1375 958 q 1368 951 1368 961 q 1375 944 1368 942 q 1382 951 1382 947 q 1375 958 1382 956 m 1431 958 q 1492 945 1465 947 q 1553 943 1518 943 q 1608 954 1582 943 q 1659 982 1635 965 q 1706 1018 1683 999 q 1750 1056 1728 1038 q 1780 1096 1769 1072 q 1795 1147 1790 1119 q 1801 1200 1800 1174 q 1806 1250 1803 1226 q 1785 1222 1789 1246 q 1779 1169 1781 1199 q 1773 1112 1778 1140 q 1750 1069 1768 1083 q 1728 1054 1743 1065 q 1694 1030 1713 1043 q 1661 1004 1676 1017 q 1639 986 1646 992 q 1615 969 1631 979 q 1597 958 1599 958 l 1431 958 m 750 986 q 739 972 739 986 q 750 958 739 958 q 761 972 761 958 q 750 986 761 986 m 1028 986 q 1017 972 1017 986 q 1028 958 1017 958 q 1039 972 1039 958 q 1028 986 1039 986 m 1083 986 q 1072 972 1072 986 q 1083 958 1072 958 q 1094 972 1094 958 q 1083 986 1094 986 m 1361 986 q 1350 972 1350 986 q 1361 958 1350 958 q 1372 972 1372 958 q 1361 986 1372 986 m 1386 1000 q 1403 972 1386 981 l 1389 972 q 1403 980 1392 975 q 1417 986 1414 985 l 1422 986 l 1431 986 l 1542 972 l 1565 972 l 1583 972 q 1599 978 1593 972 q 1625 1000 1606 985 q 1647 1018 1632 1006 q 1681 1044 1663 1031 q 1714 1068 1699 1057 q 1736 1083 1729 1079 q 1756 1110 1750 1093 q 1765 1145 1763 1126 q 1766 1183 1767 1164 q 1765 1217 1765 1201 q 1758 1260 1765 1243 q 1750 1299 1750 1276 l 1750 1306 q 1756 1319 1751 1308 q 1764 1333 1761 1331 q 1751 1324 1761 1329 q 1736 1319 1740 1318 q 1723 1331 1733 1321 q 1708 1347 1713 1342 q 1708 1349 1708 1347 q 1707 1354 1707 1351 q 1708 1358 1707 1356 q 1708 1361 1708 1361 q 1715 1375 1710 1364 q 1722 1389 1719 1386 q 1709 1381 1719 1386 q 1694 1375 1699 1375 q 1681 1381 1692 1375 q 1667 1389 1669 1388 l 1660 1389 q 1619 1371 1642 1389 q 1576 1331 1597 1353 q 1539 1290 1556 1308 q 1514 1272 1522 1272 l 1514 1250 q 1527 1260 1517 1254 q 1542 1264 1538 1265 q 1551 1257 1543 1264 q 1566 1240 1558 1250 q 1579 1222 1574 1231 q 1583 1208 1585 1213 q 1529 1165 1565 1165 q 1508 1170 1518 1165 q 1499 1188 1499 1175 q 1499 1191 1499 1189 q 1500 1194 1500 1193 q 1512 1183 1501 1189 q 1528 1181 1522 1178 q 1537 1188 1531 1182 q 1550 1200 1543 1193 q 1563 1213 1557 1207 q 1569 1222 1568 1219 q 1556 1215 1567 1219 q 1542 1208 1544 1210 l 1535 1208 l 1528 1208 q 1521 1216 1526 1210 q 1514 1222 1515 1222 q 1500 1215 1511 1222 q 1486 1208 1489 1207 q 1473 1220 1483 1210 q 1458 1236 1463 1231 q 1458 1238 1458 1236 q 1457 1243 1457 1240 q 1458 1247 1457 1244 q 1458 1250 1458 1250 q 1465 1264 1460 1253 q 1472 1278 1469 1275 q 1459 1268 1469 1274 q 1444 1264 1449 1263 q 1431 1276 1442 1265 q 1417 1292 1421 1286 q 1418 1299 1415 1294 q 1421 1306 1421 1303 l 1431 1306 l 1431 1333 q 1419 1322 1429 1328 q 1403 1319 1408 1317 q 1374 1341 1390 1325 q 1341 1377 1357 1357 q 1315 1417 1325 1397 q 1304 1453 1304 1438 q 1305 1456 1304 1454 q 1306 1458 1306 1458 q 1332 1481 1321 1474 q 1361 1488 1343 1488 q 1381 1483 1372 1488 q 1390 1465 1390 1478 q 1390 1462 1390 1464 q 1389 1458 1389 1460 q 1377 1469 1388 1464 q 1361 1472 1367 1475 q 1352 1465 1358 1471 q 1339 1453 1346 1460 q 1326 1440 1332 1446 q 1319 1431 1321 1433 q 1333 1438 1322 1433 q 1347 1444 1344 1443 l 1354 1444 l 1361 1444 q 1368 1437 1363 1443 q 1375 1431 1374 1431 q 1389 1438 1378 1431 q 1403 1444 1400 1444 q 1417 1438 1406 1444 q 1431 1431 1428 1432 q 1433 1430 1431 1431 q 1438 1429 1436 1429 q 1442 1430 1440 1429 q 1444 1431 1444 1431 l 1556 1514 q 1557 1519 1556 1514 q 1558 1526 1558 1524 q 1534 1594 1558 1565 q 1474 1642 1510 1622 q 1400 1671 1439 1661 q 1332 1681 1361 1681 q 1317 1680 1322 1681 q 1308 1676 1313 1679 q 1297 1668 1303 1674 q 1278 1653 1290 1663 q 1253 1635 1271 1649 q 1217 1606 1236 1621 q 1179 1576 1197 1590 q 1153 1556 1161 1561 q 1128 1514 1133 1539 q 1124 1461 1124 1489 l 1124 1429 q 1131 1390 1124 1406 q 1139 1354 1139 1374 l 1139 1347 q 1133 1333 1138 1344 q 1125 1319 1128 1322 q 1138 1329 1128 1324 q 1153 1333 1149 1335 q 1166 1322 1156 1332 q 1181 1306 1176 1311 q 1181 1303 1181 1306 q 1182 1299 1182 1301 q 1181 1294 1182 1297 q 1181 1292 1181 1292 q 1174 1278 1179 1289 q 1167 1264 1169 1267 q 1180 1274 1169 1268 q 1194 1278 1190 1279 q 1208 1266 1197 1276 q 1222 1250 1218 1256 q 1223 1248 1222 1250 q 1224 1243 1224 1246 q 1223 1239 1224 1242 q 1222 1236 1222 1236 q 1216 1222 1221 1233 q 1208 1208 1211 1211 q 1220 1219 1210 1214 q 1236 1222 1231 1225 q 1242 1217 1238 1222 q 1253 1206 1247 1213 q 1267 1192 1260 1199 q 1278 1181 1274 1185 q 1301 1151 1288 1169 q 1328 1115 1315 1133 q 1351 1084 1342 1097 q 1361 1069 1361 1071 l 1361 1056 l 1347 1056 l 1347 1028 q 1360 1038 1350 1032 q 1375 1042 1371 1043 q 1388 1030 1378 1040 q 1403 1014 1399 1019 q 1401 1007 1404 1011 q 1399 1000 1399 1003 l 1386 1000 m 583 1028 q 578 1022 581 1029 q 576 1007 576 1015 q 578 991 576 999 q 583 986 581 983 q 590 1007 590 990 q 583 1028 590 1024 m 1014 1000 q 1003 986 1003 1000 q 1014 972 1003 972 q 1025 986 1025 972 q 1014 1000 1025 1000 m 1000 1014 q 993 1007 993 1017 q 1000 1000 993 997 q 1007 1007 1007 1003 q 1000 1014 1007 1011 m 1375 1028 q 1364 1014 1364 1028 q 1375 1000 1364 1000 q 1386 1014 1386 1000 q 1375 1028 1386 1028 m 708 1042 q 697 1028 697 1042 q 708 1014 697 1014 q 719 1028 719 1014 q 708 1042 719 1042 m 986 1042 q 975 1028 975 1042 q 986 1014 975 1014 q 997 1028 997 1014 q 986 1042 997 1042 m 1042 1042 q 1031 1028 1031 1042 q 1042 1014 1031 1014 q 1053 1028 1053 1014 q 1042 1042 1053 1042 m 1319 1042 q 1308 1028 1308 1042 q 1319 1014 1308 1014 q 1331 1028 1331 1014 q 1319 1042 1331 1042 m 1861 1250 q 1856 1238 1858 1257 q 1854 1186 1854 1219 l 1854 1139 l 1854 1092 q 1856 1040 1854 1058 q 1861 1028 1858 1021 q 1865 1072 1864 1040 q 1867 1138 1867 1103 q 1865 1206 1867 1174 q 1861 1250 1864 1238 m 1306 1056 q 1299 1049 1299 1058 q 1306 1042 1299 1039 q 1313 1049 1313 1044 q 1306 1056 1313 1053 m 569 1236 q 563 1183 563 1247 l 563 1146 l 563 1107 q 565 1065 563 1079 q 569 1056 567 1050 q 574 1091 572 1065 q 575 1146 575 1117 q 574 1201 575 1175 q 569 1236 572 1226 m 681 1083 q 669 1069 669 1083 q 681 1056 669 1056 q 692 1069 692 1056 q 681 1083 692 1083 m 1014 1083 q 1003 1069 1003 1083 q 1014 1056 1003 1056 q 1025 1069 1025 1056 q 1014 1083 1025 1083 m 1292 1083 q 1281 1069 1281 1083 q 1292 1056 1281 1056 q 1303 1069 1303 1056 q 1292 1083 1303 1083 m 1333 1083 q 1322 1069 1322 1083 q 1333 1056 1322 1056 q 1344 1069 1344 1056 q 1333 1083 1344 1083 m 667 1097 q 656 1083 656 1097 q 667 1069 656 1069 q 678 1083 678 1069 q 667 1097 678 1097 m 944 1097 q 933 1083 933 1097 q 944 1069 933 1069 q 956 1083 956 1069 q 944 1097 956 1097 m 1000 1097 q 989 1083 989 1097 q 1000 1069 989 1069 q 1011 1083 1011 1069 q 1000 1097 1011 1097 m 1278 1097 q 1267 1083 1267 1097 q 1278 1069 1267 1069 q 1289 1083 1289 1069 q 1278 1097 1289 1097 m 1319 1097 q 1308 1083 1308 1097 q 1319 1069 1308 1069 q 1331 1083 1331 1069 q 1319 1097 1331 1097 m 931 1111 q 919 1097 919 1111 q 931 1083 919 1083 q 942 1097 942 1083 q 931 1111 942 1111 m 986 1111 q 975 1097 975 1111 q 986 1083 975 1083 q 997 1097 997 1083 q 986 1111 997 1111 m 1264 1111 q 1257 1104 1257 1114 q 1264 1097 1257 1094 q 1271 1104 1271 1100 q 1264 1111 1271 1108 m 1306 1111 q 1299 1104 1299 1114 q 1306 1097 1299 1094 q 1313 1104 1313 1100 q 1306 1111 1313 1108 m 944 1153 q 921 1149 926 1153 q 917 1140 915 1146 q 922 1126 918 1133 q 925 1111 925 1119 l 903 1111 l 958 1139 q 953 1147 958 1142 q 944 1153 947 1153 m 972 1125 q 965 1118 965 1128 q 972 1111 965 1108 q 979 1118 979 1114 q 972 1125 979 1122 m 1250 1139 q 1239 1125 1239 1139 q 1250 1111 1239 1111 q 1261 1125 1261 1111 q 1250 1139 1261 1139 m 1292 1139 q 1281 1125 1281 1139 q 1292 1111 1281 1111 q 1303 1125 1303 1111 q 1292 1139 1303 1139 m 625 1153 q 614 1139 614 1153 q 625 1125 614 1125 q 636 1139 636 1125 q 625 1153 636 1153 m 1236 1153 q 1225 1139 1225 1153 q 1236 1125 1225 1125 q 1247 1139 1247 1125 q 1236 1153 1247 1153 m 1278 1153 q 1267 1139 1267 1153 q 1278 1125 1267 1125 q 1289 1139 1289 1125 q 1278 1153 1289 1153 m 931 1390 q 843 1369 885 1390 q 764 1317 801 1347 q 692 1253 726 1288 q 625 1194 657 1219 q 612 1183 614 1186 q 610 1167 610 1179 q 610 1159 610 1164 q 611 1153 611 1154 l 625 1181 q 652 1203 625 1182 q 717 1252 679 1224 q 796 1311 756 1281 q 861 1361 836 1342 q 917 1382 883 1378 q 972 1389 950 1386 q 952 1390 968 1389 q 931 1390 936 1390 m 1207 1174 q 1208 1169 1207 1172 q 1208 1167 1208 1167 q 1215 1159 1210 1164 q 1222 1153 1219 1154 q 1223 1156 1222 1154 q 1224 1160 1224 1158 q 1223 1164 1224 1161 q 1222 1167 1222 1167 q 1216 1174 1221 1169 q 1208 1181 1211 1179 q 1208 1177 1208 1179 q 1207 1174 1207 1175 m 1264 1167 q 1257 1160 1257 1169 q 1264 1153 1257 1150 q 1271 1160 1271 1156 q 1264 1167 1271 1164 m 1250 1194 q 1239 1181 1239 1194 q 1250 1167 1239 1167 q 1261 1181 1261 1167 q 1250 1194 1261 1194 m 1194 1208 q 1183 1194 1183 1208 q 1194 1181 1183 1181 q 1206 1194 1206 1181 q 1194 1208 1206 1208 m 1236 1208 q 1225 1194 1225 1208 q 1236 1181 1225 1181 q 1247 1194 1247 1181 q 1236 1208 1247 1208 m 1208 1250 q 1197 1236 1197 1250 q 1208 1222 1197 1222 q 1219 1236 1219 1222 q 1208 1250 1219 1250 m 1486 1250 q 1475 1236 1475 1250 q 1486 1222 1475 1222 q 1497 1236 1497 1222 q 1486 1250 1497 1250 m 1542 1250 q 1531 1236 1531 1250 q 1542 1222 1531 1222 q 1553 1236 1553 1222 q 1542 1250 1553 1250 m 1153 1264 q 1142 1250 1142 1264 q 1153 1236 1142 1236 q 1164 1250 1164 1236 q 1153 1264 1164 1264 m 1194 1264 q 1183 1250 1183 1264 q 1194 1236 1183 1236 q 1206 1250 1206 1236 q 1194 1264 1206 1264 m 1472 1264 q 1461 1250 1461 1264 q 1472 1236 1461 1236 q 1483 1250 1483 1236 q 1472 1264 1483 1264 m 583 1306 q 578 1300 581 1307 q 576 1285 576 1293 q 578 1269 576 1276 q 583 1264 581 1261 q 590 1285 590 1268 q 583 1306 590 1301 m 1139 1278 q 1128 1264 1128 1278 q 1139 1250 1128 1250 q 1150 1264 1150 1250 q 1139 1278 1150 1278 m 1792 1278 q 1785 1271 1785 1281 q 1792 1264 1785 1261 q 1799 1271 1799 1267 q 1792 1278 1799 1275 m 1847 1306 q 1842 1302 1844 1307 q 1840 1292 1840 1297 q 1842 1281 1840 1286 q 1847 1278 1844 1276 q 1854 1292 1854 1281 q 1847 1306 1854 1303 m 1125 1306 q 1114 1292 1114 1306 q 1125 1278 1114 1278 q 1136 1292 1136 1278 q 1125 1306 1136 1306 m 1167 1306 q 1156 1292 1156 1306 q 1167 1278 1156 1278 q 1178 1292 1178 1278 q 1167 1306 1178 1306 m 1444 1306 q 1433 1292 1433 1306 q 1444 1278 1433 1278 q 1456 1292 1456 1278 q 1444 1306 1456 1306 m 1583 1375 q 1567 1365 1581 1374 q 1539 1344 1554 1356 q 1511 1319 1524 1332 q 1499 1299 1499 1307 q 1499 1295 1499 1297 q 1500 1292 1500 1293 l 1583 1375 m 1778 1306 q 1767 1292 1767 1306 q 1778 1278 1767 1278 q 1789 1292 1789 1278 q 1778 1306 1789 1306 m 1111 1319 q 1100 1306 1100 1319 q 1111 1292 1100 1292 q 1122 1306 1122 1292 q 1111 1319 1122 1319 m 1153 1319 q 1142 1306 1142 1319 q 1153 1292 1142 1292 q 1164 1306 1164 1292 q 1153 1319 1164 1319 m 1764 1319 q 1753 1306 1753 1319 q 1764 1292 1753 1292 q 1775 1306 1775 1292 q 1764 1319 1775 1319 m 1097 1333 q 1086 1319 1086 1333 q 1097 1306 1086 1306 q 1108 1319 1108 1306 q 1097 1333 1108 1333 m 597 1347 q 590 1340 590 1350 q 597 1333 590 1331 q 604 1340 604 1336 q 597 1347 604 1344 m 1083 1347 q 1076 1340 1076 1350 q 1083 1333 1076 1331 q 1090 1340 1090 1336 q 1083 1347 1090 1344 m 1833 1347 q 1826 1340 1826 1350 q 1833 1333 1826 1331 q 1840 1340 1840 1336 q 1833 1347 1840 1344 m 1125 1361 q 1114 1347 1114 1361 q 1125 1333 1114 1333 q 1136 1347 1136 1333 q 1125 1361 1136 1361 m 1403 1361 q 1392 1347 1392 1361 q 1403 1333 1392 1333 q 1414 1347 1414 1333 q 1403 1361 1414 1361 m 1736 1361 q 1725 1347 1725 1361 q 1736 1333 1725 1333 q 1747 1347 1747 1333 q 1736 1361 1747 1361 m 1069 1375 q 1058 1361 1058 1375 q 1069 1347 1058 1347 q 1081 1361 1081 1347 q 1069 1375 1081 1375 m 1111 1375 q 1100 1361 1100 1375 q 1111 1347 1100 1347 q 1122 1361 1122 1347 q 1111 1375 1122 1375 m 1389 1375 q 1378 1361 1378 1375 q 1389 1347 1378 1347 q 1400 1361 1400 1347 q 1389 1375 1400 1375 m 1722 1375 q 1711 1361 1711 1375 q 1722 1347 1711 1347 q 1733 1361 1733 1347 q 1722 1375 1733 1375 m 667 1486 q 659 1480 664 1485 q 653 1472 654 1475 q 644 1456 650 1468 q 631 1431 638 1444 q 618 1406 624 1418 q 611 1389 613 1393 l 611 1382 l 611 1375 l 667 1486 m 1056 1375 q 1050 1379 1057 1378 q 1035 1381 1043 1381 q 1019 1379 1026 1381 q 1014 1375 1011 1378 q 1035 1368 1018 1368 q 1056 1375 1051 1368 m 1097 1389 q 1090 1382 1090 1392 q 1097 1375 1090 1372 q 1104 1382 1104 1378 q 1097 1389 1104 1386 m 1375 1389 q 1368 1382 1368 1392 q 1375 1375 1368 1372 q 1382 1382 1382 1378 q 1375 1389 1382 1386 m 1819 1389 q 1813 1382 1813 1392 q 1819 1375 1813 1372 q 1826 1382 1826 1378 q 1819 1389 1826 1386 m 1597 1528 q 1558 1490 1581 1507 q 1514 1458 1536 1474 q 1469 1426 1492 1443 q 1431 1389 1447 1410 q 1472 1409 1444 1393 q 1528 1446 1500 1425 q 1577 1488 1556 1467 q 1599 1521 1599 1508 q 1598 1524 1599 1522 q 1597 1528 1597 1526 m 1660 1432 q 1656 1431 1658 1432 q 1653 1431 1653 1431 q 1631 1410 1647 1426 q 1611 1389 1615 1394 q 1639 1406 1621 1394 q 1667 1431 1657 1418 q 1663 1431 1665 1431 q 1660 1432 1661 1432 m 1083 1417 q 1072 1403 1072 1417 q 1083 1389 1072 1389 q 1094 1403 1094 1389 q 1083 1417 1094 1417 m 1361 1417 q 1350 1403 1350 1417 q 1361 1389 1350 1389 q 1372 1403 1372 1389 q 1361 1417 1372 1417 m 1417 1417 q 1406 1403 1406 1417 q 1417 1389 1406 1389 q 1428 1403 1428 1389 q 1417 1417 1428 1417 m 1694 1417 q 1683 1403 1683 1417 q 1694 1389 1683 1389 q 1706 1403 1706 1389 q 1694 1417 1706 1417 m 1806 1417 q 1799 1410 1799 1419 q 1806 1403 1799 1400 q 1813 1410 1813 1406 q 1806 1417 1813 1414 m 1347 1431 q 1336 1417 1336 1431 q 1347 1403 1336 1403 q 1358 1417 1358 1403 q 1347 1431 1358 1431 m 1403 1431 q 1392 1417 1392 1431 q 1403 1403 1392 1403 q 1414 1417 1414 1403 q 1403 1431 1414 1431 m 1681 1431 q 1669 1417 1669 1431 q 1681 1403 1669 1403 q 1692 1417 1692 1403 q 1681 1431 1692 1431 m 1097 1500 q 1092 1492 1094 1504 q 1090 1465 1090 1481 q 1092 1439 1090 1451 q 1097 1431 1094 1426 q 1101 1444 1100 1435 q 1103 1465 1103 1454 q 1101 1486 1103 1476 q 1097 1500 1100 1496 m 1792 1444 q 1785 1438 1785 1447 q 1792 1431 1785 1428 q 1799 1438 1799 1433 q 1792 1444 1799 1442 m 1778 1472 q 1771 1465 1771 1475 q 1778 1458 1771 1456 q 1785 1465 1785 1461 q 1778 1472 1785 1469 m 1917 1590 l 1778 1590 q 1822 1642 1793 1618 q 1875 1681 1851 1665 l 1875 1688 l 1875 1694 l 1847 1792 l 1847 1799 l 1847 1806 q 1861 1799 1850 1804 q 1875 1792 1872 1794 l 1944 1750 q 1947 1749 1944 1750 q 1951 1749 1950 1749 q 1956 1749 1953 1749 q 1958 1750 1958 1750 l 2028 1792 q 2042 1799 2031 1794 q 2056 1806 2053 1804 l 2056 1792 q 2049 1742 2056 1767 q 2042 1693 2042 1718 q 2051 1667 2042 1678 q 2074 1648 2061 1657 q 2102 1631 2088 1639 q 2125 1611 2117 1622 q 2088 1588 2101 1590 q 2064 1589 2074 1585 q 2047 1597 2054 1593 q 2030 1593 2039 1600 q 2008 1563 2021 1586 q 1972 1486 1994 1539 q 1966 1478 1971 1483 q 1958 1472 1961 1474 l 1917 1590 m 1764 1500 q 1753 1486 1753 1500 q 1764 1472 1753 1472 q 1775 1486 1775 1472 q 1764 1500 1775 1500 m 847 1681 q 750 1611 796 1657 q 681 1514 704 1565 l 847 1681 m 1750 1528 q 1739 1514 1739 1528 q 1750 1500 1739 1500 q 1761 1514 1761 1500 q 1750 1528 1761 1528 m 1736 1542 q 1725 1528 1725 1542 q 1736 1514 1725 1514 q 1747 1528 1747 1514 q 1736 1542 1747 1542 m 1333 1710 q 1274 1690 1313 1710 q 1200 1643 1236 1669 q 1137 1590 1164 1617 q 1110 1549 1110 1563 q 1110 1545 1110 1547 q 1111 1542 1111 1543 q 1160 1594 1132 1567 q 1222 1647 1189 1622 q 1290 1688 1254 1671 q 1361 1708 1326 1706 q 1347 1709 1358 1708 q 1333 1710 1336 1710 m 1583 1556 q 1576 1549 1576 1558 q 1583 1542 1576 1539 q 1590 1549 1590 1544 q 1583 1556 1590 1553 m 1722 1556 q 1715 1549 1715 1558 q 1722 1542 1715 1539 q 1729 1549 1729 1544 q 1722 1556 1729 1553 m 1569 1583 q 1558 1569 1558 1583 q 1569 1556 1558 1556 q 1581 1569 1581 1556 q 1569 1583 1581 1583 m 1708 1583 q 1697 1569 1697 1583 q 1708 1556 1697 1556 q 1719 1569 1719 1556 q 1708 1583 1719 1583 m 1556 1597 q 1544 1583 1544 1597 q 1556 1569 1544 1569 q 1567 1583 1567 1569 q 1556 1597 1567 1597 m 1694 1597 q 1683 1583 1683 1597 q 1694 1569 1683 1569 q 1706 1583 1706 1569 q 1694 1597 1706 1597 m 1542 1611 q 1535 1604 1535 1614 q 1542 1597 1535 1594 q 1549 1604 1549 1600 q 1542 1611 1549 1608 m 1681 1611 q 1669 1597 1669 1611 q 1681 1583 1669 1583 q 1692 1597 1692 1583 q 1681 1611 1692 1611 m 1667 1625 q 1656 1611 1656 1625 q 1667 1597 1656 1597 q 1678 1611 1678 1597 q 1667 1625 1678 1625 m 1528 1639 q 1517 1625 1517 1639 q 1528 1611 1517 1611 q 1539 1625 1539 1611 q 1528 1639 1539 1639 m 1653 1639 q 1642 1625 1642 1639 q 1653 1611 1642 1611 q 1664 1625 1664 1611 q 1653 1639 1664 1639 m 1514 1653 q 1503 1639 1503 1653 q 1514 1625 1503 1625 q 1525 1639 1525 1625 q 1514 1653 1525 1653 m 1639 1639 q 1632 1646 1642 1646 q 1625 1639 1622 1646 q 1632 1632 1628 1632 q 1639 1639 1636 1632 m 1500 1667 q 1489 1653 1489 1667 q 1500 1639 1489 1639 q 1511 1653 1511 1639 q 1500 1667 1511 1667 m 1611 1667 q 1600 1653 1600 1667 q 1611 1639 1600 1639 q 1622 1653 1622 1639 q 1611 1667 1622 1667 m 1597 1681 q 1586 1667 1586 1681 q 1597 1653 1586 1653 q 1608 1667 1608 1653 q 1597 1681 1608 1681 m 625 1799 l 500 1799 l 583 1889 q 584 1893 583 1889 q 585 1900 585 1897 q 576 1952 585 1928 q 567 2003 567 1976 q 592 1996 581 2003 q 616 1980 604 1989 q 640 1964 628 1971 q 667 1957 651 1957 q 695 1965 679 1957 q 727 1981 711 1972 q 756 2000 743 1990 q 778 2014 769 2010 l 778 2007 l 778 2000 l 750 1889 q 774 1865 761 1875 q 801 1846 788 1856 q 827 1825 815 1836 q 847 1799 839 1814 l 722 1799 q 715 1776 719 1792 q 706 1743 711 1761 q 694 1708 700 1725 q 681 1681 688 1692 q 673 1687 678 1682 q 667 1694 668 1692 q 658 1715 664 1700 q 644 1746 651 1729 q 632 1777 638 1763 q 625 1799 626 1792 m 1403 1694 q 1417 1691 1407 1693 q 1438 1687 1426 1689 q 1458 1683 1449 1685 q 1472 1681 1468 1681 l 1479 1681 l 1486 1681 q 1478 1692 1485 1689 q 1464 1696 1472 1694 q 1448 1697 1456 1697 q 1438 1696 1440 1696 q 1420 1695 1433 1696 q 1403 1694 1407 1694 m 1583 1681 q 1576 1688 1586 1688 q 1569 1681 1567 1688 q 1576 1674 1572 1674 q 1583 1681 1581 1674 m 979 1750 l 972 1750 q 956 1742 968 1747 q 931 1729 944 1736 q 905 1717 917 1722 q 889 1708 893 1711 q 881 1702 886 1707 q 875 1694 876 1697 l 986 1750 l 979 1750 m 1556 1708 q 1544 1694 1544 1708 q 1556 1681 1544 1681 q 1567 1694 1567 1681 q 1556 1708 1567 1708 m 1542 1708 q 1535 1715 1544 1715 q 1528 1708 1525 1715 q 1535 1701 1531 1701 q 1542 1708 1539 1701 m 1514 1722 q 1507 1729 1517 1729 q 1500 1722 1497 1729 q 1507 1715 1503 1715 q 1514 1722 1511 1715 m 1486 1736 q 1479 1743 1489 1743 q 1472 1736 1469 1743 q 1479 1729 1475 1729 q 1486 1736 1483 1729 m 1458 1750 q 1455 1754 1460 1753 q 1444 1756 1450 1756 q 1434 1754 1439 1756 q 1431 1750 1429 1753 q 1444 1743 1433 1743 q 1458 1750 1456 1743 m 1028 1764 q 1021 1771 1031 1771 q 1014 1764 1011 1771 q 1021 1757 1017 1757 q 1028 1764 1025 1757 m 1417 1764 q 1413 1768 1418 1767 q 1403 1769 1408 1769 q 1392 1768 1397 1769 q 1389 1764 1388 1767 q 1403 1757 1392 1757 q 1417 1764 1414 1757 m 1097 1778 q 1092 1782 1099 1781 q 1076 1783 1085 1783 q 1060 1782 1068 1783 q 1056 1778 1053 1781 q 1076 1771 1060 1771 q 1097 1778 1093 1771 m 1375 1778 q 1369 1782 1376 1781 q 1354 1783 1363 1783 q 1338 1782 1346 1783 q 1333 1778 1331 1781 q 1354 1771 1338 1771 q 1375 1778 1371 1771 m 1306 1792 q 1300 1795 1313 1793 q 1264 1797 1288 1797 l 1215 1797 q 1177 1797 1196 1797 q 1145 1795 1158 1796 q 1126 1794 1132 1794 q 1125 1792 1119 1793 q 1160 1787 1135 1789 q 1215 1785 1186 1785 q 1270 1787 1244 1785 q 1306 1792 1296 1789 z "}," ":{"ha":1318,"x_min":0,"x_max":0,"o":""},"!":{"ha":2015,"x_min":69,"x_max":1946,"o":"m 943 54 l 1006 -3 l 1040 29 l 1044 29 q 1051 35 1044 29 q 1061 46 1058 42 q 1099 85 1081 68 q 1140 122 1118 103 q 1145 125 1143 124 q 1147 126 1147 126 l 1233 213 q 1238 216 1233 211 q 1249 228 1243 221 q 1261 243 1256 236 q 1271 254 1267 250 q 1419 433 1350 342 q 1551 622 1488 525 l 1550 624 l 1551 624 l 1554 628 q 1566 647 1561 639 q 1578 665 1571 654 q 1612 728 1596 697 q 1647 792 1628 758 q 1651 793 1647 793 q 1664 835 1653 813 q 1683 868 1675 857 q 1699 891 1694 874 q 1707 919 1704 908 q 1753 1035 1731 979 q 1794 1153 1775 1092 q 1804 1175 1799 1164 q 1813 1197 1810 1186 q 1815 1206 1814 1203 q 1815 1214 1815 1210 q 1818 1231 1815 1219 q 1831 1265 1825 1249 q 1840 1301 1838 1282 q 1843 1318 1843 1315 q 1849 1332 1843 1321 q 1847 1335 1847 1332 q 1852 1353 1847 1346 q 1858 1372 1857 1361 q 1865 1413 1861 1394 q 1875 1450 1868 1431 q 1872 1457 1874 1453 q 1867 1461 1869 1461 l 1835 1461 q 1833 1458 1835 1458 l 1829 1458 q 1817 1452 1826 1456 q 1806 1446 1808 1449 q 1751 1416 1776 1431 q 1689 1396 1725 1401 l 1685 1393 q 1673 1392 1685 1393 q 1658 1392 1661 1392 q 1544 1416 1597 1392 q 1465 1499 1490 1440 q 1463 1506 1465 1506 l 1463 1561 q 1468 1573 1463 1561 q 1478 1592 1474 1585 l 1479 1593 l 1489 1606 l 1519 1636 l 1522 1636 q 1647 1675 1579 1675 q 1744 1657 1706 1675 q 1822 1596 1782 1639 q 1825 1589 1818 1593 q 1835 1585 1832 1585 q 1858 1599 1850 1585 q 1878 1617 1865 1614 l 1936 1669 q 1940 1672 1938 1671 q 1944 1676 1942 1674 q 1945 1682 1944 1679 q 1946 1688 1946 1685 q 1935 1715 1946 1703 q 1915 1739 1924 1726 l 1886 1785 q 1881 1795 1890 1792 q 1872 1800 1872 1799 q 1856 1826 1868 1804 q 1830 1874 1844 1849 q 1801 1919 1815 1899 q 1778 1940 1788 1940 l 1697 1940 q 1577 1941 1644 1940 q 1435 1942 1510 1942 q 1292 1942 1360 1942 q 1171 1943 1224 1943 l 1090 1943 l 1008 1943 l 926 1943 l 847 1943 q 726 1942 793 1943 q 583 1942 658 1942 q 440 1941 508 1942 q 319 1940 372 1940 l 239 1940 q 225 1935 229 1940 q 217 1923 221 1929 q 212 1911 214 1917 q 204 1904 210 1906 l 107 1756 q 98 1744 104 1753 q 85 1724 92 1735 q 74 1701 79 1713 q 69 1685 69 1690 q 74 1674 69 1678 q 83 1668 78 1671 l 167 1592 q 172 1589 168 1592 q 178 1585 176 1586 l 182 1585 l 185 1585 q 188 1590 185 1586 q 193 1596 192 1594 q 201 1604 194 1599 q 213 1616 207 1610 q 225 1628 219 1622 q 233 1635 231 1633 q 278 1658 253 1650 q 328 1674 303 1667 l 328 1669 q 335 1672 331 1671 q 342 1674 339 1674 l 354 1674 q 374 1673 363 1674 q 393 1672 385 1672 l 406 1672 l 406 1671 q 424 1665 415 1671 q 492 1640 457 1660 q 539 1585 526 1619 l 542 1585 l 547 1569 q 556 1533 556 1550 q 542 1481 556 1504 q 508 1440 529 1457 q 461 1411 488 1422 q 408 1396 435 1400 l 406 1393 q 391 1392 403 1393 q 375 1392 379 1392 q 315 1397 343 1392 q 260 1417 288 1401 q 213 1447 236 1428 q 163 1465 189 1465 q 151 1462 154 1465 q 145 1455 147 1458 q 142 1448 143 1451 q 138 1444 140 1444 q 147 1422 140 1443 q 160 1376 153 1401 q 172 1327 167 1350 q 176 1300 176 1304 l 176 1293 q 172 1290 176 1290 l 178 1290 q 201 1203 189 1246 q 229 1119 214 1161 q 239 1088 228 1118 q 265 1021 250 1058 q 293 948 279 983 q 313 900 307 913 q 318 890 314 897 q 328 876 322 883 q 337 860 333 868 q 339 851 340 853 q 355 820 350 836 q 371 789 360 804 l 371 786 l 371 785 q 382 765 378 774 q 393 744 386 757 q 406 723 393 744 q 434 674 418 701 q 464 622 450 647 q 482 590 478 597 q 490 582 485 588 q 496 569 496 576 l 497 569 q 511 549 504 558 q 525 531 518 540 q 530 522 526 529 q 533 513 533 514 q 539 511 535 511 l 546 511 q 547 498 544 503 q 552 490 549 493 q 559 483 556 486 q 563 475 563 481 l 563 472 q 561 470 563 472 q 560 467 560 468 q 565 469 563 469 q 571 464 567 469 q 580 451 575 458 q 590 438 585 444 q 597 431 594 432 l 613 404 q 622 394 615 401 q 632 385 629 386 l 632 381 q 689 317 664 353 q 747 253 714 282 l 747 250 l 771 224 l 771 215 l 778 215 l 778 214 q 785 207 785 214 q 831 163 807 183 q 874 119 854 142 q 890 105 879 114 q 912 87 900 96 q 933 69 924 78 q 943 54 942 60 m 1038 7 q 1036 6 1036 7 q 1036 6 1036 6 q 1038 3 1036 3 q 1040 6 1040 3 q 1040 6 1040 6 q 1038 7 1039 7 m 1036 11 q 1033 7 1033 11 q 1036 6 1033 6 q 1036 6 1036 6 q 1038 7 1038 6 q 1037 10 1038 10 q 1036 11 1036 11 m 982 17 q 979 14 979 17 q 982 11 979 11 q 983 14 983 11 q 982 17 983 17 m 1038 26 q 1036 22 1036 26 q 1038 19 1036 19 q 1040 22 1040 19 q 1038 26 1040 26 m 797 235 q 755 282 776 260 q 711 331 733 304 l 660 393 l 657 396 q 638 421 651 403 q 610 459 625 439 q 581 497 594 479 q 563 522 567 515 q 558 527 560 524 q 557 531 557 531 q 551 540 551 542 q 546 546 550 539 l 454 692 q 444 706 447 703 q 433 725 440 710 q 426 738 432 726 q 414 763 421 749 q 401 788 407 776 q 393 804 394 800 q 390 807 393 804 q 388 811 388 810 l 331 929 l 244 1154 l 172 1428 q 178 1431 172 1431 l 181 1431 q 203 1422 194 1431 q 222 1407 211 1414 q 269 1381 242 1396 q 321 1367 297 1367 l 408 1367 q 440 1374 419 1367 q 474 1388 460 1381 q 549 1446 518 1407 q 579 1533 579 1485 q 560 1606 579 1575 q 510 1658 540 1638 q 441 1690 479 1679 q 365 1700 403 1700 q 262 1681 308 1700 q 175 1618 215 1663 l 174 1618 l 172 1618 q 170 1620 172 1619 q 167 1622 168 1621 l 99 1688 l 239 1906 q 243 1914 240 1908 q 250 1919 246 1919 l 1764 1919 q 1778 1904 1771 1919 q 1793 1883 1786 1889 l 1893 1726 q 1907 1708 1900 1721 q 1914 1689 1914 1696 q 1905 1674 1914 1681 q 1893 1663 1896 1667 q 1883 1653 1890 1660 q 1867 1640 1875 1647 q 1853 1627 1860 1633 q 1844 1618 1846 1621 l 1842 1618 l 1840 1618 q 1838 1620 1840 1619 q 1835 1622 1836 1621 q 1660 1700 1764 1700 q 1555 1683 1601 1700 q 1468 1625 1508 1667 q 1458 1613 1461 1618 q 1450 1600 1454 1607 q 1442 1578 1447 1592 q 1436 1561 1436 1564 l 1436 1501 q 1446 1478 1443 1490 q 1456 1456 1449 1467 q 1483 1426 1465 1442 q 1521 1397 1500 1410 q 1564 1375 1542 1383 q 1606 1367 1586 1367 l 1692 1367 q 1719 1372 1703 1367 q 1750 1383 1735 1376 q 1780 1398 1765 1390 q 1804 1413 1794 1406 q 1817 1425 1811 1419 q 1835 1431 1824 1431 q 1842 1424 1842 1431 q 1835 1390 1842 1406 q 1826 1356 1828 1374 q 1699 972 1775 1153 q 1513 614 1622 790 q 1497 588 1508 606 q 1472 550 1485 569 q 1446 513 1458 531 q 1428 489 1433 494 q 1414 473 1419 482 q 1401 453 1408 464 q 1388 435 1397 447 q 1369 410 1379 424 q 1349 385 1358 397 q 1336 369 1340 374 q 1333 367 1333 369 q 1313 344 1329 363 q 1278 304 1297 325 q 1242 265 1258 283 q 1221 242 1225 246 q 1206 225 1218 238 q 1181 199 1194 213 q 1153 172 1167 185 q 1135 156 1140 160 q 1125 147 1133 154 q 1108 131 1117 140 q 1091 115 1099 122 q 1082 106 1083 107 l 1038 63 q 1026 53 1035 61 q 1015 43 1018 46 q 1011 40 1014 42 q 1006 38 1008 38 q 1003 40 1006 38 q 997 43 1000 42 l 797 235 m 1060 43 q 1057 40 1057 43 q 1060 38 1057 38 q 1060 38 1060 38 q 1061 40 1061 39 q 1060 42 1061 42 q 1060 43 1060 43 m 1082 60 q 1077 58 1082 61 q 1075 54 1072 54 q 1079 56 1076 54 q 1082 60 1082 57 m 935 60 q 934 59 935 60 q 933 57 933 58 q 934 55 933 56 q 935 54 935 54 q 938 57 938 54 q 935 60 938 60 m 928 65 l 926 65 l 926 63 q 927 60 926 61 q 928 60 928 60 q 932 63 932 60 q 928 65 932 65 m 1085 68 q 1082 65 1082 68 q 1085 63 1082 63 l 1085 65 l 1085 68 m 1147 131 q 1149 129 1149 131 q 1147 126 1149 126 q 1144 129 1144 126 q 1147 131 1144 131 m 838 156 q 835 151 835 156 q 835 151 835 151 q 838 150 836 150 l 840 151 q 839 155 840 154 q 838 156 838 156 m 1244 215 q 1242 213 1238 218 q 1244 215 1246 208 m 751 242 q 749 238 749 242 q 751 235 749 235 q 754 238 754 235 q 751 242 754 242 m 1290 267 q 1285 264 1290 269 q 1282 258 1279 258 q 1288 261 1285 258 q 1290 267 1290 264 m 706 289 q 703 286 703 289 q 706 283 703 283 q 708 286 708 283 q 706 289 708 289 m 681 307 q 678 304 678 307 q 681 300 678 300 q 681 301 681 300 q 682 304 682 301 q 681 307 682 307 q 681 307 681 307 m 685 317 q 684 315 685 317 q 683 313 683 314 q 684 309 683 310 q 685 308 685 308 q 688 313 688 308 q 685 317 688 317 m 600 421 q 597 418 597 421 q 600 415 597 415 q 600 415 600 415 q 601 418 601 415 q 600 421 601 421 m 1414 421 q 1411 418 1411 421 q 1414 415 1411 415 q 1415 418 1415 415 q 1414 421 1415 421 m 597 424 q 596 421 596 424 q 597 418 596 418 q 600 421 600 418 q 597 424 600 424 m 1422 431 l 1421 431 l 1421 428 q 1422 424 1421 425 q 1422 424 1422 424 q 1423 424 1422 424 q 1424 428 1424 425 q 1423 430 1424 429 q 1422 431 1422 431 m 565 467 q 564 465 564 467 q 565 461 564 461 q 567 465 567 461 q 565 467 567 467 m 1447 467 q 1446 467 1447 467 q 1446 465 1446 467 q 1447 462 1446 463 q 1447 461 1447 461 q 1450 465 1450 461 q 1447 467 1450 467 m 560 475 l 558 475 q 557 472 557 475 q 558 470 557 471 q 560 469 560 469 q 560 470 560 469 q 561 472 561 471 q 560 474 561 474 q 560 475 560 475 m 1468 490 q 1466 491 1468 493 q 1465 489 1464 489 q 1469 488 1468 486 q 1468 490 1469 489 m 471 606 q 469 601 469 606 q 471 600 469 600 q 474 601 474 600 q 471 606 474 606 m 769 725 q 776 711 769 718 q 793 698 783 704 q 813 687 803 692 q 829 678 822 682 q 844 669 833 675 q 858 663 856 664 q 872 656 861 660 q 886 650 883 653 q 899 646 890 649 q 918 640 908 643 q 935 635 928 638 q 943 633 943 633 q 982 628 965 629 q 1018 628 999 628 q 1126 644 1074 628 q 1219 692 1179 661 q 1285 769 1260 724 q 1310 875 1310 815 q 1287 970 1310 928 q 1231 1049 1264 1013 q 1200 1068 1215 1056 q 1171 1089 1185 1081 q 1135 1101 1154 1097 q 1100 1115 1115 1104 l 1018 1135 q 965 1142 992 1132 q 915 1168 938 1151 q 878 1208 893 1185 q 864 1260 864 1232 q 877 1310 864 1288 q 911 1347 890 1332 q 958 1371 932 1363 q 1010 1379 985 1379 q 1066 1372 1039 1379 q 1118 1351 1093 1364 q 1167 1324 1143 1339 q 1217 1296 1192 1310 q 1225 1290 1224 1292 q 1231 1289 1226 1289 q 1240 1294 1238 1289 q 1249 1317 1242 1299 q 1266 1360 1257 1336 q 1279 1393 1275 1385 l 1279 1399 q 1274 1411 1279 1407 q 1261 1418 1268 1415 q 1148 1481 1204 1456 q 1024 1506 1092 1506 q 913 1490 967 1506 q 816 1442 858 1474 q 748 1364 774 1411 q 722 1256 722 1317 q 738 1177 722 1214 q 779 1110 753 1140 q 839 1058 806 1081 q 910 1019 872 1035 q 938 1012 922 1015 q 969 1006 954 1008 q 990 1000 974 1004 q 1010 996 1007 996 l 1017 996 l 1029 996 q 1041 995 1036 996 q 1047 994 1046 994 q 1092 978 1069 989 q 1131 952 1114 968 q 1160 915 1149 936 q 1171 868 1171 893 q 1157 819 1171 840 q 1122 783 1143 797 q 1074 761 1100 768 q 1024 754 1049 754 q 994 756 1011 754 q 958 763 976 758 q 922 774 939 767 q 897 792 906 781 q 878 801 894 794 q 858 811 863 808 q 839 825 847 815 q 815 835 831 835 q 807 829 810 835 l 769 731 l 769 725 m 1572 654 q 1569 650 1569 654 q 1572 647 1569 647 q 1573 648 1572 647 q 1574 650 1574 649 q 1573 653 1574 653 q 1572 654 1572 654 m 1583 671 q 1581 669 1582 671 q 1581 668 1581 668 q 1583 665 1581 665 q 1585 668 1585 665 q 1585 669 1585 668 q 1583 671 1585 671 m 1603 704 q 1601 703 1601 704 q 1603 700 1601 700 q 1604 703 1604 700 q 1603 704 1604 704 m 1611 718 q 1610 719 1611 719 q 1610 718 1610 718 q 1611 716 1610 715 q 1613 718 1613 717 l 1611 718 m 401 725 q 399 722 399 725 q 401 718 399 718 q 404 722 404 718 q 401 725 404 725 m 1625 750 q 1624 747 1624 750 q 1625 744 1624 744 q 1628 747 1628 744 q 1625 750 1628 750 m 1647 785 q 1646 785 1646 786 q 1647 782 1646 782 l 1647 785 m 356 811 q 353 807 353 811 q 356 806 353 806 q 358 807 358 806 q 356 811 358 811 m 1672 839 q 1671 838 1671 839 q 1672 835 1671 835 q 1673 835 1672 835 q 1674 838 1674 836 q 1672 839 1674 839 q 1672 839 1672 839 m 1732 971 q 1729 969 1729 971 q 1732 965 1729 965 q 1735 969 1735 965 q 1732 971 1735 971 m 1771 1061 q 1767 1061 1769 1063 q 1767 1057 1765 1060 q 1771 1061 1771 1057 m 1789 1131 q 1788 1128 1788 1131 q 1789 1124 1788 1124 q 1793 1128 1793 1124 q 1789 1131 1793 1131 m 172 1301 l 172 1300 l 172 1299 q 174 1300 174 1299 l 172 1301 m 151 1389 q 150 1388 150 1389 q 151 1383 150 1383 q 154 1388 154 1383 q 151 1389 154 1389 m 1860 1389 l 1860 1388 l 1860 1383 q 1863 1388 1863 1383 q 1860 1389 1863 1389 m 1864 1399 q 1860 1396 1860 1399 q 1864 1393 1860 1393 q 1867 1396 1867 1393 q 1864 1399 1867 1399 m 1872 1431 q 1872 1430 1872 1431 q 1871 1428 1871 1429 q 1872 1424 1871 1425 q 1872 1424 1872 1424 q 1873 1424 1872 1424 q 1874 1428 1874 1425 q 1873 1430 1874 1429 q 1872 1431 1872 1431 m 185 1465 q 182 1461 182 1465 q 185 1458 182 1458 l 185 1461 l 185 1465 m 1822 1465 q 1819 1461 1819 1465 q 1822 1458 1819 1458 q 1823 1459 1822 1458 q 1824 1461 1824 1460 q 1823 1465 1824 1464 q 1822 1465 1822 1465 m 150 1465 q 147 1467 150 1467 q 146 1465 144 1467 q 147 1464 147 1464 q 150 1465 150 1464 m 1826 1468 q 1824 1465 1824 1468 q 1826 1461 1824 1461 q 1828 1465 1828 1461 q 1826 1468 1828 1468 m 1864 1468 q 1860 1465 1860 1468 q 1864 1461 1860 1461 q 1867 1465 1867 1461 q 1864 1468 1867 1468 m 1468 1568 q 1467 1565 1467 1568 q 1468 1561 1467 1561 q 1471 1565 1471 1561 q 1468 1568 1471 1568 m 151 1600 q 150 1596 150 1600 q 151 1593 150 1593 q 154 1596 154 1593 q 151 1600 154 1600 m 1928 1658 q 1924 1657 1924 1658 q 1928 1654 1924 1654 q 1928 1654 1928 1654 q 1929 1657 1929 1654 q 1928 1658 1929 1658 m 413 1668 q 410 1665 410 1668 q 413 1663 410 1663 q 415 1665 415 1663 q 413 1668 415 1668 m 135 1806 q 133 1806 135 1806 q 133 1803 133 1806 q 134 1801 133 1801 q 135 1800 135 1800 q 138 1803 138 1800 q 135 1806 138 1806 m 138 1815 q 136 1811 136 1815 q 138 1808 136 1808 q 140 1811 140 1808 q 138 1815 140 1815 m 147 1826 q 146 1824 146 1826 q 147 1819 146 1819 q 150 1824 150 1819 q 147 1826 150 1826 m 171 1861 q 168 1857 168 1861 q 171 1856 168 1856 q 172 1857 172 1856 q 171 1861 172 1861 z "},"\"":{"ha":3331,"x_min":69,"x_max":3261,"o":"m 69 1617 l 69 0 l 3261 0 l 3261 1617 l 69 1617 m 943 813 l 828 813 l 828 822 q 844 824 835 822 q 861 828 853 825 q 876 836 869 831 q 885 851 883 842 q 888 865 886 856 q 892 884 890 874 q 894 903 893 894 q 894 917 894 913 l 894 1524 q 885 1560 894 1550 q 863 1572 875 1569 q 838 1576 850 1575 q 821 1588 825 1576 q 831 1591 824 1589 q 843 1594 839 1593 l 849 1594 l 856 1594 q 899 1593 869 1594 q 963 1591 929 1592 q 1025 1589 996 1590 q 1067 1588 1054 1588 l 1067 1581 q 1020 1567 1039 1578 q 1001 1524 1001 1556 l 1001 896 q 1024 838 1001 850 q 1088 822 1047 825 l 1096 806 l 1174 806 l 1174 793 q 1160 792 1171 793 q 1144 786 1150 790 q 1141 783 1143 785 q 1139 779 1139 781 l 1139 721 l 1261 231 l 1269 231 l 1446 797 l 1189 1538 q 1153 1570 1181 1563 q 1103 1581 1125 1578 l 1103 1588 l 1363 1588 q 1352 1581 1360 1583 q 1338 1578 1344 1579 q 1325 1574 1331 1576 q 1319 1565 1319 1571 l 1319 1515 l 1486 988 l 1658 1508 q 1664 1529 1663 1522 q 1665 1549 1665 1536 q 1649 1574 1665 1568 q 1615 1581 1633 1581 l 1615 1588 l 1817 1588 q 1803 1577 1814 1581 q 1781 1569 1793 1574 q 1756 1556 1768 1564 q 1738 1531 1743 1547 l 1467 793 l 1658 239 q 1663 236 1658 236 q 1664 239 1664 236 q 1668 248 1665 240 q 1674 260 1671 256 l 1788 721 l 1788 774 q 1780 786 1788 783 q 1763 790 1772 789 q 1745 794 1753 792 q 1738 806 1738 796 l 1839 806 q 1857 825 1844 821 q 1882 832 1869 829 q 1903 842 1894 835 q 1913 872 1913 850 l 1913 1538 q 1903 1562 1913 1556 q 1883 1570 1894 1568 q 1860 1574 1871 1572 q 1846 1588 1849 1576 l 2090 1588 q 2077 1575 2088 1576 q 2056 1572 2067 1574 q 2035 1563 2044 1569 q 2026 1538 2026 1557 l 2026 872 q 2035 846 2026 856 q 2056 831 2043 836 q 2085 825 2069 826 q 2114 822 2100 824 l 2114 813 l 1933 813 q 1928 797 1936 801 q 1908 790 1919 793 q 1884 780 1896 786 q 1868 758 1872 774 l 1658 29 q 1654 17 1656 19 q 1644 14 1653 14 q 1629 22 1632 14 q 1624 43 1626 31 l 1432 583 l 1261 64 q 1251 35 1258 56 q 1232 6 1243 15 q 1224 16 1228 11 q 1218 29 1219 21 l 1017 744 q 997 772 1010 763 q 971 788 983 782 q 949 799 958 794 q 943 813 940 804 m 1825 35 q 1883 52 1861 39 q 1918 101 1906 65 l 2157 808 q 2162 822 2160 817 q 2172 831 2164 826 q 2190 807 2185 822 q 2201 779 2194 792 l 2424 117 q 2525 35 2449 36 l 2525 29 l 2310 29 q 2324 38 2322 32 q 2325 51 2325 44 q 2322 72 2325 65 q 2315 93 2319 79 q 2302 130 2311 103 q 2283 186 2293 157 q 2266 241 2274 215 q 2257 274 2258 267 q 2253 283 2256 278 q 2251 289 2251 289 l 2050 289 q 2046 283 2049 289 q 2040 274 2043 278 q 2031 239 2038 263 q 2015 190 2024 215 q 2000 144 2007 165 q 1992 117 1993 122 q 1986 99 1990 113 q 1982 79 1982 85 l 1982 72 q 1990 52 1982 57 q 2009 46 1999 47 q 2028 42 2019 44 q 2040 29 2038 40 l 1825 29 l 1825 35 m 2540 801 q 2525 803 2536 801 q 2501 805 2514 804 q 2476 807 2488 806 q 2461 808 2465 808 q 2417 810 2449 808 q 2349 812 2385 811 q 2281 814 2313 813 q 2236 815 2249 815 q 2250 827 2240 825 q 2270 831 2260 829 q 2289 840 2281 833 q 2300 867 2297 847 q 2303 892 2301 874 q 2307 931 2306 910 q 2309 970 2308 951 q 2310 996 2310 989 l 2310 1018 l 2310 1117 l 2310 1233 l 2310 1276 l 2310 1304 l 2310 1388 l 2310 1457 l 2310 1472 l 2300 1553 q 2290 1571 2300 1568 q 2267 1574 2279 1574 q 2243 1575 2254 1574 q 2228 1588 2232 1576 l 2496 1588 q 2479 1575 2493 1575 q 2460 1574 2471 1575 q 2440 1569 2449 1574 q 2424 1555 2431 1565 q 2417 1524 2417 1544 l 2417 953 q 2419 926 2417 942 q 2426 898 2421 911 q 2440 876 2431 885 q 2467 867 2450 867 l 2604 867 q 2631 878 2619 867 q 2649 903 2642 889 q 2660 934 2656 918 q 2668 960 2665 950 l 2678 960 q 2671 883 2678 921 q 2664 806 2664 846 l 2871 806 q 2888 798 2871 804 q 2915 786 2904 792 q 2990 720 2969 763 q 3010 621 3010 678 q 2983 495 3010 547 q 2907 389 2957 443 l 2907 386 l 2907 382 q 2910 375 2908 381 q 2915 368 2913 369 q 3021 204 2968 286 q 3146 58 3074 122 q 3163 50 3151 53 q 3185 45 3174 47 q 3206 40 3196 43 q 3218 29 3215 36 l 3060 29 q 3032 38 3046 29 q 3005 61 3018 47 q 2981 90 2992 75 q 2964 117 2971 106 q 2938 157 2956 128 q 2899 219 2919 186 q 2860 282 2878 253 q 2835 324 2842 311 q 2812 344 2822 339 q 2786 349 2801 349 l 2763 349 l 2747 349 q 2733 347 2736 349 l 2726 339 l 2726 332 q 2726 315 2726 324 q 2725 294 2725 306 l 2725 279 q 2726 181 2725 228 q 2733 79 2726 133 q 2743 55 2735 63 q 2763 43 2751 47 q 2788 38 2774 39 q 2814 35 2801 36 l 2814 29 l 2554 29 q 2567 40 2557 38 q 2588 44 2576 42 q 2608 53 2599 46 q 2618 79 2617 60 q 2621 100 2619 85 q 2624 131 2622 115 q 2626 162 2625 147 q 2626 181 2626 176 l 2626 715 q 2614 769 2626 756 q 2586 785 2601 782 q 2557 788 2571 788 q 2540 801 2543 788 m 2064 347 l 2235 347 l 2157 607 l 2147 615 l 2064 347 m 2726 744 l 2726 418 q 2736 402 2726 407 q 2759 396 2746 397 q 2785 395 2772 394 q 2803 396 2797 396 q 2860 412 2838 396 q 2894 453 2882 428 q 2911 509 2907 478 q 2915 569 2915 540 q 2907 640 2915 606 q 2881 701 2899 675 q 2834 744 2863 728 q 2767 760 2806 760 q 2752 759 2763 760 q 2742 758 2742 758 l 2726 744 m 106 1213 q 131 1372 106 1299 q 206 1497 157 1444 q 326 1580 256 1550 q 485 1610 396 1610 l 514 1610 q 544 1608 532 1610 q 583 1601 556 1607 q 614 1597 596 1600 q 649 1590 632 1593 q 679 1583 667 1586 q 692 1581 692 1581 l 699 1574 l 699 1571 q 699 1561 699 1565 q 700 1553 700 1557 l 700 1544 q 697 1467 700 1504 q 692 1386 694 1431 l 683 1386 q 615 1519 674 1479 q 468 1560 556 1560 q 351 1532 397 1560 q 277 1459 304 1504 q 239 1356 250 1414 q 228 1235 228 1297 q 243 1104 228 1172 q 292 980 258 1036 q 378 888 325 924 q 507 851 431 851 q 616 873 571 851 q 683 960 661 894 q 688 976 688 963 q 699 996 688 992 l 699 990 q 699 978 699 983 q 700 969 700 974 l 700 964 q 692 873 700 907 q 662 821 683 839 q 603 798 640 803 q 510 793 567 793 q 340 824 415 793 q 213 909 265 854 q 133 1041 161 964 q 106 1213 106 1118 z "},"#":{"ha":4258,"x_min":69,"x_max":4189,"o":"m 351 625 q 328 561 344 607 q 294 465 313 515 q 261 369 276 414 q 240 306 246 324 q 224 276 233 286 q 201 258 214 265 q 174 244 189 251 q 143 222 160 236 q 113 179 126 208 q 90 117 100 150 q 75 51 81 83 q 69 0 69 19 l 574 0 q 587 22 578 0 q 606 71 596 43 q 623 125 615 99 q 631 161 631 151 q 630 173 631 165 q 629 181 629 181 q 622 190 628 182 q 608 208 615 199 q 594 226 600 218 q 588 236 588 235 q 592 256 588 239 q 601 278 596 272 q 603 278 601 278 q 608 279 606 279 q 613 278 610 279 q 615 278 615 278 q 627 268 619 274 q 643 257 635 263 q 659 246 651 251 q 671 236 667 240 l 838 236 l 851 250 q 865 294 856 263 q 886 360 875 325 q 907 428 897 396 q 921 472 917 460 q 928 488 924 478 q 935 500 932 497 q 942 499 938 503 q 949 494 946 494 l 949 444 l 853 14 l 3507 14 q 3497 110 3507 71 q 3470 179 3486 150 q 3435 233 3454 208 q 3401 287 3417 258 q 3374 352 3385 315 q 3364 444 3364 389 q 3365 466 3364 450 q 3365 486 3365 482 q 3393 488 3374 486 q 3435 491 3413 489 q 3476 496 3457 493 q 3504 500 3496 499 q 3518 506 3507 501 q 3532 514 3529 511 l 3601 292 q 3602 280 3601 290 q 3603 264 3603 269 q 3598 238 3603 249 q 3588 216 3593 226 q 3577 194 3582 206 q 3572 168 3572 183 q 3574 127 3572 153 q 3582 76 3576 101 q 3596 33 3588 51 q 3615 14 3604 14 l 4104 14 q 4103 28 4104 17 q 4101 42 4103 39 q 4093 75 4099 51 q 4081 125 4088 99 q 4068 175 4074 151 q 4060 208 4063 199 q 4028 241 4043 229 q 3998 265 4013 253 q 3971 292 3983 276 q 3949 333 3958 307 q 3936 365 3944 342 q 3919 413 3928 388 q 3903 462 3911 439 q 3893 493 3896 485 l 4126 493 l 4046 750 l 4046 778 q 4062 779 4050 778 q 4088 783 4074 781 q 4113 788 4101 785 q 4129 792 4125 790 q 4137 798 4132 793 q 4143 806 4142 803 q 4153 832 4146 813 q 4169 875 4161 851 q 4183 923 4176 899 q 4189 965 4189 947 l 3963 965 q 3933 1027 3949 1006 q 3901 1064 3918 1049 q 3865 1095 3885 1079 q 3824 1139 3846 1111 q 3787 1197 3813 1156 q 3733 1284 3761 1238 q 3678 1372 3704 1331 q 3643 1431 3653 1414 q 3628 1458 3638 1438 q 3615 1486 3618 1478 q 3615 1489 3615 1486 q 3614 1493 3614 1492 q 3621 1512 3614 1504 q 3636 1526 3628 1519 q 3651 1540 3644 1532 q 3658 1561 3658 1549 q 3653 1605 3658 1578 q 3641 1658 3649 1632 q 3623 1703 3633 1683 q 3601 1722 3613 1722 l 1726 1722 l 1726 1542 q 1740 1522 1729 1538 q 1754 1500 1751 1506 q 1763 1484 1757 1494 q 1768 1472 1768 1474 l 1740 1250 q 1713 1249 1732 1250 q 1671 1245 1693 1247 q 1629 1240 1649 1243 q 1601 1236 1610 1238 q 1588 1230 1599 1235 q 1574 1222 1576 1225 l 1574 1243 q 1577 1297 1574 1265 q 1587 1362 1581 1329 q 1600 1424 1593 1394 q 1615 1472 1607 1453 q 1625 1485 1617 1475 q 1643 1507 1633 1496 q 1661 1528 1653 1518 q 1671 1542 1669 1539 q 1680 1569 1676 1551 q 1685 1608 1683 1588 q 1688 1650 1688 1629 q 1689 1688 1689 1671 l 1689 1722 l 768 1722 q 747 1703 757 1722 q 728 1658 736 1683 q 716 1605 721 1632 q 711 1561 711 1578 q 718 1540 711 1549 q 733 1526 725 1532 q 749 1512 742 1519 q 756 1493 756 1504 q 755 1489 756 1492 q 754 1486 754 1486 l 740 1458 l 546 1125 q 536 1115 542 1118 q 518 1104 531 1111 q 485 1085 503 1096 q 463 1069 467 1074 q 450 1047 458 1063 q 433 1012 442 1031 q 416 976 424 993 q 407 951 408 960 l 179 951 q 185 909 179 936 q 200 855 190 882 q 224 806 210 828 q 254 778 238 783 q 267 774 257 776 q 289 771 278 772 q 310 767 300 769 q 324 764 321 765 q 328 750 325 760 q 333 728 331 740 q 336 707 335 717 q 338 694 338 697 q 347 671 343 675 q 351 667 350 667 q 353 664 353 667 l 353 646 q 352 635 353 643 q 351 625 351 628 m 463 674 q 455 709 463 693 q 447 744 447 725 q 449 764 447 750 q 463 778 450 778 l 981 778 q 972 683 981 733 q 935 597 963 633 q 915 594 931 596 q 893 593 899 593 q 851 605 863 593 q 833 630 839 617 q 825 655 828 643 q 810 667 822 667 l 643 667 q 621 648 631 667 q 605 603 611 629 q 595 551 599 578 q 592 510 592 525 q 616 508 599 510 q 652 503 633 506 q 688 500 671 501 q 713 500 706 499 q 720 504 714 500 q 733 514 726 508 q 747 524 740 519 q 754 528 753 528 q 769 531 758 529 q 790 533 779 532 q 812 535 801 535 q 826 536 822 536 q 822 483 826 517 q 809 415 818 449 q 785 357 800 382 q 747 332 769 332 q 709 339 726 332 q 674 355 692 346 q 638 371 657 364 q 594 378 619 378 l 582 378 q 553 376 569 378 q 532 375 538 375 q 504 349 515 368 q 487 306 493 331 q 478 257 481 282 q 475 214 475 232 q 482 190 475 199 q 497 173 489 181 q 513 156 506 165 q 519 133 519 147 l 519 122 q 516 97 519 111 q 504 83 513 83 l 208 83 q 221 138 208 122 q 251 162 233 154 q 285 177 268 169 q 310 208 301 185 l 463 667 l 463 674 m 978 83 l 1101 653 q 1102 660 1101 654 q 1103 668 1103 665 q 1102 676 1103 671 q 1101 681 1101 681 q 1094 690 1100 682 q 1080 707 1088 697 q 1066 725 1072 717 q 1060 736 1060 733 q 1062 762 1057 746 q 1074 778 1067 778 l 1338 778 l 1338 750 q 1308 724 1331 743 q 1268 682 1286 704 q 1254 653 1257 667 q 1247 611 1251 639 q 1234 530 1242 578 q 1219 435 1226 482 q 1206 348 1211 388 q 1199 292 1200 308 q 1200 267 1197 285 q 1203 242 1203 250 q 1222 238 1208 242 q 1249 229 1235 233 q 1277 222 1264 225 q 1296 222 1290 219 q 1317 235 1303 225 q 1347 260 1332 246 q 1376 286 1363 274 q 1393 306 1389 299 q 1410 306 1397 306 q 1428 307 1424 307 q 1438 308 1431 307 q 1454 307 1446 308 q 1469 303 1463 306 q 1476 292 1475 300 q 1475 267 1476 285 q 1472 228 1474 249 q 1467 190 1469 208 q 1463 167 1464 172 q 1459 143 1461 157 q 1455 116 1457 129 q 1451 93 1453 103 q 1449 83 1449 83 l 978 83 m 1546 125 q 1620 215 1597 160 q 1650 333 1643 271 q 1656 458 1657 396 q 1657 569 1654 521 l 1657 579 q 1658 597 1657 588 q 1658 617 1658 607 l 1658 632 q 1650 673 1658 656 q 1633 706 1642 690 q 1615 738 1624 721 q 1607 778 1607 754 l 1901 778 q 1889 743 1901 757 q 1862 717 1876 729 q 1835 690 1847 704 q 1824 653 1824 675 q 1811 541 1817 590 q 1802 447 1806 492 q 1797 359 1799 403 q 1794 264 1794 315 l 1794 250 q 1795 229 1794 240 q 1796 208 1796 218 l 1796 194 q 1846 149 1828 179 q 1864 83 1864 118 l 1546 83 l 1546 125 m 2386 139 l 2324 97 l 2018 97 q 1979 113 1993 97 q 1958 150 1965 128 q 1949 194 1950 172 q 1947 232 1947 217 q 1956 461 1947 350 q 1976 694 1965 572 q 1981 717 1976 703 q 1994 744 1986 731 q 2013 768 2003 758 q 2032 778 2022 778 l 2338 778 q 2358 765 2349 768 q 2379 763 2367 763 q 2419 771 2403 763 q 2463 779 2436 779 q 2487 778 2471 779 q 2504 778 2503 778 q 2513 772 2507 778 q 2518 764 2518 767 l 2518 583 l 2449 583 l 2365 667 l 2129 667 l 2129 222 l 2365 222 l 2365 389 l 2296 458 l 2296 486 l 2532 486 q 2536 397 2533 447 q 2541 292 2539 346 q 2545 183 2543 238 q 2547 83 2547 129 l 2386 83 l 2386 139 m 2700 250 q 2697 343 2700 293 q 2690 442 2694 393 q 2680 535 2685 490 q 2671 611 2675 579 q 2663 653 2668 635 q 2647 688 2657 672 q 2622 718 2636 703 q 2588 750 2607 733 l 2588 778 l 2874 778 q 2865 737 2874 754 q 2848 703 2857 719 q 2831 668 2839 686 q 2822 625 2822 650 l 2822 607 q 2823 585 2822 596 q 2824 565 2824 574 l 2824 556 q 2830 530 2825 546 q 2838 514 2835 514 l 3069 514 q 3072 564 3069 544 q 3074 600 3074 583 q 3071 635 3074 617 q 3060 681 3068 653 q 3040 706 3054 697 q 3011 724 3026 715 q 2984 745 2996 733 q 2972 778 2972 757 l 3226 778 q 3235 762 3229 778 q 3240 736 3240 746 q 3233 722 3240 733 q 3226 708 3226 711 q 3226 693 3226 707 q 3225 672 3225 679 q 3226 653 3225 665 q 3226 639 3226 640 l 3310 222 q 3373 165 3350 203 q 3396 83 3396 128 l 3101 83 q 3095 99 3100 83 q 3088 125 3090 115 l 3088 133 l 3088 139 q 3097 151 3089 142 q 3115 173 3106 161 q 3133 195 3125 185 q 3143 208 3142 206 q 3144 213 3143 208 q 3144 221 3144 218 q 3144 229 3144 224 q 3143 236 3143 235 q 3138 258 3142 242 q 3129 291 3133 274 q 3121 324 3125 308 q 3115 347 3117 340 q 3108 365 3113 354 q 3101 375 3103 375 l 2871 375 q 2870 350 2871 368 q 2868 313 2869 332 q 2866 275 2867 293 q 2865 250 2865 257 q 2874 214 2867 226 q 2890 193 2881 201 q 2912 178 2900 185 q 2933 162 2924 172 q 2948 133 2942 151 q 2954 83 2954 115 l 2632 83 q 2642 131 2632 111 q 2666 167 2653 150 q 2690 203 2679 185 q 2700 250 2700 222 m 3671 133 l 3671 139 q 3681 151 3672 142 q 3699 173 3689 161 q 3717 195 3708 185 q 3726 208 3725 206 q 3727 213 3726 208 q 3728 221 3728 218 q 3727 229 3728 224 q 3726 236 3726 235 l 3588 653 q 3565 668 3581 668 l 3539 668 q 3497 654 3510 668 q 3475 623 3485 640 q 3453 592 3465 606 q 3414 578 3442 578 q 3397 580 3410 578 q 3379 583 3383 582 q 3353 679 3360 629 q 3347 778 3347 729 l 3907 778 q 3914 765 3907 778 q 3930 735 3921 753 q 3948 698 3939 717 q 3963 667 3957 679 q 3968 653 3964 663 q 3976 632 3972 643 q 3985 611 3981 621 q 3990 597 3989 601 q 3992 590 3990 594 q 3993 583 3993 586 l 3935 583 l 3824 667 l 3757 667 q 3756 653 3757 664 q 3754 639 3754 642 q 3756 628 3754 636 q 3760 612 3758 621 q 3765 595 3763 603 q 3768 583 3767 588 q 3789 514 3774 564 q 3822 409 3804 464 q 3856 305 3840 354 q 3879 236 3872 256 q 3912 208 3889 225 q 3958 173 3935 192 q 4001 136 3982 154 q 4019 104 4019 118 q 4019 100 4019 103 q 4018 97 4018 97 q 4011 89 4017 94 q 4004 83 4006 83 l 3685 83 q 3678 99 3683 83 q 3671 125 3674 115 l 3671 133 m 2958 303 q 3010 296 2986 303 q 3033 256 3033 289 q 3033 252 3033 254 q 3032 250 3032 250 q 3018 242 3029 247 q 3004 236 3007 236 q 2981 243 2990 236 q 2967 260 2972 250 q 2960 281 2963 269 q 2958 303 2958 293 m 2213 389 q 2234 380 2222 386 q 2257 365 2246 374 q 2276 346 2268 356 q 2283 326 2283 336 q 2274 308 2283 314 q 2253 301 2265 303 q 2228 299 2240 299 q 2213 300 2217 300 l 2213 389 m 1476 769 q 1490 767 1479 769 q 1504 764 1501 765 q 1513 728 1504 747 q 1533 691 1522 710 q 1553 655 1544 672 q 1560 625 1561 638 l 1532 396 l 1351 396 l 1310 361 l 1310 382 q 1311 435 1310 404 q 1317 499 1313 467 q 1329 560 1321 531 q 1351 611 1338 590 q 1379 646 1367 635 q 1401 664 1392 657 q 1419 680 1411 671 q 1435 708 1428 689 q 1441 738 1440 726 q 1444 757 1442 750 q 1453 767 1446 764 q 1476 769 1460 769 m 2921 632 l 2921 639 q 2927 647 2922 642 q 2935 653 2932 651 q 2938 653 2935 653 q 2942 654 2940 654 q 2955 646 2950 654 q 2962 626 2960 638 q 2965 603 2964 614 q 2965 589 2965 593 q 2921 632 2921 589 m 282 875 l 4060 875 l 4060 861 l 282 861 l 282 875 m 615 1069 l 865 1486 l 879 1514 l 879 1521 l 879 1528 q 869 1542 876 1532 q 852 1563 861 1551 q 835 1583 843 1574 q 824 1597 828 1593 l 838 1639 l 1260 1639 q 1244 1592 1260 1608 q 1208 1565 1228 1575 q 1173 1548 1189 1556 q 1157 1528 1157 1540 l 1157 1056 q 1167 1045 1161 1053 q 1180 1029 1174 1038 q 1192 1013 1186 1021 q 1199 1000 1197 1004 q 1199 984 1200 993 q 1197 966 1199 975 q 1192 951 1194 957 q 1185 944 1189 944 l 921 944 l 921 986 q 937 998 926 989 q 958 1018 947 1007 q 978 1040 969 1029 q 990 1056 988 1050 q 989 1072 992 1060 q 983 1097 986 1083 q 976 1123 979 1111 q 972 1139 972 1135 l 824 1139 q 806 1128 815 1139 q 787 1103 796 1118 q 772 1075 778 1089 q 767 1056 767 1061 q 772 1037 767 1044 q 782 1022 776 1029 q 792 1006 788 1014 q 797 988 797 997 q 794 962 797 979 q 782 944 792 944 l 529 944 q 558 1015 529 986 q 615 1069 586 1044 m 1296 1028 l 1379 1486 q 1380 1499 1379 1489 q 1381 1515 1381 1510 q 1376 1537 1381 1528 q 1366 1554 1371 1546 q 1356 1571 1361 1563 q 1351 1590 1351 1579 l 1351 1597 q 1359 1623 1354 1607 q 1365 1639 1364 1639 l 1599 1639 q 1588 1601 1599 1615 q 1563 1574 1576 1586 q 1535 1548 1549 1561 q 1518 1514 1522 1535 l 1449 1125 l 1449 1089 q 1468 1085 1454 1089 q 1497 1076 1482 1081 q 1526 1069 1513 1072 q 1546 1069 1540 1067 q 1567 1083 1553 1072 q 1597 1107 1582 1093 q 1626 1133 1613 1121 q 1643 1153 1639 1146 q 1653 1153 1646 1153 q 1664 1154 1661 1154 l 1671 1154 q 1691 1151 1681 1154 q 1699 1139 1701 1147 l 1671 944 l 1296 944 l 1296 1028 m 1851 1472 l 1851 1556 q 1844 1563 1849 1557 q 1835 1575 1840 1568 q 1827 1588 1831 1582 q 1824 1597 1824 1594 q 1827 1623 1821 1607 q 1838 1639 1833 1639 l 2268 1639 q 2287 1631 2275 1639 q 2310 1613 2299 1624 q 2329 1594 2321 1603 q 2338 1583 2338 1585 l 2338 1236 q 2333 1222 2338 1231 q 2323 1206 2329 1214 q 2309 1193 2317 1199 q 2296 1188 2301 1188 l 1976 1188 l 1976 1056 q 2026 1010 2008 1040 q 2044 944 2044 979 l 1756 944 q 1760 972 1756 951 q 1768 1000 1765 993 q 1778 1010 1769 1003 q 1796 1028 1786 1018 q 1814 1045 1806 1038 q 1824 1056 1822 1053 q 1849 1150 1842 1097 q 1856 1259 1856 1203 q 1854 1371 1857 1315 q 1851 1472 1851 1426 m 2435 986 q 2448 998 2439 989 q 2466 1018 2457 1007 q 2482 1040 2475 1029 q 2490 1056 2489 1050 q 2491 1072 2490 1057 q 2492 1097 2492 1088 q 2492 1204 2492 1149 q 2490 1316 2493 1260 q 2477 1426 2486 1372 q 2449 1528 2468 1479 q 2430 1563 2439 1550 q 2415 1585 2421 1575 q 2404 1606 2408 1594 q 2400 1639 2400 1618 l 2629 1639 q 2641 1623 2636 1639 q 2643 1597 2646 1607 q 2637 1585 2642 1593 q 2626 1567 2632 1576 q 2613 1551 2619 1558 q 2601 1542 2606 1543 l 2601 1528 q 2601 1507 2601 1518 q 2600 1486 2600 1496 l 2600 1472 l 2600 1454 q 2601 1432 2600 1443 q 2601 1413 2601 1421 l 2601 1403 q 2608 1377 2603 1393 q 2615 1361 2613 1361 l 2821 1361 q 2822 1406 2821 1382 q 2821 1454 2822 1431 q 2814 1501 2819 1478 q 2796 1542 2808 1524 q 2772 1569 2783 1560 q 2750 1586 2760 1578 q 2735 1606 2740 1594 q 2729 1639 2729 1617 l 2963 1639 q 2972 1623 2967 1639 q 2976 1597 2978 1607 q 2972 1589 2976 1594 q 2963 1576 2968 1583 q 2953 1563 2957 1569 q 2949 1556 2949 1557 q 2948 1542 2949 1554 q 2947 1522 2947 1529 q 2948 1502 2947 1515 q 2949 1486 2949 1489 l 3018 1083 q 3035 1049 3022 1063 q 3063 1024 3049 1036 q 3088 996 3076 1011 q 3099 958 3099 981 l 2838 958 l 2824 986 q 2835 1000 2828 990 q 2852 1021 2843 1010 q 2869 1042 2861 1032 q 2879 1056 2876 1051 q 2880 1060 2879 1056 q 2881 1068 2881 1065 q 2880 1076 2881 1071 q 2879 1083 2879 1082 q 2874 1105 2878 1089 q 2865 1138 2869 1121 q 2857 1172 2861 1156 q 2851 1194 2853 1188 q 2844 1212 2849 1201 q 2838 1222 2839 1222 l 2643 1222 l 2643 1069 l 2713 986 l 2713 958 l 2449 958 l 2435 986 m 3185 1014 q 3192 1026 3186 1018 q 3203 1043 3197 1035 q 3216 1059 3210 1051 q 3226 1069 3222 1067 l 3226 1542 q 3196 1556 3214 1547 q 3162 1578 3178 1565 q 3134 1606 3146 1590 q 3122 1639 3122 1621 l 3546 1639 l 3560 1597 q 3548 1587 3556 1594 q 3531 1570 3540 1579 q 3515 1553 3522 1561 q 3504 1542 3507 1546 q 3503 1540 3504 1542 q 3503 1535 3503 1538 q 3503 1531 3503 1533 q 3504 1528 3504 1528 q 3511 1511 3506 1524 q 3524 1485 3517 1499 q 3537 1460 3531 1472 q 3546 1444 3543 1449 q 3572 1401 3554 1431 q 3611 1335 3589 1372 q 3657 1257 3633 1297 q 3703 1179 3681 1217 q 3742 1113 3725 1142 q 3768 1069 3760 1083 q 3796 1042 3781 1053 q 3824 1020 3811 1031 q 3845 996 3836 1010 q 3854 958 3854 982 l 3601 958 q 3589 969 3596 958 q 3578 990 3582 981 q 3574 1000 3574 999 q 3583 1012 3578 1004 q 3594 1028 3589 1019 q 3606 1044 3600 1036 q 3615 1056 3611 1051 l 3615 1063 q 3610 1082 3615 1071 q 3599 1103 3606 1093 q 3585 1124 3592 1114 q 3574 1139 3578 1133 q 3566 1147 3571 1142 q 3560 1153 3561 1153 l 3411 1153 q 3408 1133 3411 1147 q 3400 1104 3404 1119 q 3393 1075 3396 1089 q 3393 1056 3390 1061 q 3402 1047 3394 1053 q 3419 1033 3410 1040 q 3438 1021 3429 1026 q 3449 1014 3446 1015 q 3466 992 3464 1001 q 3468 958 3468 983 l 3199 958 q 3192 965 3194 958 q 3187 980 3189 971 q 3184 998 3185 989 q 3185 1014 3183 1007 m 2101 1104 l 2351 1104 q 2372 1122 2361 1115 q 2397 1128 2382 1128 q 2395 1116 2397 1122 q 2385 1100 2393 1110 q 2365 1074 2376 1089 q 2351 1056 2354 1060 q 2346 1033 2349 1051 q 2340 999 2343 1014 q 2335 981 2339 990 q 2324 972 2331 972 l 2143 972 q 2133 1042 2142 1006 q 2101 1104 2125 1078 m 2735 1139 l 2754 1139 l 2754 1083 q 2739 1101 2743 1086 q 2735 1128 2735 1117 l 2735 1139 m 3058 1458 q 3059 1480 3058 1464 q 3060 1500 3060 1496 l 3115 1472 q 3124 1465 3118 1469 q 3129 1458 3129 1460 l 3129 1111 q 3107 1139 3117 1115 q 3090 1197 3097 1163 q 3076 1271 3082 1231 q 3066 1349 3069 1311 q 3060 1415 3063 1386 q 3058 1458 3058 1444 m 886 1264 l 1004 1264 l 1004 1500 l 886 1264 m 3379 1514 l 3379 1264 l 3490 1264 l 3490 1292 l 3379 1514 m 1254 1472 l 1285 1472 q 1276 1381 1285 1426 q 1254 1292 1268 1336 l 1254 1472 m 2004 1514 l 2004 1319 l 2199 1319 l 2199 1514 l 2004 1514 m 2088 1431 q 2091 1431 2089 1431 q 2094 1432 2093 1432 q 2099 1431 2096 1432 q 2101 1431 2101 1431 q 2109 1424 2104 1429 q 2115 1417 2114 1419 q 2088 1400 2107 1400 l 2088 1431 m 2685 1472 q 2690 1481 2685 1475 q 2699 1486 2696 1486 q 2715 1465 2713 1482 q 2717 1439 2717 1449 q 2694 1448 2703 1439 q 2685 1472 2685 1457 z "},"$":{"ha":5281,"x_min":69,"x_max":5211,"o":"m 69 1233 q 81 1083 69 1154 q 109 942 93 1011 q 141 806 125 874 q 164 667 157 738 q 166 642 164 661 q 171 603 168 624 q 176 563 174 582 q 182 536 179 543 q 203 433 192 483 q 228 334 215 383 q 253 235 240 285 q 274 131 265 185 l 274 114 l 274 93 l 274 69 l 274 56 q 296 24 281 35 q 331 7 311 13 q 372 0 350 1 q 415 -1 394 -1 l 458 -1 l 478 -1 q 506 -1 490 -1 q 533 0 521 0 l 553 0 q 578 35 572 11 q 589 74 583 58 l 625 167 l 644 167 l 681 0 l 904 0 l 958 111 q 960 113 958 111 q 967 114 963 114 q 993 96 983 114 q 1012 57 1003 78 q 1033 18 1021 36 q 1068 0 1044 0 l 1307 0 l 1347 185 q 1383 140 1364 171 q 1422 78 1401 110 q 1464 24 1442 47 q 1513 0 1486 0 l 1735 0 q 1766 19 1751 0 q 1794 70 1781 39 q 1817 140 1807 101 q 1835 218 1828 179 q 1849 292 1843 257 q 1858 351 1856 328 q 1862 376 1861 367 q 1864 388 1863 385 q 1876 417 1867 392 q 1890 471 1885 443 q 1910 524 1901 499 q 1919 554 1918 550 q 1924 580 1921 561 q 1930 619 1926 599 q 1935 659 1933 640 q 1938 685 1938 678 l 1976 18 l 2188 18 l 2188 221 q 2217 180 2199 207 q 2256 121 2236 153 q 2290 56 2275 89 q 2308 0 2306 24 l 2528 0 q 2531 357 2528 181 q 2538 709 2535 533 q 2545 1061 2542 885 q 2549 1418 2549 1238 q 2549 1459 2549 1428 q 2548 1524 2550 1490 q 2538 1583 2546 1557 q 2511 1608 2529 1608 l 2308 1608 q 2305 1600 2307 1608 q 2299 1580 2303 1592 q 2293 1555 2296 1568 q 2289 1533 2290 1542 q 2285 1502 2288 1525 q 2278 1452 2282 1479 q 2273 1401 2275 1425 q 2271 1368 2271 1376 q 2258 1397 2265 1376 q 2240 1444 2250 1418 q 2220 1500 2231 1471 q 2199 1553 2210 1529 q 2178 1593 2188 1578 q 2160 1608 2168 1608 l 1957 1608 q 1952 1587 1957 1608 q 1940 1536 1947 1565 q 1927 1476 1933 1507 q 1919 1424 1921 1444 q 1915 1399 1918 1418 q 1909 1360 1913 1381 q 1903 1319 1906 1339 q 1901 1294 1901 1300 q 1883 1329 1894 1303 q 1859 1390 1872 1356 q 1831 1463 1846 1425 q 1801 1534 1815 1501 q 1774 1588 1786 1567 q 1753 1608 1761 1608 l 1401 1608 q 1378 1571 1392 1608 q 1349 1477 1365 1533 q 1317 1355 1333 1421 q 1288 1231 1301 1289 q 1266 1134 1275 1174 q 1256 1090 1257 1094 q 1231 1155 1239 1108 q 1217 1259 1224 1201 q 1202 1379 1211 1317 q 1174 1493 1193 1442 q 1122 1577 1156 1544 q 1032 1608 1088 1610 l 589 1590 l 533 1461 l 496 1608 l 229 1608 l 71 1294 l 71 1286 q 70 1269 71 1279 q 69 1249 69 1260 l 69 1233 m 2863 1054 l 2863 93 q 2864 74 2863 89 q 2869 44 2865 60 q 2881 16 2874 29 q 2899 0 2888 3 l 2915 0 q 2942 -1 2928 0 q 2967 -1 2956 -1 l 2983 -1 q 3082 20 3053 -1 q 3119 80 3111 42 q 3121 169 3126 118 q 3115 278 3115 219 l 3140 278 l 3214 93 q 3222 74 3215 89 q 3232 56 3229 60 q 3283 84 3264 64 q 3310 129 3301 104 q 3322 183 3319 154 q 3324 240 3324 213 l 3353 240 l 3353 18 l 3583 18 q 3607 36 3600 18 q 3618 79 3614 54 q 3626 129 3622 104 q 3639 167 3631 154 q 3647 137 3640 158 q 3663 90 3654 115 q 3681 44 3672 65 q 3694 18 3690 24 q 3702 8 3696 15 q 3713 0 3708 1 l 3719 0 l 3732 0 q 3773 2 3744 0 q 3833 8 3801 4 q 3894 14 3865 11 q 3935 18 3922 17 q 3939 37 3936 24 q 3945 65 3942 50 q 3951 92 3949 79 q 3953 111 3953 106 l 3953 131 q 3963 141 3957 133 q 3971 149 3969 149 l 4065 131 q 4059 99 4061 117 q 4060 66 4057 82 q 4074 37 4064 50 q 4101 18 4083 24 l 4121 18 q 4151 17 4136 18 q 4182 17 4165 17 l 4203 17 q 4272 24 4243 17 q 4323 42 4300 32 q 4365 59 4346 51 q 4408 67 4385 67 q 4428 28 4408 39 q 4478 13 4449 17 q 4540 7 4507 8 q 4601 0 4574 6 q 4616 38 4608 13 q 4632 90 4624 63 q 4651 138 4640 117 q 4674 167 4661 160 q 4685 138 4678 161 q 4703 88 4693 114 q 4725 40 4714 61 q 4747 18 4736 18 l 4953 18 q 4955 24 4953 18 q 4960 40 4957 31 q 4965 58 4963 49 q 4971 74 4968 68 q 4986 151 4975 100 q 5011 267 4997 203 q 5042 402 5025 332 q 5073 535 5058 472 q 5099 649 5088 599 q 5117 721 5111 699 q 5133 809 5125 753 q 5153 924 5142 865 q 5178 1035 5164 983 q 5211 1110 5192 1086 l 5211 1313 q 5197 1342 5211 1314 q 5161 1408 5182 1369 q 5118 1486 5140 1446 q 5081 1553 5096 1526 q 5059 1590 5075 1565 q 5025 1626 5043 1614 l 5008 1626 q 4983 1628 4996 1626 q 4958 1629 4971 1629 l 4943 1629 q 4859 1625 4892 1629 q 4806 1605 4826 1621 q 4772 1559 4785 1589 q 4747 1479 4760 1529 q 4737 1500 4744 1483 q 4721 1535 4729 1517 q 4704 1569 4713 1553 q 4693 1590 4696 1586 q 4683 1601 4689 1593 q 4674 1608 4676 1608 l 4471 1608 l 4435 1590 l 4397 1331 q 4388 1294 4394 1319 q 4378 1257 4382 1268 q 4367 1294 4375 1269 q 4347 1351 4358 1319 q 4324 1416 4336 1382 q 4301 1481 4313 1450 q 4281 1535 4290 1511 q 4268 1571 4272 1560 q 4265 1579 4268 1571 q 4257 1598 4263 1588 q 4244 1617 4251 1608 q 4231 1626 4238 1626 l 3899 1626 q 3878 1603 3889 1626 q 3855 1542 3867 1579 q 3832 1462 3843 1506 q 3812 1377 3821 1418 q 3796 1303 3803 1336 q 3786 1257 3789 1271 q 3773 1205 3782 1240 q 3753 1124 3764 1169 q 3729 1027 3742 1078 q 3706 931 3717 976 q 3688 848 3696 885 q 3676 794 3679 811 l 3676 842 q 3682 957 3676 900 q 3694 1072 3688 1014 q 3707 1189 3701 1131 q 3713 1307 3713 1247 l 3713 1331 q 3697 1401 3706 1358 q 3681 1486 3689 1444 q 3665 1558 3672 1528 q 3657 1590 3658 1589 l 3639 1608 l 3417 1608 q 3383 1583 3401 1608 q 3347 1518 3365 1557 q 3313 1432 3329 1479 q 3283 1342 3296 1385 q 3260 1265 3269 1299 q 3250 1221 3251 1232 q 3240 1228 3247 1222 q 3232 1239 3233 1235 q 3213 1304 3221 1272 q 3198 1368 3206 1336 q 3181 1432 3190 1400 q 3158 1497 3172 1464 q 3150 1519 3156 1503 q 3139 1553 3144 1535 q 3128 1586 3133 1571 q 3122 1608 3124 1601 l 2899 1608 l 2881 1590 q 2883 1513 2885 1550 q 2876 1441 2881 1476 q 2866 1369 2871 1406 q 2861 1296 2861 1333 q 2871 1187 2861 1240 q 2881 1079 2881 1133 l 2881 1072 q 2873 1062 2879 1068 q 2863 1054 2867 1056 m 367 149 q 326 150 342 139 q 303 181 311 161 q 294 224 296 201 q 292 263 292 247 l 292 279 q 297 308 292 297 q 331 315 303 319 q 287 339 303 321 q 263 380 271 357 q 254 428 256 403 q 253 476 253 454 q 293 500 278 476 q 267 513 282 504 q 238 518 253 521 q 224 568 231 538 q 217 625 217 599 q 256 647 250 625 q 197 710 213 671 q 181 794 181 750 l 213 794 q 204 819 213 807 q 187 847 196 832 q 169 878 178 861 q 161 919 161 896 l 161 935 q 169 957 161 949 q 201 961 178 965 l 164 997 l 146 961 l 89 1221 l 304 1221 l 522 36 l 317 36 q 319 67 317 50 q 326 101 321 85 q 340 129 331 117 q 367 149 350 142 m 717 85 q 718 111 717 97 q 738 131 719 125 q 692 184 704 151 q 679 253 679 217 q 685 288 679 274 q 718 315 690 303 q 678 333 693 319 q 656 363 664 346 q 647 402 649 381 q 644 444 644 424 q 647 458 644 453 q 654 468 650 464 q 661 477 658 472 q 664 489 664 482 q 655 513 664 494 q 634 553 646 531 q 613 601 622 576 q 604 647 604 626 l 644 647 q 602 693 617 669 q 588 750 588 717 q 590 768 588 761 q 596 781 593 775 q 601 794 599 788 q 604 813 604 801 l 571 813 q 568 825 571 813 q 563 856 565 838 q 557 892 560 874 q 553 924 554 911 q 552 943 553 928 q 551 961 551 958 l 589 961 q 566 981 583 978 q 533 979 549 985 l 496 1203 q 495 1211 496 1206 q 494 1221 494 1217 l 922 1221 q 956 1206 939 1221 q 988 1169 972 1192 q 1017 1119 1003 1147 q 1041 1064 1031 1090 q 1058 1015 1051 1038 q 1068 979 1065 992 q 1081 896 1074 946 q 1093 799 1088 846 q 1103 719 1099 753 q 1107 685 1107 685 l 1032 536 l 1197 167 l 1149 167 l 1149 142 q 1171 131 1149 131 l 1181 131 q 1199 138 1183 132 q 1217 149 1214 144 l 1217 131 q 1223 110 1218 124 q 1234 83 1228 97 q 1247 55 1240 68 q 1256 36 1253 42 l 1089 36 q 1069 47 1079 36 q 1049 73 1058 58 q 1035 102 1040 88 q 1029 125 1029 117 q 1068 149 1061 125 q 1030 164 1053 160 q 996 185 1007 168 l 865 443 l 829 481 q 829 469 829 478 q 828 453 829 463 q 828 436 828 444 q 828 425 828 429 q 835 326 828 375 q 849 231 842 278 q 864 135 857 183 q 871 36 871 86 l 738 36 q 721 49 725 36 q 717 72 717 61 l 717 85 m 4563 56 q 4578 36 4578 56 q 4563 18 4578 18 q 4549 36 4549 18 q 4563 56 4549 56 m 1457 119 q 1458 126 1457 122 q 1458 131 1458 131 l 1476 149 q 1477 151 1476 149 q 1478 157 1478 154 q 1477 165 1478 163 q 1476 167 1476 167 q 1458 177 1472 169 q 1440 185 1443 185 q 1420 177 1433 185 q 1401 167 1407 169 q 1403 178 1403 168 q 1401 185 1403 183 l 1347 296 l 1347 306 l 1347 315 q 1356 333 1349 318 q 1365 351 1363 349 q 1348 362 1363 354 q 1328 369 1333 369 q 1309 362 1324 369 q 1292 351 1294 354 l 1292 500 l 1322 500 q 1315 526 1322 513 q 1297 554 1307 539 q 1280 588 1288 569 q 1272 631 1272 607 q 1278 649 1272 644 q 1292 656 1285 654 q 1305 661 1299 658 q 1311 675 1311 664 q 1310 681 1311 676 q 1310 685 1310 685 q 1292 695 1307 688 q 1274 703 1276 703 q 1273 724 1274 707 q 1272 750 1272 742 q 1276 776 1272 767 q 1283 792 1279 785 q 1290 806 1286 799 q 1293 824 1293 813 q 1287 845 1293 838 q 1272 861 1281 853 q 1258 881 1264 869 q 1251 913 1251 893 q 1276 1071 1251 994 q 1328 1221 1300 1147 q 1380 1225 1343 1222 q 1458 1231 1417 1228 q 1535 1237 1499 1235 q 1586 1239 1571 1239 q 1605 1237 1592 1239 q 1633 1231 1618 1235 q 1660 1225 1647 1228 q 1679 1221 1672 1222 l 1790 961 q 1801 933 1793 954 q 1808 906 1808 913 q 1818 775 1814 833 q 1825 662 1822 717 q 1828 551 1828 607 q 1829 428 1829 494 q 1826 388 1829 418 q 1815 315 1822 357 q 1799 228 1808 274 q 1780 144 1790 182 q 1758 81 1769 106 q 1735 56 1746 56 l 1494 56 q 1488 62 1493 56 q 1477 76 1483 68 q 1465 94 1471 85 q 1458 111 1460 104 q 1458 115 1458 111 q 1457 119 1457 118 m 1993 131 l 2025 131 q 2029 139 2025 133 q 2031 149 2033 144 q 2013 167 2026 153 q 1993 185 1999 182 l 1993 311 q 2031 333 2019 311 q 1997 360 2004 344 q 1990 400 1990 376 l 1990 425 l 1990 450 q 1997 490 1990 474 q 2031 518 2004 507 q 2001 540 2011 524 q 1987 577 1992 557 q 1981 616 1982 597 q 1981 647 1981 635 l 2007 647 q 2000 686 2007 672 q 1985 714 1993 700 q 1969 749 1976 728 q 1963 810 1963 769 q 1990 812 1978 810 q 2013 831 2001 814 q 1976 863 1979 842 q 1974 913 1974 885 q 1977 941 1974 931 q 1985 958 1981 951 q 1992 972 1989 965 q 1996 989 1996 978 q 1984 1013 1996 1006 q 1957 1021 1972 1021 l 1957 1221 l 2122 1221 q 2137 1174 2126 1206 q 2160 1101 2147 1142 q 2188 1017 2174 1061 q 2215 932 2203 972 q 2238 860 2228 892 q 2253 813 2249 828 q 2308 739 2263 772 q 2311 763 2308 750 q 2321 788 2314 776 q 2338 806 2328 799 q 2364 813 2349 813 q 2352 841 2361 825 q 2326 857 2343 857 l 2326 961 l 2364 979 q 2352 1008 2361 992 q 2326 1024 2343 1024 l 2326 1128 l 2364 1146 q 2317 1221 2317 1171 l 2493 1221 l 2493 1164 l 2463 1164 q 2458 1156 2463 1161 q 2456 1146 2454 1150 q 2474 1135 2460 1143 q 2493 1128 2488 1128 l 2493 997 l 2474 1017 l 2456 997 l 2493 961 l 2493 831 l 2474 851 l 2456 831 q 2479 813 2469 826 q 2495 783 2489 800 q 2504 749 2501 767 q 2507 715 2507 731 l 2507 685 l 2458 685 q 2464 655 2458 667 q 2493 643 2469 643 l 2493 56 l 2344 56 q 2333 66 2338 56 q 2327 90 2329 76 q 2324 115 2325 103 q 2324 131 2324 128 l 2342 131 q 2343 140 2342 133 q 2344 151 2344 147 q 2326 167 2344 167 q 2307 159 2321 167 q 2289 149 2293 151 q 2290 184 2292 167 q 2283 219 2288 201 q 2275 253 2279 236 q 2271 289 2271 271 q 2277 301 2271 296 q 2292 310 2283 306 q 2310 321 2301 315 q 2326 333 2319 326 l 2253 333 q 2248 347 2253 333 q 2237 381 2243 361 q 2224 424 2231 401 q 2217 461 2218 446 q 2213 478 2214 467 q 2213 494 2213 490 q 2253 518 2236 494 q 2244 528 2251 521 q 2235 536 2238 535 l 2224 536 l 2217 536 q 2197 528 2211 535 q 2178 518 2182 521 q 2181 535 2179 524 q 2181 558 2182 546 q 2175 579 2179 569 q 2160 592 2171 589 l 2142 574 l 2142 56 l 2013 56 l 1993 131 m 2957 157 q 2945 181 2957 175 q 2918 188 2933 188 l 2918 315 l 2953 315 q 2947 343 2953 332 q 2918 354 2942 354 l 2918 794 q 2940 813 2918 813 q 2958 810 2951 813 q 2971 808 2965 808 l 2971 838 q 2946 851 2971 851 l 2938 851 q 2918 842 2932 847 q 2899 831 2904 836 q 2917 863 2910 842 q 2929 906 2925 883 q 2935 949 2933 929 q 2938 979 2938 969 l 2964 979 q 2970 990 2964 985 q 2974 997 2976 994 q 2963 1003 2971 1000 q 2947 1010 2956 1007 q 2931 1015 2939 1013 q 2918 1017 2922 1017 l 2938 1146 l 2971 1146 q 2966 1176 2971 1164 q 2938 1188 2961 1188 l 2938 1221 l 3140 1221 l 3140 1182 l 3104 1182 l 3104 1149 q 3113 1147 3106 1149 q 3122 1146 3121 1146 q 3140 1154 3125 1147 q 3158 1164 3156 1161 l 3268 685 q 3276 682 3268 682 q 3297 696 3293 682 q 3307 721 3301 710 q 3313 740 3308 726 q 3324 767 3318 753 q 3335 793 3329 781 q 3343 813 3340 806 l 3381 794 l 3381 851 l 3360 851 q 3360 859 3360 854 q 3361 869 3361 864 q 3369 901 3363 882 q 3383 937 3376 919 q 3394 967 3389 954 q 3399 979 3399 979 l 3449 979 q 3452 990 3449 985 q 3453 997 3456 994 q 3437 1017 3450 1004 q 3417 1036 3424 1031 q 3423 1067 3418 1046 q 3435 1114 3428 1089 q 3452 1163 3443 1139 q 3472 1203 3461 1188 q 3483 1213 3476 1206 q 3492 1221 3489 1221 l 3657 1239 q 3667 1231 3661 1239 q 3676 1221 3674 1224 q 3680 1191 3678 1214 q 3682 1161 3682 1168 q 3656 1164 3667 1161 q 3639 1182 3646 1167 q 3628 1175 3635 1181 q 3619 1164 3621 1169 q 3619 1161 3619 1164 q 3618 1156 3618 1158 q 3619 1148 3618 1150 q 3619 1146 3619 1146 q 3638 1135 3625 1143 q 3657 1128 3651 1128 q 3658 1117 3657 1125 q 3658 1100 3658 1110 q 3659 1083 3658 1090 q 3660 1072 3660 1076 q 3660 1060 3660 1071 q 3660 1035 3661 1049 q 3655 1010 3660 1022 q 3639 997 3650 999 l 3619 1017 l 3601 997 q 3626 978 3608 981 q 3657 975 3644 975 l 3657 961 q 3655 912 3657 946 q 3649 840 3653 878 q 3643 769 3646 803 q 3639 721 3640 735 q 3636 689 3640 696 q 3624 683 3632 682 q 3606 690 3615 685 q 3586 696 3596 696 q 3584 678 3586 685 q 3582 667 3582 671 q 3585 657 3582 661 q 3601 647 3589 653 l 3657 703 q 3658 694 3657 701 q 3660 685 3660 688 q 3658 673 3660 679 q 3657 667 3657 667 q 3649 658 3657 665 q 3639 647 3640 650 q 3631 625 3636 640 q 3619 592 3625 610 q 3608 558 3613 574 q 3601 536 3603 542 l 3583 554 l 3565 536 q 3587 517 3569 519 q 3619 518 3604 514 l 3583 167 l 3547 167 q 3554 160 3549 165 q 3566 149 3560 156 q 3577 138 3572 143 q 3583 131 3582 132 l 3583 122 l 3583 111 q 3579 94 3582 104 q 3573 76 3576 85 q 3567 60 3569 67 q 3565 56 3565 54 l 3417 56 l 3417 143 q 3448 146 3429 143 q 3472 167 3467 149 l 3417 203 q 3417 231 3415 203 q 3422 297 3418 258 q 3428 376 3425 335 q 3435 443 3432 417 q 3442 477 3436 465 q 3453 498 3447 489 q 3463 517 3458 507 q 3467 549 3467 528 q 3399 528 3422 549 q 3363 476 3376 507 q 3338 406 3349 444 q 3307 333 3326 368 q 3296 349 3299 346 q 3290 353 3293 353 q 3284 351 3286 353 q 3275 349 3282 349 q 3281 313 3275 322 q 3288 286 3288 304 l 3288 278 q 3275 234 3283 261 q 3258 185 3267 207 q 3247 160 3250 168 q 3232 149 3243 151 q 3203 230 3214 186 q 3193 315 3193 274 l 3232 315 q 3206 339 3221 331 q 3176 351 3192 347 l 3122 554 l 3104 554 l 3083 443 l 3083 425 q 3081 351 3083 404 q 3076 240 3079 299 q 3069 129 3072 182 q 3065 56 3067 76 l 2903 56 q 2911 117 2903 103 q 2930 135 2919 132 q 2949 138 2940 138 q 2957 157 2957 139 m 3800 136 q 3805 159 3801 146 q 3799 171 3808 172 q 3779 190 3790 179 q 3768 203 3768 200 q 3780 280 3757 257 q 3835 303 3803 303 q 3840 319 3835 306 q 3842 333 3844 332 q 3824 342 3839 336 q 3804 351 3810 349 l 3804 357 l 3804 369 l 3842 518 l 3879 500 l 3879 507 q 3869 539 3879 526 q 3858 574 3858 551 q 3860 583 3858 576 q 3861 592 3861 590 q 3873 658 3864 613 q 3894 759 3882 703 q 3921 878 3907 815 q 3948 997 3935 940 q 3972 1098 3961 1053 q 3990 1164 3983 1143 q 3993 1178 3990 1169 q 3999 1195 3996 1186 q 4004 1211 4001 1204 q 4008 1221 4007 1218 q 4017 1231 4010 1224 q 4026 1239 4025 1239 l 4328 1239 l 4328 1033 q 4327 861 4328 950 q 4324 684 4326 772 q 4317 511 4321 596 q 4304 351 4313 426 l 4286 369 q 4276 361 4283 368 q 4268 351 4269 354 q 4267 349 4268 351 q 4267 342 4267 346 q 4267 335 4267 338 q 4268 333 4268 333 q 4285 323 4271 331 q 4304 315 4300 315 l 4304 56 l 4138 56 l 4138 89 q 4135 122 4138 106 q 4127 153 4133 139 q 4110 176 4121 167 q 4085 185 4100 185 l 4065 185 q 4040 183 4058 185 q 3999 177 4021 181 q 3959 171 3978 174 q 3935 167 3940 168 q 3910 113 3919 143 q 3899 56 3901 82 l 3746 56 q 3747 97 3746 81 q 3753 122 3749 113 q 3769 133 3758 131 q 3800 136 3781 136 m 4508 167 q 4475 188 4481 179 q 4469 219 4469 197 q 4470 231 4469 224 q 4471 240 4471 239 q 4475 267 4472 251 q 4481 298 4478 283 q 4486 323 4483 313 q 4489 333 4489 333 l 4526 333 q 4506 383 4506 354 l 4506 433 l 4506 446 q 4507 466 4506 456 q 4508 486 4508 476 l 4508 500 q 4525 518 4514 518 q 4531 517 4528 518 q 4544 515 4535 515 l 4544 554 l 4524 554 q 4525 585 4524 560 q 4532 635 4526 611 q 4549 673 4538 660 q 4582 667 4561 686 q 4547 692 4551 679 q 4543 725 4543 706 q 4544 752 4543 735 q 4548 787 4546 769 q 4554 817 4550 804 q 4563 831 4558 831 l 4601 831 q 4588 854 4593 839 q 4579 887 4582 869 q 4576 922 4576 904 q 4575 951 4575 939 l 4575 979 l 4635 979 q 4629 1010 4635 999 q 4600 1021 4624 1021 q 4602 1070 4600 1042 q 4607 1127 4604 1099 q 4613 1181 4610 1156 q 4619 1221 4617 1206 q 4656 1231 4640 1226 q 4687 1237 4672 1235 q 4716 1240 4701 1239 q 4750 1240 4731 1240 l 4779 1240 q 4804 1221 4803 1240 l 4860 758 l 4878 758 q 4887 783 4878 765 q 4907 817 4896 800 q 4914 832 4911 828 q 4932 836 4917 836 q 4953 831 4947 836 q 4933 878 4935 858 q 4931 924 4931 897 q 4932 951 4931 933 q 4940 983 4933 968 q 4958 1003 4946 997 q 4989 997 4969 1010 q 4967 1013 4981 999 q 4953 1036 4954 1028 q 4955 1063 4953 1038 q 4965 1117 4957 1089 q 4988 1162 4974 1144 q 5025 1164 5001 1179 q 5013 1196 5022 1183 q 4986 1208 5003 1208 q 4987 1211 4986 1208 q 4989 1221 4988 1214 q 4998 1231 4990 1224 q 5007 1239 5006 1239 l 5185 1239 l 4953 131 q 4946 110 4950 124 q 4938 85 4942 96 q 4928 68 4936 78 q 4914 56 4921 58 l 4786 56 q 4775 63 4781 56 q 4768 74 4769 71 q 4767 92 4768 79 q 4764 120 4765 106 q 4761 147 4763 135 q 4760 167 4760 160 l 4804 167 q 4777 188 4788 172 q 4760 222 4767 203 q 4752 261 4754 240 q 4750 299 4750 282 q 4747 333 4750 331 q 4743 378 4746 347 q 4737 444 4740 410 q 4731 509 4733 478 q 4729 554 4729 540 q 4722 557 4728 556 q 4711 558 4715 558 q 4686 539 4694 558 q 4673 492 4678 519 q 4664 434 4668 465 q 4653 380 4660 403 q 4635 347 4647 357 q 4601 351 4624 338 q 4635 322 4632 340 q 4639 281 4639 304 q 4628 178 4639 226 q 4601 74 4618 131 q 4560 76 4578 78 q 4524 68 4542 74 q 4488 58 4506 63 q 4449 53 4469 53 q 4450 90 4449 71 q 4458 124 4451 108 q 4476 151 4464 139 q 4508 167 4488 163 m 4360 111 q 4368 103 4368 107 q 4359 93 4368 96 q 4350 103 4350 90 q 4360 111 4350 113 m 807 149 q 829 111 807 122 l 829 149 l 807 149 m 458 167 l 458 131 l 478 131 l 458 167 m 2435 167 q 2456 131 2435 139 l 2456 167 l 2435 167 m 958 167 q 974 149 974 167 q 958 131 974 131 q 943 149 943 131 q 958 167 943 167 m 1568 185 l 1568 146 q 1604 167 1596 146 l 1568 185 m 1735 185 q 1714 149 1714 176 l 1753 149 l 1735 185 m 2086 167 q 2094 157 2088 164 q 2104 149 2101 150 q 2108 148 2104 149 q 2114 147 2111 147 q 2119 148 2117 147 q 2122 149 2121 149 q 2115 158 2121 151 q 2104 167 2108 165 q 2101 167 2104 167 q 2094 168 2097 168 q 2090 167 2092 168 q 2086 167 2088 167 m 3029 167 l 3029 149 l 3047 149 l 3047 167 l 3029 167 m 3861 167 q 3869 157 3863 164 q 3879 149 3875 150 q 3883 148 3879 149 q 3888 147 3886 147 q 3893 148 3890 147 q 3899 149 3896 149 l 3879 185 l 3861 167 m 4342 167 q 4350 157 4350 164 q 4341 147 4350 151 q 4332 154 4332 143 q 4342 167 4332 168 m 4157 185 l 4157 167 l 4175 167 l 4157 185 m 4268 203 l 4268 167 l 4289 167 q 4268 203 4289 194 m 4582 203 l 4582 167 l 4601 167 l 4582 203 m 4932 185 q 4918 167 4918 185 q 4932 149 4918 149 q 4947 167 4947 149 q 4932 185 4947 185 m 4914 203 l 4896 185 l 4914 185 l 4914 203 m 3639 221 q 3629 214 3635 214 q 3619 222 3621 214 q 3629 231 3618 231 q 3639 221 3640 231 m 1440 889 l 1440 869 l 1458 628 q 1460 596 1458 624 q 1467 529 1463 568 q 1481 445 1472 490 q 1503 363 1489 400 q 1535 300 1517 325 q 1579 275 1554 275 q 1605 290 1593 275 q 1625 326 1617 306 q 1638 367 1633 347 q 1643 394 1643 386 q 1635 604 1643 501 q 1628 813 1628 707 l 1647 813 q 1632 856 1647 825 q 1594 918 1617 886 q 1547 974 1572 950 q 1504 999 1522 999 q 1489 998 1499 999 q 1476 997 1479 997 q 1468 978 1474 990 q 1457 951 1463 965 q 1447 924 1451 938 q 1440 906 1442 911 l 1440 889 m 2197 296 q 2206 286 2206 293 q 2197 277 2206 279 q 2188 286 2188 275 q 2197 296 2188 300 m 401 336 q 443 292 401 292 q 401 336 443 336 m 774 315 q 814 292 790 292 q 792 333 814 319 l 774 315 m 957 324 q 958 318 957 321 q 958 315 958 315 q 967 304 960 310 q 976 296 974 299 q 978 301 976 299 q 979 306 979 303 q 978 311 979 307 q 976 315 976 315 q 968 325 975 318 q 958 333 961 332 q 958 328 958 332 q 957 324 957 325 m 1065 333 q 1089 296 1065 307 l 1089 333 l 1065 333 m 1661 351 l 1661 315 l 1683 315 q 1661 351 1683 343 m 1771 333 l 1790 315 l 1790 351 l 1771 333 m 2086 351 l 2086 311 q 2122 333 2114 311 q 2115 343 2121 336 q 2104 351 2108 350 q 2101 352 2104 351 q 2094 353 2097 353 q 2090 352 2092 353 q 2086 351 2088 351 m 2456 351 q 2435 315 2435 343 l 2456 315 l 2456 351 m 3029 333 l 3029 315 l 3047 315 l 3047 333 l 3029 333 m 3453 369 l 3453 315 q 3465 323 3458 315 q 3472 333 3472 331 q 3465 352 3472 338 q 3453 369 3458 367 m 3565 351 l 3565 315 l 3586 315 q 3565 351 3586 343 m 3917 333 q 3925 324 3918 331 q 3935 315 3932 317 q 3938 315 3935 315 q 3943 314 3940 314 q 3949 315 3946 314 q 3953 315 3951 315 q 3944 325 3951 318 q 3935 333 3938 332 q 3931 334 3935 333 q 3924 335 3928 335 q 3920 334 3922 335 q 3917 333 3918 333 m 4026 333 l 4046 315 l 4065 333 l 4026 333 m 1435 372 q 1458 333 1435 346 l 1476 351 q 1435 372 1465 372 m 2178 351 l 2197 333 l 2178 333 l 2178 351 m 3122 351 q 3138 333 3138 351 q 3122 315 3138 315 q 3107 333 3107 315 q 3122 351 3107 351 m 4138 351 l 4138 333 l 4175 333 q 4167 343 4174 336 q 4157 351 4160 350 q 4153 352 4157 351 q 4147 353 4150 353 q 4142 352 4144 353 q 4138 351 4139 351 m 4768 369 l 4768 351 l 4786 351 l 4768 369 m 4932 369 l 4932 351 l 4971 351 q 4963 361 4969 354 q 4953 369 4956 368 q 4949 370 4953 369 q 4943 371 4944 371 q 4938 370 4940 371 q 4932 369 4936 369 m 3122 388 q 3138 369 3138 388 q 3122 351 3138 351 q 3107 369 3107 351 q 3122 388 3107 388 m 3976 388 l 4119 388 q 4129 395 4122 388 q 4138 407 4136 403 q 4142 428 4139 413 q 4149 463 4146 444 q 4155 496 4153 481 q 4157 518 4157 511 l 4178 518 q 4177 527 4178 519 q 4175 536 4176 535 q 4165 545 4174 538 q 4157 554 4157 553 q 4158 576 4157 560 q 4160 610 4160 593 q 4163 644 4161 628 q 4164 667 4164 660 l 4175 667 l 4175 703 l 4157 703 l 4157 813 l 4178 813 q 4162 865 4178 839 q 4119 890 4146 890 q 4092 883 4097 890 q 4083 851 4088 875 l 3976 388 m 385 507 q 385 503 385 506 q 386 500 386 500 q 394 489 388 494 q 404 481 401 483 q 405 485 404 483 q 406 489 406 488 q 405 496 406 492 q 404 500 404 500 q 396 510 403 503 q 386 518 389 517 q 385 514 386 517 q 385 507 385 511 m 756 518 l 756 481 l 776 481 q 756 518 776 506 m 864 507 q 865 503 864 506 q 865 500 865 500 q 874 489 867 494 q 883 481 881 483 l 904 500 l 865 518 q 865 514 865 517 q 864 507 864 511 m 976 518 l 976 500 l 1014 500 q 1006 510 1013 503 q 996 518 999 517 q 992 519 996 518 q 985 519 988 519 q 981 519 983 519 q 976 518 979 518 m 1400 525 q 1401 521 1400 524 q 1401 518 1401 518 q 1410 508 1403 514 q 1419 500 1417 501 l 1440 518 l 1401 536 q 1401 532 1401 535 q 1400 525 1400 529 m 1660 536 q 1662 514 1660 524 q 1679 500 1664 504 l 1679 507 l 1679 518 q 1671 536 1678 521 q 1661 554 1664 551 q 1660 546 1661 553 q 1660 536 1660 539 m 1769 525 q 1770 521 1769 524 q 1771 518 1771 518 q 1779 508 1772 514 q 1790 500 1786 501 q 1801 507 1794 500 q 1808 518 1808 514 q 1801 537 1808 522 q 1790 554 1794 551 q 1779 546 1786 553 q 1771 536 1772 539 q 1770 533 1771 536 q 1769 525 1769 529 m 2086 518 l 2104 500 l 2104 518 l 2086 518 m 2456 536 l 2456 500 l 2478 500 q 2456 536 2478 525 m 2932 539 q 2956 500 2932 511 l 2974 518 q 2932 539 2963 539 m 3029 518 l 3047 500 l 3047 536 l 3029 518 m 3157 525 q 3158 521 3157 524 q 3158 518 3158 518 q 3167 508 3160 514 q 3176 500 3174 501 q 3177 503 3176 501 q 3178 507 3178 506 q 3177 515 3178 511 q 3176 518 3176 518 q 3168 528 3175 521 q 3158 536 3161 535 q 3158 532 3158 535 q 3157 525 3157 529 m 3950 536 q 3971 500 3950 510 l 3971 536 l 3950 536 m 3325 536 l 3325 518 l 3343 518 l 3343 536 l 3325 536 m 3435 536 q 3450 518 3450 536 q 3435 500 3450 500 q 3419 518 3419 500 q 3435 536 3419 536 m 4268 536 l 4286 518 l 4286 536 l 4268 536 m 4638 536 l 4638 518 l 4656 518 l 4638 536 m 4768 554 l 4768 518 l 4786 518 l 4768 554 m 4971 536 l 4989 518 l 4989 536 l 4971 536 m 347 657 q 348 651 347 654 q 349 647 349 647 q 356 637 350 643 q 367 628 363 631 q 368 633 367 631 q 369 639 369 636 q 368 644 369 640 q 367 647 367 647 q 359 658 365 651 q 349 667 353 665 q 348 662 349 665 q 347 657 347 658 m 714 669 q 738 628 714 644 l 756 647 q 714 669 740 669 m 922 667 l 940 647 l 958 667 l 940 685 l 922 667 m 1050 685 l 1050 647 l 1074 647 q 1050 685 1074 672 m 3360 675 q 3360 669 3360 672 q 3361 667 3361 667 q 3370 656 3364 661 q 3381 647 3376 650 q 3381 652 3381 650 q 3382 657 3382 654 q 3381 663 3382 658 q 3381 667 3381 667 q 3372 676 3379 669 q 3361 685 3365 683 q 3360 680 3361 683 q 3360 675 3360 676 m 774 685 q 783 669 775 674 q 802 664 792 665 q 823 664 813 663 q 839 665 833 665 q 862 666 844 665 q 883 667 879 667 q 910 731 903 693 q 922 794 917 768 l 944 794 q 943 804 944 799 q 940 813 942 810 q 933 818 939 813 q 920 830 926 824 q 909 842 914 836 q 904 851 904 849 q 877 924 888 889 q 851 984 867 958 q 809 1025 836 1010 q 731 1040 782 1040 q 735 951 731 999 q 746 856 739 903 q 760 764 753 808 q 774 685 767 719 m 1383 685 l 1383 667 l 1419 667 q 1413 676 1418 669 q 1401 685 1407 683 q 1399 685 1401 685 q 1394 686 1396 686 q 1388 685 1390 686 q 1383 685 1385 685 m 1643 703 l 1643 667 l 1664 667 q 1643 703 1664 692 m 1771 703 l 1771 667 l 1790 667 l 1790 703 l 1771 703 m 2235 703 q 2213 667 2213 692 l 2256 667 q 2235 703 2256 692 m 2344 703 q 2324 667 2324 692 l 2367 667 q 2344 703 2367 693 m 2956 685 l 2956 667 l 2974 667 l 2974 685 l 2956 685 m 3196 685 q 3235 661 3211 661 q 3214 703 3235 692 l 3196 685 m 3899 685 l 3899 667 l 3917 667 l 3899 685 m 3990 685 l 3990 667 l 4008 667 l 4008 685 l 3990 685 m 4822 703 l 4822 667 l 4844 667 q 4822 703 4844 692 m 4286 703 l 4286 685 l 4304 685 l 4286 703 m 4896 703 q 4904 693 4897 700 q 4914 685 4911 686 q 4918 684 4914 685 q 4925 683 4922 683 q 4928 684 4926 683 q 4932 685 4931 685 q 4925 694 4931 688 q 4914 703 4919 701 q 4911 703 4914 703 q 4907 704 4908 704 q 4900 703 4903 704 q 4896 703 4897 703 m 5007 703 q 5015 693 5008 700 q 5025 685 5022 686 q 5029 684 5025 685 q 5036 683 5033 683 q 5040 684 5038 683 q 5044 685 5043 685 q 5036 694 5043 688 q 5025 703 5029 701 q 5022 703 5025 703 q 5017 704 5019 704 q 5011 703 5014 704 q 5007 703 5008 703 m 1938 739 q 1953 721 1953 739 q 1938 703 1953 703 q 1922 721 1922 703 q 1938 739 1922 739 m 311 813 l 311 794 l 349 794 q 340 805 347 799 q 331 813 333 811 q 327 813 331 813 q 319 814 324 814 q 315 813 318 814 q 311 813 313 813 m 700 813 l 700 794 l 718 794 l 718 813 l 700 813 m 1050 851 q 1029 813 1029 839 l 1068 813 l 1050 851 m 1383 851 l 1383 813 l 1407 813 q 1383 851 1407 839 m 2178 831 q 2219 810 2192 810 q 2197 851 2219 838 l 2178 831 m 3176 851 l 3176 813 l 3199 813 q 3176 851 3199 838 m 3601 851 l 3601 813 l 3619 813 l 3619 851 l 3601 851 m 3935 831 l 3935 813 l 3953 813 l 3953 831 l 3935 831 m 4026 831 l 4046 813 l 4046 831 l 4026 831 m 1771 869 q 1750 831 1750 857 l 1790 831 l 1771 869 m 4286 851 l 4286 831 l 4304 831 l 4286 851 m 4786 851 l 4804 831 l 4804 851 l 4786 851 m 5063 869 l 5063 831 l 5081 851 l 5063 869 m 274 979 q 283 969 276 976 q 293 961 289 963 q 297 960 293 961 q 301 960 300 960 q 308 960 306 960 q 311 961 310 961 q 303 971 310 964 q 293 979 297 978 q 290 980 293 979 q 283 981 286 981 q 279 980 282 981 q 274 979 276 979 m 681 997 l 681 961 l 700 961 l 681 997 m 922 979 l 922 961 l 940 961 l 940 979 l 922 979 m 1011 997 q 1032 961 1011 971 l 1032 997 l 1011 997 m 1419 1017 l 1419 979 l 1443 979 q 1419 1017 1443 1006 m 1568 1017 q 1581 986 1572 999 q 1610 974 1590 974 q 1603 1004 1610 989 q 1579 1019 1596 1019 q 1572 1018 1575 1019 q 1568 1017 1569 1017 m 1715 1007 q 1716 1001 1715 1006 q 1717 997 1717 997 q 1725 988 1718 994 q 1735 979 1732 981 q 1735 984 1735 981 q 1736 989 1736 988 q 1735 994 1736 992 q 1735 997 1735 997 q 1726 1008 1733 1003 q 1717 1017 1719 1014 q 1716 1012 1717 1014 q 1715 1007 1715 1010 m 2122 997 q 2164 976 2135 976 q 2142 1017 2164 1003 l 2122 997 m 3140 1017 l 3140 979 l 3161 979 q 3140 1017 3161 1006 m 3971 997 l 3971 979 l 3990 979 l 3971 997 m 4119 997 q 4128 988 4121 994 q 4138 979 4135 981 q 4141 978 4138 979 q 4147 978 4144 978 q 4152 978 4150 978 q 4157 979 4154 979 q 4148 990 4154 985 q 4138 997 4142 996 q 4134 998 4138 997 q 4128 999 4131 999 q 4124 998 4126 999 q 4119 997 4121 997 m 4268 997 l 4268 979 l 4286 979 l 4286 997 l 4268 997 m 1292 1017 l 1292 997 l 1328 997 q 1320 1008 1326 1003 q 1310 1017 1314 1014 q 1306 1018 1310 1017 q 1301 1019 1303 1019 q 1295 1018 1297 1019 q 1292 1017 1293 1017 m 4768 1017 l 4768 997 l 4786 997 l 4768 1017 m 5081 1017 l 5099 997 l 5099 1036 l 5081 1017 m 146 1164 l 146 1128 l 167 1128 q 146 1164 167 1156 m 256 1164 l 256 1128 l 278 1128 q 256 1164 278 1156 m 533 1164 l 533 1128 l 556 1128 q 533 1164 556 1156 m 644 1146 l 644 1128 l 663 1128 l 663 1146 l 644 1146 m 792 1146 l 792 1128 l 810 1128 l 810 1146 l 792 1146 m 917 1169 q 940 1128 917 1140 l 958 1146 q 917 1169 942 1169 m 1549 1156 q 1549 1150 1549 1154 q 1550 1146 1550 1146 q 1558 1136 1551 1143 q 1568 1128 1565 1129 q 1569 1132 1568 1129 q 1569 1136 1569 1135 q 1569 1143 1569 1140 q 1568 1146 1568 1146 q 1560 1156 1567 1150 q 1550 1164 1553 1163 q 1549 1160 1550 1163 q 1549 1156 1549 1158 m 4378 1146 q 4393 1128 4393 1146 q 4378 1110 4393 1110 q 4364 1128 4364 1110 q 4378 1146 4364 1146 m 1347 1164 l 1347 1146 l 1365 1146 l 1347 1164 m 1458 1164 l 1458 1146 l 1476 1146 l 1476 1164 l 1458 1164 m 1643 1164 q 1651 1154 1644 1161 q 1661 1146 1657 1147 q 1664 1145 1661 1146 q 1671 1144 1667 1144 q 1675 1145 1672 1144 q 1679 1146 1678 1146 q 1671 1156 1678 1150 q 1661 1164 1664 1163 q 1658 1165 1661 1164 q 1653 1165 1654 1165 q 1647 1165 1649 1165 q 1643 1164 1644 1164 m 1975 1164 l 1975 1146 l 1993 1146 l 1993 1164 l 1975 1164 m 2086 1164 q 2094 1154 2088 1161 q 2104 1146 2101 1147 q 2108 1145 2104 1146 q 2114 1144 2111 1144 q 2119 1145 2117 1144 q 2122 1146 2121 1146 q 2115 1156 2121 1150 q 2104 1164 2108 1163 q 2101 1165 2104 1164 q 2094 1165 2097 1165 q 2090 1165 2092 1165 q 2086 1164 2088 1164 m 3492 1182 q 3468 1146 3468 1174 l 3510 1146 l 3492 1182 m 4008 1164 l 4008 1146 l 4046 1146 q 4037 1156 4043 1150 q 4026 1164 4031 1163 q 4024 1165 4026 1164 q 4017 1165 4021 1165 q 4013 1165 4015 1165 q 4008 1164 4010 1164 m 4138 1164 q 4175 1143 4147 1143 l 4175 1164 l 4138 1164 m 4286 1182 l 4286 1164 l 4304 1164 l 4286 1182 m 4638 1182 l 4638 1164 l 4656 1164 l 4638 1182 m 4768 1182 l 4768 1164 l 4786 1164 l 4768 1182 m 5117 1182 l 5138 1164 l 5138 1203 l 5117 1182 m 4378 1203 q 4393 1182 4393 1203 q 4378 1164 4393 1164 q 4364 1182 4364 1164 q 4378 1203 4364 1203 m 1919 1276 q 1935 1257 1935 1276 q 1919 1239 1935 1239 q 1904 1257 1904 1239 q 1919 1276 1904 1276 z "},"%":{"ha":1381,"x_min":69,"x_max":1314,"o":"m 478 1425 q 347 1326 407 1385 q 239 1200 286 1267 l 303 1165 q 69 958 181 1078 q 84 892 69 925 q 117 829 99 858 q 142 824 122 819 l 297 858 q 304 875 304 861 l 304 913 q 493 1015 396 972 q 690 1106 590 1058 q 468 854 576 981 q 275 585 360 728 q 278 556 264 564 q 599 446 415 483 q 382 278 536 349 q 230 215 303 242 q 82 165 157 188 l 82 26 l 1311 26 l 1311 135 q 1167 183 1225 164 q 1067 228 1110 203 q 989 290 1024 253 q 915 392 954 326 l 1061 389 q 1230 662 1171 536 q 1296 897 1289 788 q 1215 1254 1314 1111 q 943 1451 1117 1394 q 772 1486 856 1479 q 608 1476 689 1493 l 428 1503 l 478 1425 z "},"&":{"ha":2033,"x_min":69,"x_max":1964,"o":"m 69 944 q 102 699 69 818 q 194 474 135 579 q 338 281 254 369 q 523 130 421 193 q 743 32 625 67 q 989 -3 861 -3 q 1367 69 1190 -3 q 1677 267 1544 140 q 1887 567 1810 393 q 1964 944 1964 740 q 1929 1194 1964 1074 q 1832 1421 1894 1315 q 1682 1613 1769 1526 q 1490 1762 1594 1700 q 1265 1858 1385 1824 q 1017 1892 1144 1892 q 766 1858 886 1892 q 540 1762 646 1824 q 348 1613 435 1700 q 199 1421 261 1526 q 103 1194 138 1315 q 69 944 69 1074 m 150 944 q 217 1292 150 1133 q 401 1565 283 1450 q 680 1744 519 1679 q 1028 1808 840 1808 q 1361 1742 1206 1808 q 1632 1560 1517 1675 q 1814 1289 1747 1444 q 1881 956 1881 1133 q 1815 606 1881 767 q 1635 328 1750 446 q 1361 144 1519 211 q 1017 78 1203 78 q 667 142 826 78 q 394 322 508 207 q 215 595 279 436 q 150 944 150 754 m 572 361 q 678 294 625 321 q 785 250 731 267 q 899 226 840 233 q 1025 219 958 219 q 1256 253 1151 219 q 1461 361 1361 286 l 572 361 m 292 922 q 303 792 292 858 q 338 662 314 725 q 399 542 361 599 q 489 444 436 486 l 489 1444 q 394 1340 432 1401 q 334 1207 357 1278 q 301 1063 311 1136 q 292 922 292 989 m 1031 1669 l 983 1669 q 923 1668 956 1669 q 862 1663 890 1667 q 814 1653 833 1658 q 794 1639 794 1647 l 794 667 l 1683 667 q 1707 685 1697 667 q 1723 732 1717 704 q 1733 794 1729 760 q 1739 859 1738 828 q 1741 913 1740 890 q 1742 944 1742 936 q 1686 1222 1742 1090 q 1534 1453 1631 1353 q 1308 1611 1438 1553 q 1031 1669 1178 1669 m 1267 806 q 1256 802 1264 807 q 1239 792 1247 797 q 1222 781 1231 786 q 1211 778 1214 776 q 1201 787 1208 781 q 1183 806 1194 793 q 1162 828 1171 821 q 1144 838 1153 835 q 1129 842 1136 840 q 1114 847 1122 843 q 1091 906 1114 879 q 1044 944 1068 933 q 1060 956 1051 947 q 1072 972 1069 965 l 1072 986 l 1072 1000 q 1060 1028 1069 1007 q 1044 1056 1051 1049 q 1087 1075 1067 1058 q 1123 1114 1107 1092 q 1149 1161 1139 1136 q 1158 1206 1158 1186 q 1141 1303 1158 1256 q 1099 1395 1124 1351 q 1044 1479 1074 1439 q 989 1556 1014 1519 l 989 1583 q 1059 1508 1026 1550 q 1124 1421 1092 1465 q 1191 1334 1157 1376 q 1263 1258 1225 1292 q 1346 1203 1301 1224 q 1444 1183 1390 1183 q 1460 1139 1444 1158 q 1494 1100 1475 1119 q 1528 1057 1513 1081 q 1544 1000 1544 1033 q 1531 923 1544 953 q 1497 873 1518 893 q 1450 840 1476 853 q 1399 816 1424 828 q 1354 789 1375 804 q 1322 750 1333 774 q 1314 765 1321 756 q 1299 782 1307 774 q 1281 797 1290 790 q 1267 806 1272 804 m 961 1639 q 983 1611 983 1639 q 961 1583 983 1583 q 939 1611 939 1583 q 961 1639 939 1639 z "},"'":{"ha":1683,"x_min":64,"x_max":1619,"o":"m 965 1007 l 981 1040 q 1308 1297 1188 1107 q 1328 1183 1319 1233 q 1333 1081 1338 1133 q 1289 1021 1332 1046 q 1228 992 1263 1004 q 1149 968 1193 979 q 965 1007 1063 944 m 714 1007 q 531 968 617 944 q 455 991 490 979 q 392 1021 419 1003 q 347 1081 350 1044 q 351 1183 342 1133 q 371 1297 361 1233 q 700 1040 492 1107 l 714 1007 m 789 899 l 789 706 l 739 706 q 733 803 717 761 q 789 899 749 844 m 893 899 q 937 826 921 857 q 953 758 953 796 q 950 733 953 744 q 942 706 947 721 l 893 706 l 893 899 m 1240 1706 q 439 1706 839 1761 q 269 1642 342 1690 q 151 1526 197 1594 q 84 1376 104 1458 q 72 1209 64 1294 q 115 1042 79 1124 q 215 893 150 960 l 135 747 l 250 619 q 410 621 369 681 q 454 506 454 565 l 454 25 l 571 25 l 571 501 l 592 501 l 592 25 l 699 25 l 699 501 l 722 501 l 722 25 l 829 25 l 829 501 l 850 501 l 850 25 l 958 25 l 958 501 l 981 501 l 981 25 l 1089 25 l 1089 501 l 1110 501 l 1110 25 l 1226 25 l 1226 506 q 1269 621 1226 568 q 1432 619 1310 678 l 1544 747 l 1468 893 q 1569 1042 1533 960 q 1613 1208 1606 1124 q 1599 1375 1619 1293 q 1531 1524 1578 1457 q 1410 1640 1483 1592 q 1240 1706 1338 1689 z "},"(":{"ha":4331,"x_min":69,"x_max":4261,"o":"m 938 1836 l 69 0 l 396 0 l 657 503 l 889 503 l 889 349 l 1942 349 q 1951 356 1944 349 q 1964 368 1957 364 q 1969 378 1965 369 q 1976 395 1972 386 q 1984 413 1981 404 q 1990 425 1988 422 l 1990 349 l 2214 349 q 2222 369 2215 354 q 2233 386 2228 383 l 2240 386 q 2290 380 2256 386 q 2355 360 2324 374 q 2404 324 2386 346 q 2407 271 2422 301 l 2600 338 l 3239 338 l 3276 386 l 3296 349 l 3799 349 q 3876 385 3846 349 q 3923 470 3906 421 q 3947 572 3940 519 q 3954 657 3954 624 q 3953 689 3954 668 q 3953 717 3953 710 q 3951 749 3953 724 q 3944 809 3949 775 q 3936 881 3940 843 q 3927 953 3932 919 q 3919 1012 3922 988 q 3914 1043 3915 1036 q 3915 1069 3914 1054 q 3915 1097 3915 1083 q 3916 1121 3915 1111 q 3917 1131 3917 1131 l 4089 1131 q 4097 1140 4090 1131 q 4107 1160 4104 1150 l 4126 1219 l 4167 1374 l 3779 1374 q 3751 1360 3772 1367 q 3719 1354 3729 1354 q 3707 1356 3715 1354 q 3690 1361 3699 1358 q 3673 1367 3681 1364 q 3664 1374 3665 1371 l 2621 1374 q 2590 1360 2606 1367 q 2561 1339 2575 1353 q 2540 1320 2551 1331 q 2517 1301 2528 1310 q 2497 1286 2506 1293 q 2485 1276 2489 1279 l 2485 1286 l 2485 1296 q 2488 1312 2485 1301 q 2493 1334 2490 1322 q 2499 1357 2496 1346 q 2504 1374 2501 1368 l 2272 1374 l 2233 1333 l 2214 1374 l 1440 1374 q 1432 1365 1439 1374 q 1422 1354 1425 1357 q 1407 1333 1417 1349 q 1392 1314 1397 1318 l 1392 1381 l 1190 1381 l 1190 1836 l 938 1836 m 976 1778 l 1113 1778 l 1113 735 q 1093 753 1106 740 q 1065 781 1081 765 q 1032 813 1049 796 q 1001 842 1015 829 q 966 881 981 865 q 947 908 951 897 l 947 1276 l 676 735 l 938 735 l 958 774 l 1074 657 l 976 561 l 619 561 l 357 58 l 165 58 l 976 1778 m 2288 522 q 2288 533 2288 526 q 2288 551 2288 542 q 2290 569 2289 561 q 2290 581 2290 576 l 2407 1006 q 2445 1098 2422 1057 q 2504 1179 2468 1139 q 2539 1217 2517 1194 q 2583 1262 2561 1240 q 2622 1299 2606 1283 q 2639 1314 2638 1314 l 2874 1314 q 2869 1267 2874 1290 q 2853 1219 2864 1243 q 2742 1204 2796 1228 q 2645 1140 2689 1181 q 2569 1049 2601 1100 q 2522 947 2538 997 q 2503 883 2517 929 q 2474 783 2490 836 q 2445 684 2458 731 q 2426 619 2432 638 q 2425 610 2426 617 q 2424 600 2424 604 q 2451 555 2424 571 q 2506 539 2478 539 q 2552 572 2535 539 q 2579 649 2569 604 q 2592 740 2589 694 q 2596 811 2596 786 l 2576 811 q 2588 894 2576 865 q 2624 937 2600 924 q 2686 952 2649 950 q 2775 954 2724 954 l 2775 928 l 2639 425 q 2627 410 2635 414 q 2600 399 2619 407 q 2575 390 2589 394 q 2547 381 2561 385 q 2522 373 2533 376 q 2504 368 2510 369 q 2496 367 2500 368 q 2488 365 2492 365 q 2473 397 2488 389 q 2436 407 2458 404 q 2388 410 2414 410 q 2339 421 2361 411 q 2302 453 2317 431 q 2288 522 2288 476 m 976 425 l 1113 561 l 1113 407 l 976 407 l 976 425 m 1208 1314 l 1333 1314 l 1333 928 q 1356 996 1339 946 q 1394 1102 1374 1046 q 1434 1208 1415 1158 q 1461 1276 1453 1257 q 1471 1300 1464 1286 q 1479 1314 1478 1314 l 1600 1314 l 1344 425 q 1335 414 1342 421 q 1325 407 1328 407 q 1303 406 1319 407 q 1267 403 1286 404 q 1231 400 1247 401 q 1208 399 1214 399 l 1208 1314 m 1410 407 l 1671 1314 l 1965 1314 q 1965 1305 1965 1311 q 1964 1296 1964 1299 q 1956 1262 1961 1283 q 1946 1226 1950 1240 q 1942 1208 1942 1211 l 1788 1208 l 1769 1179 q 1760 1154 1767 1178 q 1743 1100 1753 1131 q 1724 1038 1733 1069 q 1711 988 1715 1006 q 1712 967 1710 978 q 1714 957 1714 957 l 1851 957 l 1851 946 q 1851 908 1851 933 q 1847 871 1850 883 q 1842 853 1844 864 q 1836 834 1839 843 q 1831 818 1833 825 q 1828 811 1829 811 l 1671 811 q 1658 787 1665 803 q 1642 736 1650 771 q 1630 694 1638 718 q 1615 648 1622 671 q 1602 607 1608 625 q 1594 581 1596 589 l 1594 569 q 1613 543 1594 550 q 1657 534 1632 536 q 1708 531 1682 532 q 1749 522 1733 529 q 1745 499 1749 518 q 1735 460 1742 481 q 1718 423 1729 439 q 1693 407 1707 407 l 1410 407 m 1783 407 l 2031 1314 l 2165 1314 l 2165 947 l 2196 947 q 2214 1012 2200 965 q 2243 1111 2228 1058 q 2272 1210 2258 1164 q 2290 1276 2285 1257 q 2301 1300 2294 1286 q 2310 1314 2307 1314 l 2426 1314 q 2401 1224 2418 1285 q 2362 1088 2383 1164 q 2317 927 2340 1011 q 2274 767 2294 843 q 2237 631 2253 692 q 2214 540 2221 569 q 2206 507 2210 529 q 2194 461 2201 485 q 2173 420 2186 438 q 2138 403 2160 403 q 2127 405 2135 403 q 2118 407 2119 407 q 2098 411 2110 408 q 2075 417 2086 414 q 2056 422 2064 419 q 2049 425 2049 425 l 2049 811 l 2019 793 l 1904 407 l 1783 407 m 2700 407 l 2960 1314 l 3257 1314 q 3240 1265 3247 1289 q 3218 1219 3232 1240 q 3109 1198 3150 1215 q 3047 1147 3068 1181 q 3018 1065 3025 1114 q 3011 947 3011 1015 l 3144 947 q 3142 917 3144 940 q 3135 867 3140 893 q 3123 822 3131 842 q 3103 801 3115 801 l 2947 801 q 2940 779 2947 803 q 2924 724 2933 756 q 2906 657 2915 692 q 2890 600 2896 622 q 2889 589 2890 596 q 2888 578 2888 582 q 2907 549 2888 560 q 2951 532 2926 538 q 2997 524 2975 526 q 3025 522 3019 522 q 3026 508 3025 518 q 3026 492 3026 499 q 3025 470 3026 485 q 3019 442 3024 456 q 3006 417 3014 428 q 2986 407 2999 407 l 2700 407 m 3665 1236 q 3660 1157 3665 1192 q 3646 1088 3656 1122 q 3621 1016 3636 1054 q 3586 928 3606 978 q 3499 871 3554 878 l 3499 425 q 3487 410 3499 415 q 3460 403 3475 406 q 3434 402 3446 401 q 3421 403 3422 403 q 3408 402 3421 403 q 3382 403 3396 401 q 3356 410 3368 406 q 3344 425 3344 415 l 3344 793 q 3327 774 3338 788 q 3315 754 3317 760 q 3294 690 3308 736 q 3263 590 3279 643 q 3234 490 3247 538 q 3218 425 3221 443 q 3211 414 3218 421 q 3199 407 3204 407 q 3176 406 3192 407 q 3141 403 3160 404 q 3106 400 3122 401 q 3083 399 3089 399 l 3083 444 q 3093 487 3083 447 q 3119 588 3103 526 q 3157 728 3136 650 q 3199 884 3178 806 q 3241 1035 3221 963 q 3276 1160 3261 1108 q 3283 1182 3278 1165 q 3294 1217 3288 1199 q 3306 1253 3300 1236 q 3315 1276 3313 1269 q 3325 1300 3318 1286 q 3333 1314 3332 1314 l 3643 1314 q 3656 1306 3647 1314 q 3664 1296 3664 1299 q 3664 1286 3664 1294 q 3665 1269 3664 1279 q 3665 1250 3665 1260 q 3665 1236 3665 1242 m 3544 474 q 3544 485 3544 475 q 3544 508 3543 496 q 3549 531 3544 521 q 3565 540 3554 540 l 3719 540 l 3740 561 l 3740 571 q 3742 595 3740 582 q 3743 622 3743 608 l 3743 644 q 3731 851 3743 751 q 3718 1057 3718 950 q 3718 1086 3718 1064 q 3720 1137 3718 1108 q 3727 1197 3722 1165 q 3741 1254 3732 1228 q 3764 1297 3750 1281 q 3799 1314 3778 1314 l 4089 1314 q 4084 1298 4086 1308 q 4078 1276 4082 1288 q 4072 1253 4075 1264 q 4068 1238 4069 1242 q 4058 1218 4065 1228 q 4050 1208 4051 1208 l 3875 1208 l 3856 1179 q 3855 1167 3856 1176 q 3854 1146 3854 1157 q 3853 1124 3854 1135 q 3853 1108 3853 1114 q 3860 995 3853 1051 q 3875 883 3867 939 q 3890 769 3883 826 q 3897 657 3897 713 q 3891 602 3897 643 q 3873 518 3885 561 q 3842 441 3861 475 q 3799 407 3824 407 l 3565 407 q 3549 417 3554 407 q 3544 438 3544 426 q 3544 460 3543 450 q 3544 474 3544 471 m 1790 750 l 1790 735 q 1789 702 1790 721 q 1788 676 1788 683 q 1783 660 1786 669 q 1778 641 1781 650 q 1774 626 1776 632 q 1769 619 1771 619 l 1671 619 q 1682 676 1676 651 q 1700 717 1688 700 q 1733 742 1713 733 q 1790 750 1754 750 m 3088 743 q 3084 680 3088 708 q 3068 632 3081 651 q 3031 601 3056 613 q 2964 590 3007 590 q 2967 657 2964 628 q 2983 705 2971 686 q 3020 733 2996 724 q 3088 743 3044 743 m 3653 890 q 3657 890 3654 890 q 3664 889 3660 889 q 3680 756 3675 822 q 3685 619 3685 689 l 3565 619 l 3565 811 q 3574 822 3565 811 q 3594 844 3582 832 q 3620 869 3607 857 q 3643 889 3633 882 q 3647 890 3643 889 q 3653 890 3651 890 m 774 793 l 881 1025 l 881 793 l 774 793 m 3432 1197 q 3413 1147 3424 1178 q 3391 1081 3401 1115 q 3374 1010 3381 1046 q 3367 943 3367 974 q 3436 962 3408 943 q 3481 1010 3464 981 q 3504 1077 3497 1040 q 3511 1151 3511 1114 q 3500 1190 3511 1181 q 3460 1200 3489 1200 q 3444 1199 3454 1200 q 3432 1197 3435 1197 m 1906 1136 l 1906 1093 q 1892 1038 1906 1058 q 1836 1017 1878 1017 q 1813 1019 1831 1017 q 1788 1025 1794 1022 q 1801 1074 1794 1053 q 1819 1108 1807 1094 q 1852 1129 1832 1122 q 1906 1136 1872 1136 m 2833 1135 q 2832 1108 2833 1126 q 2826 1071 2831 1089 q 2813 1039 2821 1053 q 2793 1025 2806 1025 l 2639 1025 q 2674 1080 2657 1058 q 2713 1114 2692 1101 q 2763 1131 2733 1126 q 2833 1135 2792 1135 m 3150 1129 q 3175 1126 3157 1129 q 3199 1121 3193 1124 q 3190 1065 3196 1086 q 3172 1034 3185 1044 q 3138 1020 3160 1024 q 3081 1017 3115 1017 q 3081 1060 3081 1039 q 3088 1096 3082 1081 q 3108 1120 3094 1111 q 3150 1129 3122 1129 m 2804 1468 q 2840 1463 2822 1468 q 2876 1449 2858 1457 q 2913 1436 2894 1442 q 2953 1431 2932 1431 l 2986 1431 q 3042 1431 3004 1431 q 3128 1434 3081 1432 q 3228 1438 3176 1436 q 3328 1442 3281 1440 q 3414 1447 3376 1444 q 3469 1450 3451 1449 q 3501 1488 3493 1460 q 3515 1543 3510 1515 q 3529 1593 3521 1571 q 3563 1615 3538 1615 q 3565 1600 3563 1611 q 3565 1585 3567 1589 q 3558 1558 3564 1578 q 3547 1516 3553 1538 q 3535 1475 3540 1494 q 3528 1450 3529 1456 l 3701 1450 l 3760 1624 q 3771 1626 3760 1625 q 3789 1626 3782 1626 q 3844 1609 3825 1626 q 3871 1566 3863 1592 q 3880 1509 3879 1540 q 3881 1450 3881 1478 l 4031 1450 q 4065 1535 4039 1494 q 4126 1613 4092 1576 q 4197 1681 4161 1649 q 4261 1739 4233 1713 l 4068 1739 l 4013 1700 l 3990 1739 l 2947 1739 q 2932 1733 2943 1736 q 2909 1728 2921 1731 q 2887 1723 2897 1725 q 2871 1721 2876 1721 q 2859 1728 2865 1721 q 2853 1739 2853 1735 l 2504 1739 l 2444 1700 l 2426 1739 l 2214 1739 q 2203 1722 2210 1739 q 2187 1677 2196 1704 q 2168 1617 2178 1650 q 2151 1552 2158 1585 q 2138 1492 2143 1519 q 2133 1450 2133 1465 l 2775 1450 q 2783 1460 2776 1454 q 2793 1468 2790 1467 l 2804 1468 m 1288 1607 q 1276 1529 1288 1568 q 1264 1450 1264 1490 l 1401 1450 q 1433 1476 1425 1450 q 1447 1533 1442 1501 q 1462 1590 1453 1564 q 1496 1615 1471 1615 q 1497 1610 1496 1611 q 1499 1604 1499 1608 l 1461 1450 l 2019 1450 q 2031 1467 2024 1450 q 2048 1512 2039 1485 q 2067 1572 2057 1539 q 2084 1637 2076 1604 q 2097 1697 2092 1669 q 2101 1739 2101 1724 l 1267 1739 q 1263 1730 1265 1739 q 1258 1709 1261 1721 q 1251 1684 1254 1697 q 1247 1663 1249 1671 l 1247 1650 q 1253 1637 1247 1640 q 1267 1630 1260 1633 q 1281 1622 1275 1626 q 1288 1607 1288 1618 m 1344 1653 l 1344 1663 q 1325 1672 1340 1665 q 1307 1682 1310 1678 q 1297 1700 1297 1688 l 1508 1700 q 1499 1682 1508 1689 q 1477 1671 1489 1675 q 1454 1665 1465 1667 q 1440 1663 1443 1663 q 1431 1610 1435 1640 q 1417 1551 1426 1579 q 1390 1503 1407 1522 q 1344 1483 1374 1483 q 1325 1484 1340 1483 q 1307 1489 1310 1485 l 1344 1644 l 1344 1653 m 1633 1714 l 1633 1646 q 1644 1641 1636 1646 q 1663 1631 1653 1636 q 1681 1624 1672 1626 q 1693 1624 1689 1621 q 1722 1664 1718 1646 q 1728 1695 1726 1682 q 1741 1715 1731 1708 q 1789 1722 1751 1722 q 1788 1701 1789 1717 q 1788 1682 1788 1685 q 1785 1666 1788 1676 q 1780 1643 1783 1656 q 1774 1620 1776 1631 q 1769 1604 1771 1610 q 1759 1572 1765 1592 q 1747 1533 1753 1551 q 1735 1502 1740 1515 q 1731 1489 1731 1489 l 1671 1489 l 1671 1544 q 1660 1549 1668 1544 q 1642 1558 1651 1553 q 1625 1565 1633 1563 q 1615 1565 1617 1568 q 1583 1526 1588 1544 q 1578 1495 1579 1508 q 1566 1474 1576 1482 q 1514 1467 1556 1467 q 1517 1540 1514 1497 q 1533 1622 1521 1583 q 1569 1687 1546 1660 q 1633 1714 1593 1714 m 2058 1700 q 2033 1674 2051 1678 q 1990 1671 2014 1671 q 1951 1667 1971 1671 q 1924 1644 1931 1663 q 1924 1626 1918 1638 q 1929 1614 1929 1614 l 2019 1614 l 2019 1575 l 1904 1575 l 1904 1517 l 2001 1517 l 2001 1489 l 1803 1489 q 1806 1512 1803 1494 q 1815 1553 1810 1529 q 1826 1602 1819 1576 q 1840 1650 1833 1628 q 1853 1686 1847 1672 q 1865 1700 1860 1700 l 2058 1700 m 2397 1700 l 2397 1632 q 2408 1626 2397 1632 q 2426 1624 2419 1619 q 2443 1636 2429 1625 q 2472 1661 2457 1647 q 2502 1687 2488 1675 q 2522 1700 2517 1699 q 2549 1706 2529 1701 q 2591 1713 2569 1710 q 2633 1719 2613 1717 q 2660 1722 2653 1722 q 2660 1715 2660 1722 q 2659 1703 2660 1710 q 2658 1689 2658 1696 q 2658 1682 2658 1683 q 2654 1666 2657 1676 q 2649 1643 2651 1656 q 2643 1620 2646 1631 q 2639 1604 2640 1610 q 2628 1572 2635 1592 q 2616 1533 2622 1551 q 2605 1502 2610 1515 q 2600 1489 2600 1489 l 2522 1489 q 2527 1507 2524 1493 q 2533 1536 2531 1521 q 2539 1565 2536 1551 q 2542 1585 2542 1579 l 2542 1594 l 2542 1604 l 2426 1489 q 2410 1483 2424 1485 q 2392 1482 2397 1482 q 2344 1497 2356 1482 q 2329 1531 2333 1511 q 2319 1572 2325 1551 q 2290 1604 2314 1593 q 2283 1554 2288 1578 q 2267 1513 2278 1531 q 2238 1484 2257 1494 q 2189 1474 2219 1474 q 2192 1523 2189 1486 q 2201 1599 2194 1560 q 2220 1669 2208 1639 q 2251 1700 2232 1700 l 2397 1700 m 2775 1701 q 2793 1701 2778 1701 q 2813 1700 2808 1700 l 2754 1489 l 2674 1489 q 2675 1558 2674 1521 q 2686 1626 2676 1594 q 2717 1680 2696 1658 q 2775 1701 2738 1701 m 2831 1557 q 2850 1628 2831 1600 q 2899 1672 2869 1656 q 2966 1695 2929 1689 q 3036 1701 3003 1701 q 3069 1703 3047 1701 q 3113 1701 3090 1704 q 3151 1689 3135 1699 q 3167 1657 3167 1679 q 3126 1661 3143 1657 q 3092 1670 3108 1665 q 3060 1679 3076 1675 q 3025 1683 3044 1683 q 2952 1649 2979 1683 q 2925 1574 2925 1615 q 2944 1523 2925 1539 q 2994 1507 2963 1507 q 3032 1513 3018 1507 q 3046 1547 3046 1519 q 3040 1575 3046 1564 q 3007 1585 3033 1586 q 3015 1597 3007 1589 q 3025 1604 3022 1604 q 3048 1606 3031 1604 q 3085 1608 3065 1607 q 3122 1610 3104 1608 q 3144 1611 3139 1611 q 3143 1583 3144 1603 q 3137 1542 3142 1563 q 3124 1505 3132 1521 q 3103 1489 3115 1489 l 2871 1489 q 2857 1498 2864 1489 q 2844 1518 2850 1507 q 2835 1538 2839 1529 q 2831 1546 2831 1546 l 2831 1557 m 3239 1700 l 3315 1700 l 3315 1647 q 3331 1642 3319 1647 q 3354 1632 3342 1638 q 3378 1623 3367 1626 q 3393 1624 3389 1619 q 3399 1637 3394 1625 q 3410 1663 3404 1649 q 3423 1688 3417 1676 q 3432 1700 3429 1699 q 3447 1703 3433 1701 q 3469 1706 3461 1706 q 3488 1703 3474 1706 q 3510 1700 3503 1701 q 3496 1627 3501 1668 q 3478 1551 3490 1586 q 3443 1491 3467 1515 q 3374 1467 3419 1467 l 3374 1544 q 3358 1549 3369 1544 q 3335 1557 3347 1553 q 3313 1564 3324 1561 q 3296 1565 3301 1567 q 3268 1535 3269 1550 q 3267 1510 3267 1521 q 3260 1492 3267 1499 q 3218 1485 3254 1485 q 3198 1487 3214 1485 q 3179 1489 3182 1489 l 3239 1700 m 3625 1653 l 3625 1663 q 3614 1666 3622 1664 q 3595 1671 3606 1668 q 3576 1676 3585 1674 q 3565 1682 3567 1679 q 3556 1700 3556 1692 l 3807 1700 q 3795 1676 3807 1682 q 3768 1667 3783 1669 q 3739 1662 3753 1665 q 3719 1644 3725 1658 q 3705 1594 3710 1622 q 3692 1542 3700 1567 q 3669 1500 3683 1517 q 3625 1483 3654 1483 q 3605 1484 3619 1483 q 3586 1489 3590 1485 l 3625 1644 l 3625 1653 m 3872 1725 q 3915 1719 3893 1725 q 3955 1700 3938 1713 q 3983 1669 3972 1688 q 3990 1624 3993 1650 q 3996 1622 3992 1624 q 4001 1621 4000 1621 q 4035 1633 4021 1621 q 4061 1662 4049 1646 q 4088 1690 4074 1678 q 4126 1703 4103 1703 q 4146 1702 4132 1703 q 4167 1700 4160 1701 q 4111 1635 4138 1674 q 4056 1560 4085 1596 q 3996 1498 4028 1524 q 3922 1472 3964 1472 q 3915 1538 3922 1507 q 3897 1599 3907 1569 q 3880 1660 3888 1629 q 3872 1725 3872 1692 z "},")":{"ha":3886,"x_min":69,"x_max":3817,"o":"m 1611 118 q 1671 110 1642 121 q 1727 83 1700 100 q 1778 43 1754 65 q 1821 0 1801 21 q 1836 8 1829 1 q 1848 24 1843 15 q 1856 39 1853 32 q 1863 49 1860 46 l 1911 97 q 1974 136 1938 121 q 2044 154 2010 151 l 2479 189 l 2493 189 l 3131 238 q 3194 240 3161 233 q 3257 258 3226 247 q 3374 325 3325 283 q 3457 420 3422 367 q 3515 535 3492 474 q 3556 663 3539 597 q 3588 793 3574 728 q 3619 918 3603 858 l 3626 938 q 3640 1000 3632 963 q 3657 1073 3649 1038 q 3671 1135 3665 1108 q 3676 1163 3676 1161 l 3676 1168 q 3681 1186 3676 1169 q 3690 1226 3685 1203 q 3701 1275 3694 1250 q 3711 1317 3707 1300 q 3722 1344 3715 1332 q 3739 1372 3728 1357 q 3760 1389 3747 1383 q 3786 1399 3774 1394 q 3808 1411 3799 1404 q 3817 1433 3817 1418 l 3817 1449 q 3811 1500 3815 1463 q 3803 1578 3807 1538 q 3794 1656 3799 1619 q 3788 1707 3790 1693 q 3781 1729 3785 1722 q 3761 1736 3776 1736 l 3746 1736 l 1821 1589 l 1793 1589 l 182 1463 l 71 1156 q 70 1150 71 1154 q 69 1143 69 1146 q 81 1121 69 1128 q 106 1103 92 1114 q 131 1076 119 1093 q 142 1022 142 1058 l 142 281 q 146 222 142 251 q 169 168 150 193 q 217 119 188 144 q 282 72 247 93 q 353 38 317 51 q 421 28 390 25 l 1611 118 m 624 504 l 764 518 l 768 518 l 771 518 q 776 507 772 515 q 785 490 781 499 q 793 473 789 481 q 799 463 797 465 q 831 388 811 433 q 867 298 850 342 q 898 222 885 254 q 911 189 911 190 l 911 175 q 897 171 911 174 q 876 168 883 168 q 796 160 835 160 q 780 165 786 160 q 767 175 774 169 q 753 185 761 181 q 732 190 744 190 q 710 190 724 190 q 682 188 696 189 q 656 185 668 186 q 638 182 643 183 q 631 176 636 182 q 620 165 626 171 q 609 153 614 158 q 603 147 604 147 q 578 143 600 146 q 546 140 557 140 q 531 140 542 140 q 507 139 519 139 q 483 138 494 139 q 468 138 472 138 q 479 185 468 156 q 505 247 490 215 q 533 306 519 278 q 554 350 547 335 l 610 482 q 624 504 614 496 m 496 172 q 507 160 496 161 q 525 160 518 160 q 562 162 551 160 q 578 169 572 164 q 589 183 583 175 q 610 203 594 192 q 639 206 618 204 q 683 210 660 208 q 728 215 707 213 q 757 218 749 217 l 765 218 q 783 203 778 218 q 799 182 789 189 l 806 182 q 815 181 810 182 q 824 181 821 181 l 832 181 q 859 181 844 181 q 882 196 874 182 l 813 364 q 803 390 810 369 q 786 432 796 410 q 766 472 776 454 q 746 490 756 490 l 743 490 l 644 482 l 632 476 l 497 175 l 496 172 m 960 511 q 965 523 963 517 q 974 532 968 529 q 1032 538 1006 536 q 1088 540 1058 540 q 1122 522 1111 540 q 1141 483 1133 504 q 1156 444 1149 463 q 1181 426 1164 426 l 1182 426 q 1183 428 1182 428 q 1210 485 1193 449 q 1246 546 1226 521 q 1251 550 1249 547 q 1254 553 1253 553 l 1401 568 l 1401 558 l 1401 536 l 1401 528 q 1395 377 1401 451 q 1381 224 1389 303 q 1366 206 1381 210 q 1344 203 1351 203 q 1319 200 1335 201 q 1290 198 1304 199 q 1265 197 1275 197 q 1254 196 1254 196 l 1246 203 l 1246 307 l 1240 307 q 1228 276 1235 296 q 1210 238 1221 257 q 1187 203 1200 218 q 1157 189 1174 189 q 1142 202 1150 189 q 1126 233 1135 215 q 1107 269 1117 251 q 1086 293 1097 286 l 1082 294 q 1081 294 1082 294 q 1079 293 1081 293 q 1078 274 1079 288 q 1074 245 1076 261 q 1069 214 1072 229 q 1065 189 1067 199 q 1062 185 1064 188 q 1057 182 1060 182 q 1035 181 1051 182 q 1001 178 1019 179 q 967 176 983 178 q 946 175 951 175 l 938 175 q 938 185 938 178 q 939 196 939 193 q 943 258 940 214 q 949 353 946 303 q 956 448 953 403 q 960 511 958 493 m 967 217 q 967 208 967 213 q 974 203 968 203 l 1043 203 l 1057 378 l 1065 393 q 1081 363 1069 385 q 1103 318 1092 342 q 1126 274 1115 294 q 1142 244 1138 253 q 1151 228 1149 233 q 1161 222 1153 222 q 1170 223 1168 222 q 1176 231 1172 224 l 1282 433 l 1282 426 l 1282 400 l 1282 393 q 1278 318 1282 356 q 1275 243 1275 281 q 1276 229 1275 235 q 1288 224 1278 224 q 1324 223 1303 224 q 1351 238 1344 222 q 1353 246 1351 239 q 1355 261 1354 253 q 1357 277 1356 269 q 1358 288 1358 285 q 1369 410 1364 340 q 1375 540 1375 479 q 1363 540 1372 540 q 1351 539 1354 539 q 1333 538 1346 539 q 1305 535 1319 536 q 1278 533 1290 535 q 1261 532 1265 532 q 1254 525 1257 529 l 1232 476 q 1217 444 1226 464 q 1199 407 1208 425 q 1183 376 1190 389 q 1176 364 1176 364 l 1169 364 l 1093 504 l 1086 511 q 1074 512 1083 511 q 1061 513 1065 513 l 1039 513 q 1000 506 1019 513 q 988 476 981 499 q 983 426 986 461 q 977 350 981 390 q 971 274 974 310 q 967 224 968 238 l 967 217 m 1744 590 l 1744 511 q 1740 506 1744 508 q 1732 503 1735 503 q 1715 499 1725 501 q 1701 497 1706 497 q 1687 494 1697 496 q 1664 492 1676 493 q 1640 491 1651 492 q 1625 490 1629 490 q 1617 477 1614 488 q 1621 463 1621 467 l 1736 463 l 1736 399 q 1716 385 1736 386 q 1669 383 1696 383 q 1624 377 1644 383 q 1603 350 1603 371 q 1603 338 1603 347 q 1611 329 1604 329 l 1732 329 q 1731 323 1732 328 q 1731 315 1731 318 q 1730 300 1731 311 q 1728 276 1729 289 q 1725 253 1726 264 q 1722 238 1724 242 q 1677 233 1710 236 q 1608 226 1644 229 q 1538 221 1571 224 q 1492 218 1504 218 q 1477 217 1488 218 q 1463 217 1467 217 l 1463 224 q 1463 244 1463 233 q 1464 258 1464 256 q 1469 338 1465 289 q 1475 432 1472 386 q 1481 511 1478 478 q 1485 546 1483 544 l 1492 574 q 1511 576 1492 574 q 1558 581 1531 578 q 1613 585 1585 583 q 1660 588 1640 588 q 1676 588 1664 588 q 1701 589 1689 589 q 1728 590 1715 589 q 1744 590 1740 590 m 365 350 q 375 374 363 365 q 400 385 388 382 q 401 414 400 397 q 408 447 403 431 q 423 473 413 463 q 451 483 433 483 l 467 483 q 476 472 476 483 q 470 458 476 461 q 456 453 464 454 q 441 449 447 451 q 435 442 435 447 l 435 382 l 469 382 l 469 357 q 424 331 433 353 q 415 278 415 308 q 415 258 415 268 q 414 238 415 249 q 400 231 410 231 l 400 336 q 397 340 400 338 q 393 343 394 343 q 378 347 389 344 q 365 350 368 349 m 239 307 q 253 348 239 331 q 292 365 268 365 q 351 306 351 365 q 340 260 351 278 q 299 243 328 243 q 256 263 272 243 q 239 307 239 282 m 1519 553 q 1505 510 1511 550 q 1496 418 1499 469 q 1492 317 1493 367 q 1490 243 1490 267 l 1497 243 q 1519 244 1507 243 q 1533 244 1531 244 q 1567 246 1543 244 q 1618 249 1592 247 q 1668 254 1644 251 q 1701 258 1692 257 q 1709 274 1708 265 q 1710 290 1710 282 l 1710 304 q 1701 315 1710 315 l 1576 315 l 1576 329 q 1577 340 1576 332 q 1579 358 1578 349 q 1581 374 1581 367 q 1582 385 1582 382 q 1606 392 1593 392 q 1635 393 1619 393 q 1665 394 1650 393 q 1691 398 1679 394 q 1710 410 1703 401 q 1717 433 1717 418 q 1708 442 1717 442 l 1590 442 l 1590 497 l 1604 504 q 1634 503 1614 504 q 1674 505 1654 503 q 1709 515 1694 507 q 1724 543 1724 524 l 1724 558 q 1713 568 1724 568 l 1708 568 q 1670 565 1697 567 q 1613 560 1643 563 q 1556 556 1583 558 q 1519 553 1529 554 m 1807 253 l 1835 594 q 1856 597 1835 594 q 1908 603 1878 600 q 1970 610 1938 607 q 2024 617 2003 614 l 2029 617 q 2039 617 2033 617 q 2049 618 2044 618 l 2057 618 q 2138 585 2106 618 q 2171 504 2171 553 q 2164 473 2171 488 q 2149 445 2157 458 q 2135 418 2142 432 q 2128 389 2128 404 q 2135 358 2128 372 q 2153 329 2143 343 q 2174 301 2164 315 q 2192 272 2185 288 q 2116 262 2156 265 q 2040 258 2076 258 q 2015 272 2025 258 q 1997 301 2006 285 q 1980 330 1989 317 q 1957 343 1971 343 l 1954 343 q 1949 340 1951 343 q 1946 336 1946 338 l 1932 253 q 1920 251 1931 253 q 1894 247 1910 249 q 1869 244 1879 244 l 1864 244 q 1855 244 1860 244 q 1844 243 1850 243 l 1836 243 q 1824 244 1833 243 q 1814 244 1815 244 l 1807 253 m 692 407 q 692 406 692 407 q 694 406 693 406 q 704 383 697 399 q 719 349 711 367 q 733 315 726 331 q 743 293 740 299 q 747 282 744 290 q 750 272 750 274 q 747 269 750 271 q 743 267 744 267 q 726 264 739 265 q 698 261 713 263 q 670 259 683 260 q 651 258 657 258 q 641 258 649 258 q 632 257 633 257 l 632 272 q 638 286 632 272 q 651 319 643 300 q 667 359 658 339 q 681 393 675 379 q 684 401 682 396 q 686 406 686 406 q 688 406 686 406 q 692 407 690 407 m 267 306 q 299 272 267 272 q 332 307 332 272 q 324 331 332 325 q 299 338 315 338 q 267 306 267 338 m 2010 589 l 1994 589 q 1977 588 1986 589 q 1961 588 1968 588 l 1954 588 q 1929 587 1944 588 q 1899 585 1914 586 q 1874 582 1885 583 q 1863 581 1863 581 l 1857 574 q 1854 547 1857 574 q 1848 484 1851 521 q 1841 408 1844 447 q 1835 343 1838 369 q 1834 329 1835 339 q 1833 307 1833 319 q 1833 286 1833 296 q 1832 272 1832 276 l 1917 272 l 1917 364 l 1982 364 q 1992 353 1983 364 q 2010 328 2000 342 q 2031 303 2021 315 q 2044 288 2040 290 l 2051 288 q 2061 287 2056 288 q 2069 286 2067 286 l 2076 286 q 2113 287 2099 286 q 2150 293 2128 288 q 2151 296 2150 294 q 2151 297 2151 297 l 2150 301 l 2129 329 q 2117 347 2125 336 q 2103 367 2110 357 q 2092 385 2097 378 q 2086 393 2086 393 l 2086 406 q 2125 449 2114 429 q 2136 504 2136 468 q 2117 560 2136 540 q 2067 588 2099 579 l 2056 588 q 2038 588 2047 588 q 2021 589 2029 589 l 2010 589 m 667 288 q 672 281 667 281 q 695 279 678 281 q 718 278 713 278 q 717 293 718 283 q 712 313 715 303 q 703 330 708 322 q 692 338 699 338 q 688 337 689 338 q 686 336 686 336 q 684 330 686 335 q 681 322 682 325 q 673 305 678 318 q 667 288 668 292 m 2256 631 q 2322 638 2286 636 q 2389 639 2357 639 q 2381 461 2389 547 q 2360 288 2372 375 q 2292 281 2326 282 q 2226 279 2258 279 l 2226 307 l 2256 631 m 2451 368 l 2451 378 q 2456 424 2453 390 q 2463 494 2460 457 q 2468 563 2465 531 q 2471 608 2471 596 q 2484 629 2475 619 q 2500 643 2493 639 q 2523 649 2503 646 q 2571 656 2543 653 q 2631 662 2599 658 q 2693 667 2664 665 q 2744 671 2722 669 q 2774 672 2767 672 q 2772 613 2774 642 q 2767 553 2769 583 q 2706 546 2735 544 q 2653 544 2676 547 q 2617 526 2631 540 q 2604 471 2604 511 q 2605 458 2604 467 q 2606 447 2606 450 l 2611 442 l 2751 442 l 2758 428 q 2758 419 2758 428 q 2756 400 2757 411 q 2753 377 2754 389 q 2751 357 2753 365 q 2750 344 2751 353 q 2746 328 2749 335 q 2738 315 2746 319 q 2637 303 2688 307 q 2533 300 2586 300 q 2474 314 2497 300 q 2451 368 2451 328 m 2256 328 q 2261 309 2256 311 q 2282 307 2267 307 q 2322 309 2301 307 q 2346 336 2343 311 l 2367 594 l 2367 603 l 2367 610 q 2360 617 2367 614 q 2346 617 2357 617 q 2332 618 2335 618 l 2317 618 q 2291 614 2306 618 q 2276 594 2276 610 q 2263 461 2269 528 q 2256 328 2256 394 m 2926 679 l 2947 686 q 2963 687 2947 686 q 3000 689 2978 688 q 3044 692 3022 690 q 3082 693 3067 693 l 3089 693 q 3096 692 3094 693 q 3101 686 3097 692 l 3269 371 q 3277 365 3276 368 q 3278 357 3278 361 q 3277 353 3278 356 q 3276 350 3276 351 q 3253 347 3269 349 q 3217 345 3236 346 q 3181 344 3199 344 q 3157 343 3164 343 l 3146 343 q 3128 347 3135 343 q 3117 358 3122 351 q 3106 372 3111 364 q 3094 385 3101 379 l 3071 385 q 3042 385 3054 385 q 3017 383 3029 385 q 2990 381 3004 382 q 2956 378 2975 379 q 2942 372 2947 378 q 2932 360 2936 367 q 2925 346 2928 353 q 2919 336 2922 339 q 2897 324 2913 328 q 2864 321 2882 321 q 2828 322 2847 321 q 2797 322 2810 322 l 2772 322 q 2856 498 2819 406 q 2926 679 2892 590 m 2478 378 q 2498 338 2478 347 q 2543 328 2518 328 q 2582 328 2553 328 q 2642 331 2611 329 q 2698 338 2674 333 q 2724 350 2722 343 l 2732 406 q 2725 417 2732 415 q 2711 419 2718 419 l 2706 419 q 2653 416 2678 419 q 2600 413 2628 413 q 2588 413 2593 413 q 2576 419 2583 414 l 2576 428 l 2576 454 l 2576 463 q 2577 504 2576 486 q 2583 546 2578 522 q 2648 558 2618 558 q 2700 560 2678 557 q 2734 581 2722 564 q 2746 647 2746 599 q 2635 644 2688 647 q 2528 631 2583 640 q 2513 614 2519 624 q 2500 594 2506 604 q 2496 555 2499 583 q 2490 494 2493 526 q 2483 433 2486 461 q 2479 393 2481 404 q 2478 385 2479 390 q 2478 378 2478 381 m 2821 357 q 2822 349 2821 354 q 2829 343 2822 343 l 2899 350 q 2917 383 2908 375 q 2956 393 2926 390 q 3026 398 2992 396 q 3097 400 3061 400 q 3113 399 3104 400 q 3122 399 3122 399 l 3151 371 l 3228 371 q 3231 374 3229 371 q 3235 378 3233 376 q 3235 379 3235 378 q 3236 382 3236 381 q 3235 383 3236 382 q 3235 385 3235 383 q 3206 436 3226 399 q 3164 515 3186 474 q 3122 593 3142 557 q 3094 643 3103 629 q 3088 654 3093 646 q 3082 665 3082 663 l 3071 665 q 3054 666 3063 665 q 3038 667 3046 667 l 3029 667 q 3005 667 3018 667 q 2979 667 2992 668 q 2956 661 2967 667 q 2942 643 2946 656 q 2916 588 2933 628 q 2880 504 2899 549 q 2844 420 2861 460 q 2821 364 2828 381 l 2821 357 m 1926 440 q 1927 458 1926 444 q 1930 484 1928 471 q 1935 508 1932 497 q 1940 518 1938 518 l 2024 518 q 2042 506 2039 518 q 2046 482 2046 493 q 2023 436 2046 446 q 1968 426 2000 426 l 1951 426 q 1940 427 1944 426 q 1932 428 1935 428 q 1926 432 1926 429 l 1926 440 m 1953 472 q 1955 453 1953 460 q 1971 447 1957 447 q 1998 456 1985 447 q 2011 479 2011 464 q 2004 496 2011 494 q 1982 497 1997 497 q 1958 494 1963 497 q 1953 472 1953 492 m 2956 468 l 3011 594 l 3018 594 l 3088 468 l 3088 463 q 3072 458 3088 461 q 3046 456 3056 456 q 3028 455 3040 456 q 3000 454 3015 454 q 2973 453 2986 454 q 2956 453 2960 453 l 2956 468 m 239 511 q 233 520 238 514 q 224 533 229 526 q 213 546 218 540 q 204 553 208 551 q 246 565 232 553 q 267 603 260 576 q 280 589 276 597 q 287 574 283 581 q 296 560 290 567 q 317 553 301 554 q 303 537 304 546 q 301 517 301 528 q 305 490 301 501 q 308 467 308 478 l 308 463 q 292 473 304 465 q 274 482 279 481 l 271 483 q 268 483 269 483 q 267 482 267 482 l 239 463 q 235 460 238 461 q 232 460 232 460 l 232 468 q 233 476 232 469 q 236 490 235 482 q 239 503 238 497 q 239 511 240 510 m 3018 539 q 2995 511 3003 531 q 2988 476 2988 492 l 3039 476 q 3042 478 3040 476 q 3046 482 3044 481 l 3046 488 q 3035 514 3046 497 q 3018 539 3025 531 m 378 586 q 378 594 378 589 q 379 603 379 600 q 387 692 382 638 q 396 798 392 747 q 403 886 400 849 q 407 924 407 924 l 421 938 q 431 939 421 938 q 455 941 442 940 q 483 943 468 942 q 506 944 497 944 q 532 945 511 944 q 569 946 553 946 l 583 946 q 579 843 583 897 q 568 743 575 789 l 575 728 l 744 728 q 736 608 744 667 q 727 600 733 603 q 715 594 721 597 q 554 583 632 592 q 393 568 476 574 q 381 569 383 565 q 378 579 378 574 l 378 586 m 813 615 l 813 622 q 816 663 814 635 q 821 724 818 690 q 826 796 824 758 q 832 867 829 833 q 838 928 835 901 q 842 967 840 954 q 1011 985 925 976 q 1181 993 1097 993 l 1211 993 q 1219 988 1219 993 l 1219 978 l 1219 967 q 1217 938 1219 960 q 1211 910 1214 917 q 1191 906 1208 908 q 1169 903 1174 903 q 1139 899 1161 901 q 1092 896 1117 897 q 1047 892 1068 894 q 1017 889 1025 890 q 1008 879 1010 888 q 1007 868 1007 871 q 1011 851 1007 856 q 1028 847 1015 847 q 1117 851 1074 847 q 1207 856 1161 856 q 1206 834 1207 851 q 1206 813 1206 817 q 1197 806 1206 806 l 1008 783 q 996 774 997 782 q 994 757 994 765 l 994 746 q 1001 735 994 738 l 1033 735 q 1111 739 1074 735 q 1186 743 1149 743 l 1206 743 q 1205 728 1206 739 q 1203 704 1204 717 q 1200 681 1201 692 q 1197 665 1199 669 q 1194 644 1196 657 q 1192 631 1192 631 l 819 603 q 813 606 813 600 l 813 615 m 3390 667 q 3390 670 3390 668 q 3389 672 3389 672 q 3376 690 3386 676 q 3361 707 3365 704 q 3396 712 3383 704 q 3416 729 3408 719 q 3428 748 3424 739 q 3442 757 3433 757 l 3444 756 q 3449 731 3443 738 q 3464 722 3456 724 q 3480 719 3472 719 q 3488 711 3488 718 q 3487 708 3488 710 q 3486 707 3486 707 q 3476 693 3485 704 q 3467 679 3467 682 q 3465 667 3465 676 l 3465 651 l 3465 633 q 3467 622 3465 625 q 3448 635 3461 626 q 3432 643 3435 643 q 3428 644 3431 643 q 3424 644 3426 644 q 3419 644 3421 644 q 3417 643 3418 643 q 3399 635 3413 643 q 3382 622 3386 626 l 3382 628 l 3382 631 l 3389 657 q 3390 661 3389 658 q 3390 667 3390 664 m 1407 1007 q 1508 1019 1458 1017 q 1607 1022 1557 1022 l 1618 1022 l 1642 1022 l 1646 1022 l 1660 1007 l 1821 693 l 1821 690 l 1821 686 q 1814 679 1818 682 q 1763 673 1782 675 q 1722 671 1743 671 l 1692 671 l 1683 671 q 1672 672 1678 671 q 1661 672 1667 672 l 1653 672 q 1640 685 1644 676 q 1631 704 1636 694 q 1620 721 1626 714 q 1604 728 1614 728 q 1588 726 1600 728 q 1562 724 1575 725 q 1536 722 1549 724 q 1519 721 1524 721 q 1492 716 1511 718 q 1471 714 1474 714 q 1458 702 1463 711 q 1449 683 1453 693 q 1442 665 1446 674 q 1429 651 1438 656 l 1261 638 l 1251 638 q 1255 656 1251 644 q 1263 677 1258 667 q 1270 696 1267 688 q 1275 707 1274 704 q 1301 767 1282 724 q 1341 858 1319 810 q 1381 948 1363 906 q 1407 1007 1400 990 m 232 713 q 221 734 232 728 q 210 753 210 740 l 211 756 q 233 755 222 751 q 251 767 243 758 q 263 785 258 775 q 267 806 267 796 q 276 793 272 801 q 282 778 279 786 q 288 769 285 771 q 309 765 293 768 q 331 763 325 763 q 310 740 325 754 q 294 714 294 725 q 298 696 294 710 q 301 679 301 682 q 302 674 301 678 q 303 671 303 671 q 285 679 292 671 q 267 688 278 688 q 263 687 265 688 q 260 686 260 686 q 242 672 256 683 q 225 657 229 661 l 225 663 q 228 686 225 675 q 232 713 232 697 m 1863 756 l 1863 768 q 1862 788 1863 778 q 1861 806 1861 797 l 1861 818 q 1860 880 1861 844 q 1863 949 1858 915 q 1882 1010 1868 982 q 1926 1050 1896 1038 q 1966 1053 1939 1051 q 2026 1058 1993 1056 q 2098 1064 2060 1061 q 2169 1069 2136 1067 q 2230 1074 2203 1072 q 2269 1078 2257 1076 q 2283 1078 2271 1078 q 2303 1079 2294 1079 l 2311 1079 l 2311 1001 q 2295 983 2311 985 q 2269 981 2279 982 q 2229 976 2258 979 q 2168 972 2200 974 q 2107 968 2136 969 q 2067 967 2078 967 q 2040 955 2056 964 q 2024 931 2024 946 l 2024 847 q 2035 829 2024 833 q 2058 825 2047 825 l 2072 825 l 2090 825 q 2122 831 2107 825 q 2136 854 2136 838 q 2131 865 2136 863 q 2122 870 2126 868 q 2112 876 2117 872 q 2107 889 2107 879 l 2107 903 l 2311 918 q 2314 915 2311 918 q 2318 910 2317 913 l 2318 907 l 2318 842 q 2300 756 2318 793 q 2226 714 2282 719 q 2176 708 2211 711 q 2103 701 2140 704 q 2033 697 2065 699 q 1989 693 2000 694 l 1985 693 l 1967 693 l 1960 693 q 1901 708 1926 693 q 1863 756 1875 722 m 2417 807 l 2417 818 q 2421 872 2418 833 q 2426 955 2424 911 q 2432 1038 2429 999 q 2436 1093 2435 1078 q 2465 1095 2444 1093 q 2510 1099 2486 1097 q 2554 1103 2533 1101 q 2583 1106 2575 1106 l 2592 1106 l 2600 1106 q 2606 1099 2606 1106 l 2606 903 q 2613 890 2606 893 q 2626 888 2619 888 l 2635 888 q 2681 899 2661 888 q 2703 938 2700 910 l 2717 1106 l 2724 1113 q 2738 1115 2725 1113 q 2771 1118 2751 1117 q 2801 1119 2790 1119 q 2821 1120 2807 1119 q 2850 1121 2835 1121 q 2881 1122 2867 1121 q 2900 1122 2894 1122 q 2899 1110 2900 1119 q 2899 1099 2899 1101 q 2894 1045 2897 1083 q 2888 965 2892 1007 q 2882 885 2885 924 q 2878 832 2879 847 q 2857 789 2871 807 q 2815 763 2843 771 q 2739 755 2781 760 q 2653 746 2697 750 q 2566 738 2610 742 q 2485 735 2522 735 q 2436 757 2456 735 q 2417 807 2417 779 m 3025 1128 q 3028 1131 3026 1129 q 3032 1133 3031 1132 q 3042 1135 3033 1133 q 3064 1140 3051 1138 q 3082 1142 3076 1142 q 3241 1158 3161 1151 q 3404 1164 3321 1164 q 3396 1078 3404 1121 q 3324 1068 3367 1068 q 3257 1064 3283 1068 q 3240 1062 3250 1064 q 3222 1058 3231 1060 q 3206 1053 3213 1056 q 3200 1050 3200 1051 l 3200 1015 l 3396 1015 q 3394 992 3396 1006 q 3382 972 3393 978 q 3349 971 3372 972 q 3301 967 3326 969 q 3252 963 3275 965 q 3221 958 3229 960 q 3197 953 3208 957 q 3186 935 3186 950 l 3186 931 q 3189 917 3186 928 q 3193 903 3192 906 l 3218 903 q 3301 907 3260 903 q 3385 911 3342 911 l 3385 889 q 3383 849 3385 869 q 3375 813 3381 828 q 3368 806 3371 806 q 3308 799 3351 803 q 3217 790 3265 794 q 3126 783 3169 786 q 3067 778 3083 779 q 3053 777 3063 778 q 3033 776 3044 776 q 3015 776 3024 776 q 3001 775 3006 775 q 3002 790 3001 779 q 3003 811 3003 800 q 3003 833 3003 822 q 3004 847 3004 843 q 3008 902 3006 863 q 3015 986 3011 942 q 3021 1071 3018 1031 q 3025 1128 3024 1111 m 1533 868 q 1509 828 1521 853 q 1497 783 1497 804 l 1579 783 q 1566 832 1579 807 q 1533 868 1553 857 m 3458 900 l 3458 903 q 3448 917 3456 906 q 3438 931 3440 928 q 3477 936 3467 931 q 3490 951 3488 942 q 3497 969 3493 960 q 3515 988 3500 979 q 3524 958 3518 964 q 3536 953 3529 953 q 3551 952 3543 953 q 3564 938 3558 951 q 3535 897 3540 922 q 3536 847 3529 871 q 3496 868 3519 868 l 3486 868 l 3438 826 l 3438 831 l 3438 832 l 3458 896 l 3458 900 m 232 914 q 228 934 232 926 q 211 953 225 942 q 243 970 236 958 q 267 993 250 982 l 282 963 l 331 963 q 307 938 313 947 q 301 911 301 928 q 309 888 301 897 q 317 865 317 878 l 317 861 q 294 877 303 872 q 271 882 285 882 q 244 872 256 882 q 218 854 232 861 q 232 914 232 886 m 357 1069 q 360 1137 357 1103 q 371 1204 364 1171 q 396 1216 381 1213 q 427 1220 411 1219 q 459 1219 443 1221 q 488 1218 475 1218 l 494 1218 l 518 1218 l 526 1218 q 531 1177 528 1186 q 561 1168 535 1168 q 603 1184 593 1168 q 617 1232 614 1200 l 632 1407 q 634 1428 632 1411 q 638 1449 636 1444 q 729 1465 679 1465 l 821 1465 l 821 1457 q 820 1440 821 1450 q 819 1428 819 1431 q 814 1370 818 1411 q 806 1283 810 1329 q 797 1197 801 1238 q 792 1142 793 1157 q 759 1076 782 1101 q 694 1043 736 1050 q 620 1036 654 1039 q 555 1031 586 1033 q 493 1028 524 1029 q 428 1028 463 1028 l 419 1028 q 406 1028 413 1028 q 394 1029 400 1029 l 386 1029 q 357 1069 357 1039 m 392 1113 q 403 1071 392 1085 q 444 1057 415 1057 l 457 1057 q 506 1061 471 1058 q 579 1067 540 1064 q 653 1074 618 1071 q 701 1078 688 1076 q 731 1101 719 1085 q 750 1138 743 1118 q 760 1180 757 1158 q 764 1218 763 1201 q 767 1253 765 1228 q 771 1307 769 1278 q 774 1363 772 1336 q 778 1400 776 1389 q 778 1408 778 1403 q 779 1418 779 1413 l 779 1438 q 760 1437 774 1438 q 732 1436 747 1436 q 705 1435 718 1436 q 686 1435 692 1435 q 676 1433 683 1435 q 667 1428 669 1431 q 661 1364 663 1408 q 656 1273 660 1319 q 641 1188 651 1226 q 610 1142 631 1149 q 592 1139 604 1140 q 565 1136 579 1138 q 537 1134 550 1135 q 519 1133 524 1133 q 505 1136 515 1133 q 492 1142 494 1139 l 492 1149 q 488 1172 492 1160 q 476 1190 485 1185 l 474 1190 l 469 1190 q 456 1190 465 1190 q 435 1188 446 1189 q 414 1185 424 1186 q 400 1182 404 1183 q 392 1147 393 1163 q 392 1113 392 1132 m 882 1132 l 882 1156 q 887 1208 883 1171 q 893 1288 890 1246 q 899 1368 896 1331 q 904 1421 903 1406 q 993 1438 944 1439 q 1086 1436 1042 1436 q 1082 1342 1086 1388 q 1078 1247 1078 1296 q 1078 1235 1078 1243 q 1079 1225 1079 1226 l 1093 1211 q 1101 1210 1094 1211 q 1113 1210 1108 1210 l 1122 1210 q 1147 1213 1133 1210 q 1163 1225 1161 1215 l 1183 1435 l 1192 1443 q 1209 1444 1192 1443 q 1251 1448 1226 1446 q 1302 1452 1276 1450 q 1344 1456 1328 1454 l 1357 1456 q 1368 1455 1364 1456 q 1372 1443 1372 1454 q 1372 1433 1372 1440 q 1369 1418 1371 1426 q 1367 1402 1368 1410 q 1367 1393 1367 1394 q 1362 1344 1365 1379 q 1356 1270 1358 1310 q 1349 1196 1353 1231 q 1344 1147 1346 1161 q 1313 1099 1335 1111 q 1254 1085 1292 1088 q 1194 1081 1238 1083 q 1103 1074 1151 1078 q 1013 1068 1056 1071 q 953 1064 969 1065 q 900 1082 918 1068 q 882 1132 882 1096 m 182 1156 q 228 1169 210 1153 q 253 1211 246 1186 q 257 1213 254 1213 q 264 1206 263 1213 q 269 1190 265 1199 q 285 1174 274 1181 q 319 1167 296 1167 q 318 1163 319 1164 q 317 1163 317 1163 q 313 1156 317 1160 q 303 1147 308 1151 q 294 1139 299 1143 q 288 1133 289 1135 q 286 1122 286 1132 l 286 1106 l 286 1088 q 288 1078 286 1079 q 269 1090 276 1086 q 249 1093 261 1093 q 229 1088 236 1093 q 211 1071 222 1083 q 215 1093 214 1081 q 214 1118 217 1106 q 203 1141 211 1131 q 182 1156 196 1151 m 3501 1132 q 3497 1153 3501 1147 q 3472 1168 3492 1158 q 3524 1184 3501 1164 q 3550 1232 3546 1204 q 3564 1190 3544 1207 q 3607 1182 3583 1174 l 3607 1179 l 3607 1176 q 3601 1170 3606 1175 q 3592 1159 3597 1165 q 3583 1148 3588 1153 q 3578 1142 3579 1143 q 3576 1128 3576 1139 l 3576 1108 l 3576 1089 q 3578 1078 3576 1079 q 3560 1089 3572 1081 q 3543 1099 3547 1097 q 3540 1099 3542 1099 q 3536 1100 3538 1100 q 3531 1099 3533 1100 q 3529 1099 3529 1099 q 3510 1085 3524 1096 q 3494 1071 3497 1075 l 3494 1081 q 3498 1106 3494 1094 q 3501 1132 3501 1118 m 917 1164 q 926 1119 917 1140 q 961 1099 935 1099 l 974 1099 q 1030 1103 990 1100 q 1114 1110 1069 1107 q 1198 1117 1158 1114 q 1254 1119 1238 1119 q 1292 1138 1274 1119 q 1310 1176 1310 1157 q 1313 1213 1311 1186 q 1317 1269 1315 1239 q 1320 1327 1318 1300 q 1324 1365 1322 1354 q 1324 1384 1324 1369 q 1325 1410 1325 1399 l 1325 1421 l 1232 1421 q 1226 1419 1232 1421 q 1219 1414 1221 1417 q 1214 1410 1217 1413 q 1211 1407 1211 1407 l 1192 1204 q 1177 1188 1189 1193 q 1150 1182 1165 1183 q 1121 1181 1135 1181 q 1100 1182 1107 1182 l 1092 1182 l 1067 1182 l 1057 1182 q 1046 1199 1047 1189 q 1044 1218 1044 1208 q 1048 1311 1044 1265 q 1051 1403 1051 1357 q 1036 1402 1047 1403 q 1013 1401 1025 1401 q 989 1401 1000 1401 q 974 1400 978 1400 q 953 1397 967 1400 q 939 1393 940 1393 q 928 1356 932 1386 q 921 1289 924 1326 q 917 1216 918 1251 q 917 1164 917 1181 m 1443 1190 q 1480 1208 1450 1206 q 1542 1210 1510 1210 q 1601 1212 1575 1210 q 1626 1229 1626 1214 l 1625 1232 q 1622 1236 1624 1233 q 1618 1239 1619 1239 l 1485 1239 q 1467 1249 1474 1239 q 1457 1268 1460 1260 l 1457 1276 l 1457 1303 l 1457 1313 q 1456 1358 1457 1335 q 1459 1401 1456 1381 q 1473 1440 1463 1422 q 1507 1469 1483 1457 q 1558 1474 1521 1471 q 1635 1481 1594 1478 q 1713 1487 1676 1483 q 1765 1492 1750 1490 q 1793 1492 1772 1492 q 1821 1493 1814 1493 l 1821 1469 q 1819 1447 1821 1461 q 1817 1419 1818 1432 q 1815 1396 1817 1406 q 1814 1386 1814 1386 l 1807 1379 q 1780 1378 1799 1379 q 1740 1374 1761 1376 q 1699 1369 1718 1372 q 1674 1365 1681 1367 q 1666 1364 1672 1365 q 1653 1361 1660 1363 q 1640 1358 1646 1360 q 1632 1357 1633 1357 q 1626 1351 1629 1356 q 1625 1343 1624 1346 q 1631 1336 1626 1342 q 1639 1331 1636 1331 l 1707 1331 l 1771 1331 q 1792 1327 1778 1331 q 1807 1308 1807 1324 l 1807 1297 l 1807 1261 l 1807 1250 l 1807 1214 q 1796 1156 1807 1185 q 1751 1128 1785 1128 q 1694 1121 1735 1125 q 1607 1113 1653 1117 q 1521 1104 1561 1108 q 1464 1099 1481 1100 q 1449 1097 1461 1097 l 1435 1097 q 1443 1190 1435 1149 m 274 1113 l 267 1106 l 274 1106 l 274 1113 m 1464 1143 q 1471 1135 1464 1136 q 1483 1133 1478 1133 l 1492 1133 q 1540 1138 1506 1135 q 1614 1144 1575 1142 q 1688 1151 1653 1147 q 1736 1156 1722 1154 q 1775 1190 1769 1164 q 1781 1246 1781 1217 l 1781 1254 q 1780 1267 1781 1261 q 1779 1281 1779 1274 l 1779 1288 q 1767 1301 1778 1289 q 1751 1313 1756 1313 l 1596 1313 q 1590 1324 1592 1313 q 1589 1342 1589 1336 q 1592 1365 1589 1353 q 1611 1379 1596 1378 l 1786 1393 l 1786 1464 l 1778 1464 q 1758 1463 1769 1464 q 1744 1463 1747 1463 q 1706 1459 1733 1461 q 1649 1456 1679 1457 q 1592 1452 1618 1454 q 1556 1449 1565 1450 q 1508 1430 1532 1444 q 1485 1386 1485 1415 l 1485 1281 q 1488 1278 1485 1281 q 1492 1274 1490 1276 q 1500 1267 1494 1271 q 1507 1264 1506 1264 l 1646 1264 q 1652 1252 1650 1264 q 1654 1232 1654 1240 l 1654 1228 l 1654 1218 q 1651 1204 1654 1211 q 1639 1197 1649 1197 l 1478 1182 q 1474 1180 1476 1182 q 1471 1176 1471 1178 q 1469 1164 1471 1175 q 1464 1147 1467 1153 l 1464 1143 m 1989 1363 l 1989 1365 q 1984 1374 1986 1368 q 1982 1379 1982 1379 l 1876 1379 q 1878 1438 1876 1408 q 1883 1497 1879 1467 q 1947 1504 1901 1500 q 2042 1513 1992 1508 q 2136 1521 2092 1517 q 2199 1526 2181 1525 q 2215 1527 2203 1526 q 2240 1528 2228 1528 q 2267 1528 2254 1528 q 2283 1529 2279 1529 l 2283 1503 q 2281 1447 2283 1478 q 2269 1407 2278 1415 q 2248 1399 2263 1400 q 2218 1399 2233 1399 q 2191 1395 2203 1399 q 2178 1379 2179 1392 l 2157 1176 l 2150 1156 q 2133 1151 2150 1154 q 2107 1147 2117 1147 q 2092 1147 2107 1147 q 2057 1145 2076 1146 q 2016 1143 2038 1144 q 1982 1142 1994 1142 l 1972 1142 q 1981 1252 1972 1200 q 1989 1363 1989 1304 m 2346 1532 q 2435 1545 2390 1543 q 2524 1547 2479 1547 q 2523 1526 2524 1542 q 2522 1494 2522 1511 q 2522 1463 2522 1478 q 2521 1443 2521 1449 q 2517 1391 2519 1428 q 2513 1313 2515 1354 q 2506 1233 2510 1271 q 2500 1182 2503 1196 l 2346 1168 l 2321 1168 q 2322 1188 2321 1174 q 2323 1220 2322 1203 q 2324 1253 2324 1238 q 2325 1274 2325 1268 q 2329 1325 2326 1288 q 2335 1403 2332 1363 q 2340 1481 2338 1444 q 2346 1532 2343 1518 m 2003 1186 l 2003 1182 q 2007 1178 2006 1179 q 2010 1176 2008 1178 l 2018 1176 q 2031 1176 2025 1176 q 2044 1175 2038 1175 l 2051 1175 q 2067 1174 2057 1175 q 2088 1175 2076 1174 q 2108 1179 2099 1176 q 2121 1190 2117 1182 q 2126 1231 2122 1203 q 2132 1292 2129 1260 q 2138 1353 2135 1325 q 2143 1393 2142 1382 q 2147 1413 2144 1400 q 2150 1425 2149 1425 l 2233 1425 q 2242 1435 2239 1425 q 2244 1456 2242 1436 q 2247 1483 2246 1475 l 2247 1488 q 2241 1497 2247 1496 q 2228 1497 2235 1497 l 2213 1497 q 2154 1493 2193 1496 q 2074 1488 2115 1490 q 1999 1482 2033 1485 q 1954 1478 1964 1479 q 1936 1474 1950 1478 q 1919 1469 1922 1471 q 1911 1463 1914 1468 q 1906 1434 1908 1453 q 1906 1414 1904 1415 l 1911 1407 l 2015 1407 q 2009 1297 2015 1349 q 2003 1186 2003 1244 m 2353 1218 q 2353 1204 2353 1211 q 2363 1197 2354 1197 l 2367 1197 q 2385 1199 2372 1197 q 2413 1201 2399 1200 q 2440 1203 2428 1201 q 2457 1204 2453 1204 q 2465 1211 2463 1206 q 2469 1229 2467 1215 q 2471 1246 2471 1243 q 2477 1316 2474 1274 q 2484 1398 2481 1358 q 2490 1467 2488 1438 q 2493 1497 2493 1496 l 2486 1513 l 2461 1513 l 2453 1513 q 2438 1513 2449 1513 q 2414 1513 2426 1514 q 2390 1509 2401 1513 q 2374 1497 2378 1506 q 2369 1444 2372 1482 q 2363 1365 2367 1407 q 2357 1285 2360 1322 q 2353 1232 2354 1247 l 2353 1218 m 2604 1267 q 2612 1392 2604 1325 q 2626 1518 2619 1460 q 2641 1541 2631 1532 q 2664 1555 2651 1550 q 2690 1563 2676 1560 q 2717 1568 2704 1565 q 2769 1572 2732 1569 q 2849 1578 2807 1575 q 2929 1585 2892 1582 q 2982 1589 2967 1588 l 2986 1589 l 2990 1589 q 2994 1585 2992 1588 q 2996 1582 2996 1583 l 2996 1579 l 2996 1575 q 2995 1551 2996 1567 q 2993 1522 2994 1536 q 2991 1496 2992 1507 q 2990 1483 2990 1485 q 2982 1463 2990 1474 q 2980 1458 2982 1461 q 2976 1456 2978 1456 l 2821 1443 q 2812 1439 2818 1443 q 2800 1430 2806 1435 q 2790 1420 2794 1425 q 2786 1414 2786 1415 l 2786 1357 l 2801 1343 l 2976 1343 q 2974 1282 2976 1315 q 2969 1225 2972 1249 q 2956 1215 2965 1218 q 2942 1211 2947 1213 q 2815 1200 2874 1204 q 2692 1196 2756 1196 q 2628 1210 2651 1196 q 2604 1267 2604 1224 m 2639 1275 q 2653 1238 2639 1251 q 2692 1225 2668 1225 l 2703 1225 l 2926 1239 q 2940 1256 2938 1243 q 2942 1281 2942 1269 l 2942 1294 l 2942 1317 q 2934 1320 2939 1318 q 2926 1322 2929 1322 q 2915 1322 2924 1322 q 2898 1319 2907 1321 q 2881 1317 2889 1318 q 2871 1317 2872 1317 l 2864 1317 q 2850 1316 2858 1317 q 2835 1315 2842 1315 l 2821 1315 l 2811 1315 q 2797 1316 2804 1315 q 2782 1317 2789 1317 l 2772 1317 q 2751 1331 2758 1318 l 2751 1336 l 2751 1356 l 2751 1363 q 2752 1403 2751 1386 q 2758 1449 2753 1421 q 2785 1465 2767 1461 q 2815 1469 2804 1468 q 2842 1474 2822 1471 q 2885 1478 2863 1476 q 2927 1482 2907 1481 q 2956 1483 2947 1483 q 2964 1510 2963 1492 q 2965 1540 2965 1528 l 2965 1550 q 2834 1545 2899 1550 q 2703 1532 2769 1540 q 2661 1506 2676 1525 q 2657 1464 2660 1493 q 2651 1403 2654 1435 q 2644 1342 2647 1371 q 2640 1303 2642 1314 l 2640 1297 q 2640 1290 2640 1294 q 2639 1281 2639 1286 l 2639 1275 m 3088 1554 q 3091 1571 3088 1557 q 3094 1589 3094 1585 q 3098 1593 3096 1592 q 3101 1596 3100 1594 q 3277 1615 3181 1604 q 3460 1625 3374 1625 q 3459 1569 3460 1597 q 3451 1513 3458 1542 q 3405 1508 3435 1510 q 3344 1505 3375 1507 q 3292 1497 3314 1503 q 3269 1482 3269 1492 q 3272 1467 3269 1471 q 3286 1463 3275 1463 q 3365 1467 3326 1463 q 3444 1471 3404 1471 l 3444 1400 l 3432 1393 q 3411 1392 3425 1393 q 3382 1390 3397 1390 q 3352 1388 3367 1389 q 3332 1386 3338 1386 q 3302 1383 3324 1386 q 3276 1379 3281 1379 q 3261 1367 3261 1376 q 3262 1357 3261 1360 q 3269 1351 3263 1354 l 3276 1351 q 3287 1351 3281 1351 q 3297 1350 3293 1350 l 3306 1350 q 3372 1354 3339 1350 q 3438 1358 3404 1358 l 3438 1260 q 3414 1249 3438 1254 q 3353 1240 3390 1244 q 3272 1233 3317 1236 q 3187 1228 3228 1231 q 3113 1225 3146 1226 q 3067 1224 3081 1224 l 3067 1243 l 3067 1260 q 3071 1318 3068 1276 q 3077 1407 3074 1360 q 3083 1496 3081 1454 q 3088 1554 3086 1538 m 3101 1263 q 3115 1253 3101 1253 l 3122 1253 q 3176 1257 3138 1254 q 3259 1263 3215 1260 q 3342 1269 3303 1267 q 3396 1274 3381 1272 q 3408 1287 3404 1276 q 3411 1307 3411 1297 l 3411 1319 q 3407 1335 3411 1332 q 3392 1338 3403 1338 q 3310 1334 3350 1338 q 3229 1331 3269 1331 q 3228 1364 3229 1343 q 3242 1393 3226 1385 q 3322 1397 3278 1394 q 3403 1407 3365 1400 q 3415 1424 3414 1411 q 3417 1446 3417 1436 q 3410 1455 3417 1454 q 3396 1456 3404 1456 q 3317 1453 3357 1456 q 3236 1450 3276 1450 q 3235 1463 3236 1456 q 3235 1479 3235 1471 q 3242 1506 3235 1496 q 3279 1516 3250 1514 q 3340 1519 3308 1518 q 3398 1523 3372 1521 q 3424 1532 3424 1525 l 3424 1589 q 3417 1596 3424 1592 l 3414 1596 l 3410 1596 q 3347 1590 3386 1593 q 3268 1583 3307 1586 q 3199 1577 3229 1579 q 3165 1575 3169 1575 q 3147 1572 3161 1575 q 3131 1568 3133 1568 q 3129 1559 3131 1565 q 3126 1544 3128 1553 q 3124 1528 3125 1536 q 3122 1518 3122 1521 q 3118 1483 3121 1514 q 3112 1411 3115 1451 q 3106 1331 3108 1371 q 3101 1268 3103 1290 l 3101 1263 m 211 1328 q 209 1344 211 1339 q 196 1357 207 1349 q 218 1367 210 1363 q 232 1379 226 1372 q 242 1396 238 1386 q 253 1421 246 1406 l 260 1421 q 278 1381 268 1389 q 322 1372 289 1372 q 308 1359 319 1369 q 294 1343 296 1349 l 294 1332 q 296 1310 294 1319 q 301 1288 297 1301 l 299 1288 q 277 1295 286 1288 q 257 1303 268 1303 q 228 1294 242 1303 q 204 1274 215 1285 l 204 1281 q 208 1304 204 1293 q 211 1328 211 1315 m 3551 1353 q 3546 1367 3551 1363 q 3529 1379 3540 1371 q 3543 1386 3539 1382 q 3574 1408 3565 1394 q 3599 1435 3582 1421 q 3615 1397 3607 1407 q 3656 1393 3624 1388 q 3621 1353 3632 1378 q 3619 1303 3610 1329 q 3601 1315 3613 1306 q 3582 1324 3589 1324 l 3578 1322 l 3543 1294 q 3539 1293 3542 1293 l 3535 1293 q 3543 1322 3535 1308 q 3551 1353 3551 1336 m 3599 1568 q 3583 1593 3596 1582 q 3564 1610 3569 1604 q 3594 1619 3583 1617 q 3613 1626 3606 1622 q 3628 1638 3621 1629 q 3647 1667 3636 1647 q 3656 1649 3654 1658 q 3661 1628 3658 1639 l 3711 1628 l 3711 1618 l 3676 1582 l 3676 1518 q 3653 1531 3665 1522 q 3633 1547 3642 1540 l 3585 1506 l 3585 1508 l 3585 1513 l 3599 1568 z "},"*":{"ha":3168,"x_min":69,"x_max":3099,"o":"m 329 200 q 340 133 329 168 q 370 68 350 97 q 420 19 390 39 q 488 0 450 0 l 496 0 q 525 4 504 1 q 570 13 546 7 q 616 30 594 19 q 647 56 638 40 q 668 94 654 68 q 699 152 682 119 q 736 220 717 185 q 773 288 756 256 q 804 347 790 321 q 825 385 818 372 q 839 405 829 390 q 853 426 849 419 l 867 440 l 908 413 l 1158 149 l 2161 276 l 2325 440 q 2366 392 2347 422 q 2407 344 2385 361 l 2425 344 q 2452 343 2438 344 q 2479 342 2467 342 l 2496 342 l 2518 342 q 2547 343 2533 342 q 2574 344 2561 344 l 2586 344 q 2649 351 2604 346 q 2743 363 2693 357 q 2838 376 2793 369 q 2901 385 2883 382 q 2960 431 2926 406 q 3025 485 2994 456 q 3077 547 3056 514 q 3099 617 3099 581 q 3090 692 3099 660 q 3039 756 3081 724 q 3038 750 3039 754 q 3038 743 3038 746 q 3042 718 3038 729 q 3053 696 3047 707 q 3065 674 3060 685 q 3069 650 3069 663 q 3069 638 3069 644 q 3067 632 3068 632 l 2640 578 q 2607 580 2621 575 q 2582 595 2593 585 q 2562 619 2571 606 q 2544 646 2553 632 l 2188 1417 q 2178 1431 2183 1421 q 2169 1453 2174 1442 q 2163 1473 2165 1464 q 2160 1485 2160 1482 q 2161 1499 2158 1488 q 2164 1513 2164 1510 l 2558 1513 q 2574 1502 2567 1513 q 2588 1478 2582 1492 q 2598 1451 2594 1465 q 2601 1431 2601 1438 q 2601 1422 2601 1426 q 2600 1417 2600 1418 q 2462 1407 2535 1408 q 2325 1389 2389 1406 q 2331 1367 2326 1382 q 2339 1347 2335 1353 q 2352 1316 2343 1335 q 2370 1279 2361 1297 q 2386 1249 2379 1261 q 2393 1238 2393 1238 l 2654 1238 q 2670 1226 2660 1238 q 2692 1201 2681 1215 q 2712 1173 2703 1186 q 2724 1156 2721 1160 l 2724 1169 q 2713 1224 2724 1207 q 2684 1249 2703 1242 q 2640 1259 2665 1257 q 2586 1265 2615 1261 q 2585 1271 2586 1267 q 2585 1279 2585 1275 q 2592 1304 2585 1289 q 2608 1335 2599 1319 q 2627 1365 2618 1350 q 2640 1389 2636 1379 q 2626 1440 2633 1414 q 2608 1489 2619 1467 q 2579 1526 2597 1511 q 2531 1540 2561 1540 l 2146 1540 q 2100 1526 2122 1540 q 2060 1492 2078 1513 q 2028 1447 2042 1471 q 2008 1403 2014 1424 q 1982 1435 1992 1410 q 1963 1486 1972 1460 q 1943 1533 1954 1513 q 1913 1554 1932 1554 l 1417 1554 q 1381 1537 1404 1547 q 1349 1526 1358 1526 q 1338 1528 1346 1526 q 1321 1533 1331 1531 q 1303 1538 1311 1536 q 1293 1540 1296 1540 l 1286 1540 l 1279 1540 q 1301 1513 1294 1522 q 1308 1485 1308 1503 q 1308 1477 1308 1482 q 1307 1471 1307 1472 l 1110 1106 l 1664 536 l 1664 543 l 1664 550 l 1610 715 l 1610 721 l 1610 729 q 1624 746 1614 736 q 1638 756 1633 756 l 1925 783 l 1925 797 q 1916 839 1925 810 q 1894 900 1907 868 q 1867 960 1881 932 q 1843 996 1853 988 l 1650 996 q 1631 1007 1640 996 q 1615 1031 1622 1018 q 1602 1057 1607 1044 q 1596 1072 1597 1069 q 1569 1143 1585 1101 q 1538 1230 1554 1185 q 1504 1320 1521 1275 q 1474 1401 1488 1365 q 1453 1460 1461 1438 q 1444 1485 1444 1483 l 1444 1526 l 1885 1526 q 1912 1517 1901 1526 q 1928 1493 1922 1507 q 1938 1463 1935 1479 q 1940 1436 1940 1447 l 1940 1426 q 1937 1406 1940 1418 q 1925 1394 1933 1394 l 1619 1394 q 1621 1385 1619 1392 q 1624 1375 1622 1378 q 1637 1331 1628 1357 q 1655 1279 1646 1304 q 1671 1235 1664 1254 q 1678 1217 1678 1217 l 2036 1217 l 2064 1182 q 2078 1151 2065 1181 q 2112 1074 2092 1121 q 2157 969 2132 1028 q 2208 852 2182 911 q 2257 739 2233 793 q 2297 646 2281 685 q 2302 630 2299 642 q 2310 605 2306 618 q 2318 580 2314 592 q 2325 564 2322 568 q 2312 551 2322 557 q 2290 542 2301 546 q 2269 538 2279 539 q 2256 536 2258 536 l 1321 426 l 1313 426 l 1307 426 q 1293 433 1303 428 q 1279 440 1283 439 l 931 789 l 661 317 q 644 293 650 299 q 625 288 639 288 l 608 288 q 563 297 588 288 q 518 320 539 306 q 483 355 497 335 q 468 399 468 375 q 474 419 468 403 q 482 440 479 435 q 513 493 492 457 q 562 574 535 529 q 619 667 589 618 q 676 762 649 717 q 724 842 703 807 q 757 893 746 876 q 766 908 761 899 q 775 926 771 917 q 782 942 779 935 q 785 949 785 949 l 235 1526 l 675 1526 l 894 1319 l 894 1333 q 885 1345 894 1333 q 863 1373 876 1357 q 835 1405 849 1389 q 813 1431 821 1421 q 779 1465 800 1444 q 739 1506 758 1486 q 705 1540 719 1525 q 689 1554 690 1554 l 111 1554 l 69 1526 l 69 1293 l 538 811 l 578 743 q 558 694 564 719 q 538 646 553 668 q 465 545 501 597 q 397 438 428 493 q 348 324 367 383 q 329 200 329 264 m 2971 853 q 2978 839 2972 849 q 2990 818 2983 829 q 3003 797 2996 807 q 3013 783 3010 788 q 3025 769 3015 771 l 3025 776 l 3025 783 q 3019 798 3024 788 q 3008 821 3014 808 q 2995 846 3001 833 q 2985 867 2989 858 q 2976 878 2981 871 q 2971 886 2972 886 l 2738 886 q 2731 900 2736 886 q 2724 921 2726 914 q 2723 927 2724 922 q 2722 935 2722 932 q 2731 960 2722 949 q 2751 981 2740 971 q 2770 1003 2761 992 q 2779 1029 2779 1014 q 2766 1086 2779 1058 q 2738 1142 2753 1114 l 2738 1065 l 2614 1065 l 2715 853 l 2971 853 m 1319 1169 q 1328 1193 1319 1185 q 1350 1206 1338 1201 q 1377 1210 1363 1210 q 1403 1211 1392 1211 q 1464 1194 1438 1211 q 1508 1151 1490 1178 q 1533 1091 1525 1125 q 1542 1024 1542 1057 q 1540 1003 1542 1015 q 1526 990 1539 990 l 1403 990 q 1371 1015 1386 990 q 1344 1072 1356 1040 q 1326 1133 1333 1104 q 1319 1169 1319 1163 m 2104 1203 l 2104 1210 q 2111 1219 2106 1214 q 2118 1224 2117 1224 l 2228 1224 q 2251 1203 2238 1224 q 2276 1156 2264 1183 q 2297 1101 2288 1129 q 2311 1058 2307 1074 l 2311 1051 q 2305 1035 2311 1040 q 2290 1029 2299 1031 q 2271 1028 2281 1028 q 2256 1029 2261 1029 q 2196 1044 2224 1029 q 2148 1084 2168 1060 q 2116 1140 2128 1108 q 2104 1203 2104 1171 m 908 1307 l 969 1243 l 1156 1540 q 1167 1557 1163 1551 q 1175 1565 1171 1563 q 1185 1569 1179 1568 q 1203 1569 1192 1569 q 1232 1562 1221 1569 q 1258 1554 1243 1554 l 1265 1554 q 1245 1589 1257 1582 q 1204 1596 1233 1596 q 1133 1572 1167 1596 q 1071 1513 1100 1549 q 1017 1438 1042 1478 q 973 1365 993 1397 q 937 1316 953 1333 q 908 1307 921 1299 m 1967 1293 l 1967 1251 l 1935 1251 q 1947 1275 1935 1264 q 1967 1293 1960 1286 z "},"+":{"ha":2906,"x_min":69,"x_max":2836,"o":"m 1142 14 l 1142 0 l 1156 0 q 1208 46 1171 14 q 1292 116 1246 78 q 1383 192 1338 154 q 1461 258 1429 231 q 1510 297 1493 283 q 1538 316 1526 310 q 1563 325 1550 322 q 1600 333 1575 328 q 1647 342 1613 336 q 1718 355 1681 349 q 1789 367 1756 361 q 1836 375 1822 372 q 1837 378 1836 376 q 1838 382 1838 381 q 1837 386 1838 383 q 1836 389 1836 389 q 1822 397 1833 392 q 1808 403 1811 403 q 1852 424 1829 417 q 1899 437 1875 431 q 1945 451 1922 443 q 1989 472 1968 458 l 1961 486 l 2253 563 l 1822 563 q 1865 614 1836 581 q 1928 681 1894 647 q 1996 739 1963 714 q 2051 764 2029 764 l 2058 764 q 2413 610 2204 610 q 2548 631 2486 610 q 2661 690 2610 651 q 2752 783 2713 729 q 2822 903 2792 836 q 2831 926 2825 911 q 2836 944 2836 942 l 2836 1181 q 2835 1186 2836 1181 q 2831 1199 2833 1192 q 2826 1212 2829 1206 q 2822 1222 2824 1218 q 2660 1425 2764 1349 q 2413 1501 2556 1501 q 2272 1478 2335 1501 q 2142 1417 2210 1454 q 2002 1485 2072 1458 q 1860 1528 1932 1513 q 1714 1551 1789 1544 q 1558 1557 1639 1557 l 1493 1557 q 1406 1553 1449 1557 q 1308 1542 1363 1550 l 1308 1528 q 1415 1503 1368 1515 q 1507 1479 1463 1492 q 1597 1451 1551 1467 q 1697 1417 1643 1436 q 1713 1409 1703 1414 q 1725 1403 1724 1404 q 1726 1401 1725 1403 q 1726 1396 1726 1399 q 1726 1392 1726 1394 q 1725 1389 1725 1389 l 1586 1125 q 1431 1339 1529 1260 q 1183 1418 1333 1418 q 1118 1409 1150 1418 q 1056 1390 1086 1400 q 1000 1370 1026 1379 q 954 1361 974 1361 l 947 1361 q 1171 1726 1035 1556 q 1475 2028 1307 1897 l 1433 2028 q 1407 2019 1432 2028 q 1342 1996 1382 2010 q 1251 1963 1301 1982 q 1151 1926 1201 1944 q 1055 1891 1101 1908 q 975 1861 1008 1874 q 925 1837 946 1850 q 885 1807 904 1824 q 849 1769 867 1790 q 808 1722 831 1749 q 777 1685 797 1710 q 733 1631 757 1661 q 684 1569 710 1601 q 636 1510 658 1538 q 597 1460 614 1482 q 572 1431 579 1439 q 533 1374 560 1414 q 478 1290 507 1335 q 424 1207 449 1246 q 392 1153 400 1168 q 372 1119 386 1144 q 340 1056 358 1093 q 301 977 322 1019 q 260 894 281 935 q 224 819 240 854 q 197 764 207 785 q 157 680 179 726 q 115 583 135 633 q 83 484 96 533 q 69 393 69 435 q 70 374 69 386 q 72 361 71 363 l 183 125 q 203 110 190 110 l 232 110 q 251 110 239 110 q 267 111 264 111 l 1281 278 l 1322 278 q 1316 264 1321 275 q 1308 250 1311 253 q 1275 203 1299 236 q 1225 132 1251 169 q 1175 60 1199 94 q 1142 14 1151 26 m 767 944 q 860 734 792 826 q 1044 597 928 642 l 653 597 q 663 684 653 631 q 690 791 674 738 q 727 888 707 844 q 767 944 747 932 m 1781 861 q 1780 878 1781 865 q 1779 896 1779 892 q 1784 948 1779 928 q 1808 1000 1789 968 l 1878 972 q 1881 965 1879 971 q 1882 954 1882 958 q 1863 904 1882 924 q 1822 861 1844 885 q 1815 853 1819 858 q 1808 847 1810 847 q 1794 853 1804 847 q 1781 861 1783 858 m 1113 1008 q 1134 1056 1113 1039 q 1183 1072 1156 1072 q 1233 1056 1211 1072 q 1254 1008 1254 1039 q 1235 953 1254 978 q 1183 929 1215 929 q 1132 953 1151 929 q 1113 1008 1113 978 m 2349 1058 q 2370 1106 2349 1086 q 2421 1126 2392 1126 q 2444 1119 2432 1126 q 2466 1099 2456 1111 q 2483 1074 2476 1088 q 2489 1049 2489 1060 q 2465 1001 2489 1017 q 2414 985 2442 985 q 2363 1002 2376 985 q 2349 1058 2349 1019 m 1954 1196 q 1958 1195 1956 1196 q 1961 1194 1961 1194 q 1976 1181 1965 1192 q 1989 1167 1986 1171 q 1990 1164 1989 1167 q 1990 1160 1990 1161 q 1978 1131 1990 1143 q 1950 1111 1967 1119 q 1915 1099 1933 1103 q 1885 1096 1897 1096 q 1874 1097 1882 1096 q 1864 1097 1867 1097 q 1879 1119 1868 1103 q 1903 1152 1890 1135 q 1931 1183 1917 1169 q 1954 1196 1944 1196 z "}}}
